M48
; DRILL file {KiCad 7.0.8} date 2024 February 05, Monday 12:52:44
; FORMAT={-:-/ absolute / inch / decimal}
; #@! TF.CreationDate,2024-02-05T12:52:44+01:00
; #@! TF.GenerationSoftware,Kicad,Pcbnew,7.0.8
; #@! TF.FileFunction,Plated,1,2,PTH
FMAT,2
INCH
; #@! TA.AperFunction,Plated,PTH,ViaDrill
T1C0.0157
; #@! TA.AperFunction,Plated,PTH,ComponentDrill
T2C0.0315
; #@! TA.AperFunction,Plated,PTH,ComponentDrill
T3C0.0394
; #@! TA.AperFunction,Plated,PTH,ComponentDrill
T4C0.0591
; #@! TA.AperFunction,Plated,PTH,ViaDrill
T5C0.1339
%
G90
G05
T1
X2.465Y-3.53
X2.47Y-2.88
X2.475Y-2.1
X2.55Y-3.27
X2.55Y-3.35
X2.575Y-3.225
X2.58Y-2.87
X2.615Y-3.58
X2.625Y-3.175
X2.625Y-3.3
X2.63Y-3.63
X2.7165Y-2.88
X2.725Y-3.585
X2.75Y-3.695
X2.8315Y-2.88
X2.9Y-3.54
X2.925Y-2.095
X2.945Y-3.56
X2.9465Y-2.88
X2.9765Y-3.715
X3.0665Y-2.88
X3.095Y-3.71
X3.155Y-3.06
X3.185Y-2.88
X3.2Y-3.275
X3.235Y-3.205
X3.25Y-3.3
X3.275Y-3.175
X3.275Y-3.39
X3.3Y-2.88
X3.38Y-2.1
X3.386Y-2.776
X3.41Y-3.006
X3.83Y-2.1
X3.835Y-3.98
X4.125Y-3.98
X4.2Y-3.975
X4.28Y-2.1
X4.325Y-3.125
X4.33Y-2.655
X4.5669Y-3.7795
X4.575Y-2.9
X4.575Y-3.125
X4.64Y-2.515
X4.73Y-2.1
X4.75Y-2.79
X4.775Y-2.875
X4.825Y-2.575
X4.989Y-2.9
X5.0Y-2.79
X5.015Y-2.515
X5.18Y-2.1
X5.63Y-2.095
X6.295Y-3.05
T2
X3.4752Y-3.2998
X3.4752Y-3.8998
X3.5752Y-3.2998
X3.5752Y-3.8998
X3.6752Y-3.2998
X3.6752Y-3.8998
X3.7752Y-3.2998
X3.7752Y-3.8998
X3.8752Y-3.2998
X3.8752Y-3.8998
X3.9752Y-3.2998
X3.9752Y-3.8998
X4.0752Y-3.2998
X4.0752Y-3.8998
X4.1752Y-3.2998
X4.1752Y-3.8998
X4.2752Y-3.2998
X4.2752Y-3.8998
X4.3752Y-3.2998
X4.3752Y-3.8998
X4.4752Y-3.2998
X4.4752Y-3.8998
X4.5752Y-3.2998
X4.5752Y-3.8998
T3
X2.4Y-3.175
X2.4Y-3.275
X2.4Y-3.375
X2.45Y-3.8
X2.45Y-3.9
X2.4504Y-2.6802
X2.4504Y-2.7802
X2.55Y-3.8
X2.55Y-3.9
X2.5504Y-2.6802
X2.5504Y-2.7802
X2.65Y-3.8
X2.65Y-3.9
X2.6504Y-2.6802
X2.6504Y-2.7802
X2.75Y-3.8
X2.75Y-3.9
X2.7504Y-2.6802
X2.7504Y-2.7802
X2.8504Y-2.6802
X2.8504Y-2.7802
X2.9504Y-2.6802
X2.9504Y-2.7802
X3.0504Y-2.6802
X3.0504Y-2.7802
X3.1504Y-2.6802
X3.1504Y-2.7802
X3.2504Y-2.6802
X3.2504Y-2.7802
X3.6291Y-2.7531
X3.6291Y-2.95
X4.2Y-2.7531
X4.2Y-2.8516
X4.2Y-2.95
X4.8213Y-3.837
X4.8213Y-3.937
X4.9213Y-3.837
X4.9213Y-3.937
X5.0213Y-3.837
X5.0213Y-3.937
X5.25Y-2.675
X5.35Y-2.675
X5.45Y-2.675
X5.55Y-2.675
T5
X2.1654Y-1.8898
X2.1654Y-3.8583
X6.5748Y-1.8898
X6.5748Y-3.8583
T4
G00X3.9303Y-2.6311
M15
G01X3.8791Y-2.6311
M16
G05
G00X3.9303Y-3.072
M15
G01X3.8791Y-3.072
M16
G05
T0
M30
