%TF.GenerationSoftware,KiCad,Pcbnew,7.0.8*%
%TF.CreationDate,2024-01-30T11:56:12+01:00*%
%TF.ProjectId,MidiClockBox_v3,4d696469-436c-46f6-936b-426f785f7633,rev?*%
%TF.SameCoordinates,Original*%
%TF.FileFunction,Legend,Top*%
%TF.FilePolarity,Positive*%
%FSLAX46Y46*%
G04 Gerber Fmt 4.6, Leading zero omitted, Abs format (unit mm)*
G04 Created by KiCad (PCBNEW 7.0.8) date 2024-01-30 11:56:12*
%MOMM*%
%LPD*%
G01*
G04 APERTURE LIST*
%ADD10C,0.150000*%
%ADD11C,0.120000*%
G04 APERTURE END LIST*
D10*
X74060087Y-66344809D02*
X73352980Y-65637702D01*
X73352980Y-65637702D02*
X73622354Y-65368328D01*
X73622354Y-65368328D02*
X73723369Y-65334656D01*
X73723369Y-65334656D02*
X73790713Y-65334656D01*
X73790713Y-65334656D02*
X73891728Y-65368328D01*
X73891728Y-65368328D02*
X73992743Y-65469343D01*
X73992743Y-65469343D02*
X74026415Y-65570358D01*
X74026415Y-65570358D02*
X74026415Y-65637702D01*
X74026415Y-65637702D02*
X73992743Y-65738717D01*
X73992743Y-65738717D02*
X73723369Y-66008091D01*
X74767193Y-65637702D02*
X74295789Y-65166297D01*
X74430476Y-65300984D02*
X74396804Y-65199969D01*
X74396804Y-65199969D02*
X74396804Y-65132626D01*
X74396804Y-65132626D02*
X74430476Y-65031610D01*
X74430476Y-65031610D02*
X74497819Y-64964267D01*
X75440629Y-64896923D02*
X75406957Y-64997938D01*
X75406957Y-64997938D02*
X75272270Y-65132625D01*
X75272270Y-65132625D02*
X75171255Y-65166297D01*
X75171255Y-65166297D02*
X75070239Y-65132625D01*
X75070239Y-65132625D02*
X74800865Y-64863251D01*
X74800865Y-64863251D02*
X74767194Y-64762236D01*
X74767194Y-64762236D02*
X74800865Y-64661221D01*
X74800865Y-64661221D02*
X74935552Y-64526534D01*
X74935552Y-64526534D02*
X75036568Y-64492862D01*
X75036568Y-64492862D02*
X75137583Y-64526534D01*
X75137583Y-64526534D02*
X75204926Y-64593877D01*
X75204926Y-64593877D02*
X74935552Y-64997938D01*
X75036568Y-63954114D02*
X75474300Y-63516381D01*
X75474300Y-63516381D02*
X75507972Y-64021458D01*
X75507972Y-64021458D02*
X75608987Y-63920442D01*
X75608987Y-63920442D02*
X75710003Y-63886771D01*
X75710003Y-63886771D02*
X75777346Y-63886771D01*
X75777346Y-63886771D02*
X75878361Y-63920442D01*
X75878361Y-63920442D02*
X76046720Y-64088801D01*
X76046720Y-64088801D02*
X76080392Y-64189816D01*
X76080392Y-64189816D02*
X76080392Y-64257160D01*
X76080392Y-64257160D02*
X76046720Y-64358175D01*
X76046720Y-64358175D02*
X75844690Y-64560206D01*
X75844690Y-64560206D02*
X75743674Y-64593877D01*
X75743674Y-64593877D02*
X75676331Y-64593877D01*
X73275819Y-61258220D02*
X72275819Y-61258220D01*
X72275819Y-61258220D02*
X72990104Y-60924887D01*
X72990104Y-60924887D02*
X72275819Y-60591554D01*
X72275819Y-60591554D02*
X73275819Y-60591554D01*
X73275819Y-60115363D02*
X72609152Y-60115363D01*
X72275819Y-60115363D02*
X72323438Y-60162982D01*
X72323438Y-60162982D02*
X72371057Y-60115363D01*
X72371057Y-60115363D02*
X72323438Y-60067744D01*
X72323438Y-60067744D02*
X72275819Y-60115363D01*
X72275819Y-60115363D02*
X72371057Y-60115363D01*
X73275819Y-59210602D02*
X72275819Y-59210602D01*
X73228200Y-59210602D02*
X73275819Y-59305840D01*
X73275819Y-59305840D02*
X73275819Y-59496316D01*
X73275819Y-59496316D02*
X73228200Y-59591554D01*
X73228200Y-59591554D02*
X73180580Y-59639173D01*
X73180580Y-59639173D02*
X73085342Y-59686792D01*
X73085342Y-59686792D02*
X72799628Y-59686792D01*
X72799628Y-59686792D02*
X72704390Y-59639173D01*
X72704390Y-59639173D02*
X72656771Y-59591554D01*
X72656771Y-59591554D02*
X72609152Y-59496316D01*
X72609152Y-59496316D02*
X72609152Y-59305840D01*
X72609152Y-59305840D02*
X72656771Y-59210602D01*
X73275819Y-58734411D02*
X72609152Y-58734411D01*
X72275819Y-58734411D02*
X72323438Y-58782030D01*
X72323438Y-58782030D02*
X72371057Y-58734411D01*
X72371057Y-58734411D02*
X72323438Y-58686792D01*
X72323438Y-58686792D02*
X72275819Y-58734411D01*
X72275819Y-58734411D02*
X72371057Y-58734411D01*
X72275819Y-58067745D02*
X72275819Y-57877269D01*
X72275819Y-57877269D02*
X72323438Y-57782031D01*
X72323438Y-57782031D02*
X72418676Y-57686793D01*
X72418676Y-57686793D02*
X72609152Y-57639174D01*
X72609152Y-57639174D02*
X72942485Y-57639174D01*
X72942485Y-57639174D02*
X73132961Y-57686793D01*
X73132961Y-57686793D02*
X73228200Y-57782031D01*
X73228200Y-57782031D02*
X73275819Y-57877269D01*
X73275819Y-57877269D02*
X73275819Y-58067745D01*
X73275819Y-58067745D02*
X73228200Y-58162983D01*
X73228200Y-58162983D02*
X73132961Y-58258221D01*
X73132961Y-58258221D02*
X72942485Y-58305840D01*
X72942485Y-58305840D02*
X72609152Y-58305840D01*
X72609152Y-58305840D02*
X72418676Y-58258221D01*
X72418676Y-58258221D02*
X72323438Y-58162983D01*
X72323438Y-58162983D02*
X72275819Y-58067745D01*
X72609152Y-56782031D02*
X73275819Y-56782031D01*
X72609152Y-57210602D02*
X73132961Y-57210602D01*
X73132961Y-57210602D02*
X73228200Y-57162983D01*
X73228200Y-57162983D02*
X73275819Y-57067745D01*
X73275819Y-57067745D02*
X73275819Y-56924888D01*
X73275819Y-56924888D02*
X73228200Y-56829650D01*
X73228200Y-56829650D02*
X73180580Y-56782031D01*
X72609152Y-56448697D02*
X72609152Y-56067745D01*
X72275819Y-56305840D02*
X73132961Y-56305840D01*
X73132961Y-56305840D02*
X73228200Y-56258221D01*
X73228200Y-56258221D02*
X73275819Y-56162983D01*
X73275819Y-56162983D02*
X73275819Y-56067745D01*
X72275819Y-54496316D02*
X72275819Y-54972506D01*
X72275819Y-54972506D02*
X72752009Y-55020125D01*
X72752009Y-55020125D02*
X72704390Y-54972506D01*
X72704390Y-54972506D02*
X72656771Y-54877268D01*
X72656771Y-54877268D02*
X72656771Y-54639173D01*
X72656771Y-54639173D02*
X72704390Y-54543935D01*
X72704390Y-54543935D02*
X72752009Y-54496316D01*
X72752009Y-54496316D02*
X72847247Y-54448697D01*
X72847247Y-54448697D02*
X73085342Y-54448697D01*
X73085342Y-54448697D02*
X73180580Y-54496316D01*
X73180580Y-54496316D02*
X73228200Y-54543935D01*
X73228200Y-54543935D02*
X73275819Y-54639173D01*
X73275819Y-54639173D02*
X73275819Y-54877268D01*
X73275819Y-54877268D02*
X73228200Y-54972506D01*
X73228200Y-54972506D02*
X73180580Y-55020125D01*
X136658579Y-65528819D02*
X136658579Y-64528819D01*
X136658579Y-64528819D02*
X136896674Y-64528819D01*
X136896674Y-64528819D02*
X137039531Y-64576438D01*
X137039531Y-64576438D02*
X137134769Y-64671676D01*
X137134769Y-64671676D02*
X137182388Y-64766914D01*
X137182388Y-64766914D02*
X137230007Y-64957390D01*
X137230007Y-64957390D02*
X137230007Y-65100247D01*
X137230007Y-65100247D02*
X137182388Y-65290723D01*
X137182388Y-65290723D02*
X137134769Y-65385961D01*
X137134769Y-65385961D02*
X137039531Y-65481200D01*
X137039531Y-65481200D02*
X136896674Y-65528819D01*
X136896674Y-65528819D02*
X136658579Y-65528819D01*
X137658579Y-65528819D02*
X137658579Y-64862152D01*
X137658579Y-64528819D02*
X137610960Y-64576438D01*
X137610960Y-64576438D02*
X137658579Y-64624057D01*
X137658579Y-64624057D02*
X137706198Y-64576438D01*
X137706198Y-64576438D02*
X137658579Y-64528819D01*
X137658579Y-64528819D02*
X137658579Y-64624057D01*
X138087150Y-65481200D02*
X138182388Y-65528819D01*
X138182388Y-65528819D02*
X138372864Y-65528819D01*
X138372864Y-65528819D02*
X138468102Y-65481200D01*
X138468102Y-65481200D02*
X138515721Y-65385961D01*
X138515721Y-65385961D02*
X138515721Y-65338342D01*
X138515721Y-65338342D02*
X138468102Y-65243104D01*
X138468102Y-65243104D02*
X138372864Y-65195485D01*
X138372864Y-65195485D02*
X138230007Y-65195485D01*
X138230007Y-65195485D02*
X138134769Y-65147866D01*
X138134769Y-65147866D02*
X138087150Y-65052628D01*
X138087150Y-65052628D02*
X138087150Y-65005009D01*
X138087150Y-65005009D02*
X138134769Y-64909771D01*
X138134769Y-64909771D02*
X138230007Y-64862152D01*
X138230007Y-64862152D02*
X138372864Y-64862152D01*
X138372864Y-64862152D02*
X138468102Y-64909771D01*
X138944293Y-64862152D02*
X138944293Y-65862152D01*
X138944293Y-64909771D02*
X139039531Y-64862152D01*
X139039531Y-64862152D02*
X139230007Y-64862152D01*
X139230007Y-64862152D02*
X139325245Y-64909771D01*
X139325245Y-64909771D02*
X139372864Y-64957390D01*
X139372864Y-64957390D02*
X139420483Y-65052628D01*
X139420483Y-65052628D02*
X139420483Y-65338342D01*
X139420483Y-65338342D02*
X139372864Y-65433580D01*
X139372864Y-65433580D02*
X139325245Y-65481200D01*
X139325245Y-65481200D02*
X139230007Y-65528819D01*
X139230007Y-65528819D02*
X139039531Y-65528819D01*
X139039531Y-65528819D02*
X138944293Y-65481200D01*
X139991912Y-65528819D02*
X139896674Y-65481200D01*
X139896674Y-65481200D02*
X139849055Y-65385961D01*
X139849055Y-65385961D02*
X139849055Y-64528819D01*
X140801436Y-65528819D02*
X140801436Y-65005009D01*
X140801436Y-65005009D02*
X140753817Y-64909771D01*
X140753817Y-64909771D02*
X140658579Y-64862152D01*
X140658579Y-64862152D02*
X140468103Y-64862152D01*
X140468103Y-64862152D02*
X140372865Y-64909771D01*
X140801436Y-65481200D02*
X140706198Y-65528819D01*
X140706198Y-65528819D02*
X140468103Y-65528819D01*
X140468103Y-65528819D02*
X140372865Y-65481200D01*
X140372865Y-65481200D02*
X140325246Y-65385961D01*
X140325246Y-65385961D02*
X140325246Y-65290723D01*
X140325246Y-65290723D02*
X140372865Y-65195485D01*
X140372865Y-65195485D02*
X140468103Y-65147866D01*
X140468103Y-65147866D02*
X140706198Y-65147866D01*
X140706198Y-65147866D02*
X140801436Y-65100247D01*
X141182389Y-64862152D02*
X141420484Y-65528819D01*
X141658579Y-64862152D02*
X141420484Y-65528819D01*
X141420484Y-65528819D02*
X141325246Y-65766914D01*
X141325246Y-65766914D02*
X141277627Y-65814533D01*
X141277627Y-65814533D02*
X141182389Y-65862152D01*
X139014200Y-72989839D02*
X139061819Y-72846982D01*
X139061819Y-72846982D02*
X139061819Y-72608887D01*
X139061819Y-72608887D02*
X139014200Y-72513649D01*
X139014200Y-72513649D02*
X138966580Y-72466030D01*
X138966580Y-72466030D02*
X138871342Y-72418411D01*
X138871342Y-72418411D02*
X138776104Y-72418411D01*
X138776104Y-72418411D02*
X138680866Y-72466030D01*
X138680866Y-72466030D02*
X138633247Y-72513649D01*
X138633247Y-72513649D02*
X138585628Y-72608887D01*
X138585628Y-72608887D02*
X138538009Y-72799363D01*
X138538009Y-72799363D02*
X138490390Y-72894601D01*
X138490390Y-72894601D02*
X138442771Y-72942220D01*
X138442771Y-72942220D02*
X138347533Y-72989839D01*
X138347533Y-72989839D02*
X138252295Y-72989839D01*
X138252295Y-72989839D02*
X138157057Y-72942220D01*
X138157057Y-72942220D02*
X138109438Y-72894601D01*
X138109438Y-72894601D02*
X138061819Y-72799363D01*
X138061819Y-72799363D02*
X138061819Y-72561268D01*
X138061819Y-72561268D02*
X138109438Y-72418411D01*
X138966580Y-71418411D02*
X139014200Y-71466030D01*
X139014200Y-71466030D02*
X139061819Y-71608887D01*
X139061819Y-71608887D02*
X139061819Y-71704125D01*
X139061819Y-71704125D02*
X139014200Y-71846982D01*
X139014200Y-71846982D02*
X138918961Y-71942220D01*
X138918961Y-71942220D02*
X138823723Y-71989839D01*
X138823723Y-71989839D02*
X138633247Y-72037458D01*
X138633247Y-72037458D02*
X138490390Y-72037458D01*
X138490390Y-72037458D02*
X138299914Y-71989839D01*
X138299914Y-71989839D02*
X138204676Y-71942220D01*
X138204676Y-71942220D02*
X138109438Y-71846982D01*
X138109438Y-71846982D02*
X138061819Y-71704125D01*
X138061819Y-71704125D02*
X138061819Y-71608887D01*
X138061819Y-71608887D02*
X138109438Y-71466030D01*
X138109438Y-71466030D02*
X138157057Y-71418411D01*
X139061819Y-70513649D02*
X139061819Y-70989839D01*
X139061819Y-70989839D02*
X138061819Y-70989839D01*
X61591819Y-61131220D02*
X60591819Y-61131220D01*
X60591819Y-61131220D02*
X61306104Y-60797887D01*
X61306104Y-60797887D02*
X60591819Y-60464554D01*
X60591819Y-60464554D02*
X61591819Y-60464554D01*
X61591819Y-59988363D02*
X60925152Y-59988363D01*
X60591819Y-59988363D02*
X60639438Y-60035982D01*
X60639438Y-60035982D02*
X60687057Y-59988363D01*
X60687057Y-59988363D02*
X60639438Y-59940744D01*
X60639438Y-59940744D02*
X60591819Y-59988363D01*
X60591819Y-59988363D02*
X60687057Y-59988363D01*
X61591819Y-59083602D02*
X60591819Y-59083602D01*
X61544200Y-59083602D02*
X61591819Y-59178840D01*
X61591819Y-59178840D02*
X61591819Y-59369316D01*
X61591819Y-59369316D02*
X61544200Y-59464554D01*
X61544200Y-59464554D02*
X61496580Y-59512173D01*
X61496580Y-59512173D02*
X61401342Y-59559792D01*
X61401342Y-59559792D02*
X61115628Y-59559792D01*
X61115628Y-59559792D02*
X61020390Y-59512173D01*
X61020390Y-59512173D02*
X60972771Y-59464554D01*
X60972771Y-59464554D02*
X60925152Y-59369316D01*
X60925152Y-59369316D02*
X60925152Y-59178840D01*
X60925152Y-59178840D02*
X60972771Y-59083602D01*
X61591819Y-58607411D02*
X60925152Y-58607411D01*
X60591819Y-58607411D02*
X60639438Y-58655030D01*
X60639438Y-58655030D02*
X60687057Y-58607411D01*
X60687057Y-58607411D02*
X60639438Y-58559792D01*
X60639438Y-58559792D02*
X60591819Y-58607411D01*
X60591819Y-58607411D02*
X60687057Y-58607411D01*
X60591819Y-57940745D02*
X60591819Y-57750269D01*
X60591819Y-57750269D02*
X60639438Y-57655031D01*
X60639438Y-57655031D02*
X60734676Y-57559793D01*
X60734676Y-57559793D02*
X60925152Y-57512174D01*
X60925152Y-57512174D02*
X61258485Y-57512174D01*
X61258485Y-57512174D02*
X61448961Y-57559793D01*
X61448961Y-57559793D02*
X61544200Y-57655031D01*
X61544200Y-57655031D02*
X61591819Y-57750269D01*
X61591819Y-57750269D02*
X61591819Y-57940745D01*
X61591819Y-57940745D02*
X61544200Y-58035983D01*
X61544200Y-58035983D02*
X61448961Y-58131221D01*
X61448961Y-58131221D02*
X61258485Y-58178840D01*
X61258485Y-58178840D02*
X60925152Y-58178840D01*
X60925152Y-58178840D02*
X60734676Y-58131221D01*
X60734676Y-58131221D02*
X60639438Y-58035983D01*
X60639438Y-58035983D02*
X60591819Y-57940745D01*
X60925152Y-56655031D02*
X61591819Y-56655031D01*
X60925152Y-57083602D02*
X61448961Y-57083602D01*
X61448961Y-57083602D02*
X61544200Y-57035983D01*
X61544200Y-57035983D02*
X61591819Y-56940745D01*
X61591819Y-56940745D02*
X61591819Y-56797888D01*
X61591819Y-56797888D02*
X61544200Y-56702650D01*
X61544200Y-56702650D02*
X61496580Y-56655031D01*
X60925152Y-56321697D02*
X60925152Y-55940745D01*
X60591819Y-56178840D02*
X61448961Y-56178840D01*
X61448961Y-56178840D02*
X61544200Y-56131221D01*
X61544200Y-56131221D02*
X61591819Y-56035983D01*
X61591819Y-56035983D02*
X61591819Y-55940745D01*
X60925152Y-54416935D02*
X61591819Y-54416935D01*
X60544200Y-54655030D02*
X61258485Y-54893125D01*
X61258485Y-54893125D02*
X61258485Y-54274078D01*
X130124200Y-60670839D02*
X130171819Y-60527982D01*
X130171819Y-60527982D02*
X130171819Y-60289887D01*
X130171819Y-60289887D02*
X130124200Y-60194649D01*
X130124200Y-60194649D02*
X130076580Y-60147030D01*
X130076580Y-60147030D02*
X129981342Y-60099411D01*
X129981342Y-60099411D02*
X129886104Y-60099411D01*
X129886104Y-60099411D02*
X129790866Y-60147030D01*
X129790866Y-60147030D02*
X129743247Y-60194649D01*
X129743247Y-60194649D02*
X129695628Y-60289887D01*
X129695628Y-60289887D02*
X129648009Y-60480363D01*
X129648009Y-60480363D02*
X129600390Y-60575601D01*
X129600390Y-60575601D02*
X129552771Y-60623220D01*
X129552771Y-60623220D02*
X129457533Y-60670839D01*
X129457533Y-60670839D02*
X129362295Y-60670839D01*
X129362295Y-60670839D02*
X129267057Y-60623220D01*
X129267057Y-60623220D02*
X129219438Y-60575601D01*
X129219438Y-60575601D02*
X129171819Y-60480363D01*
X129171819Y-60480363D02*
X129171819Y-60242268D01*
X129171819Y-60242268D02*
X129219438Y-60099411D01*
X129505152Y-59766077D02*
X130171819Y-59527982D01*
X129505152Y-59289887D02*
X130171819Y-59527982D01*
X130171819Y-59527982D02*
X130409914Y-59623220D01*
X130409914Y-59623220D02*
X130457533Y-59670839D01*
X130457533Y-59670839D02*
X130505152Y-59766077D01*
X129505152Y-58908934D02*
X130171819Y-58908934D01*
X129600390Y-58908934D02*
X129552771Y-58861315D01*
X129552771Y-58861315D02*
X129505152Y-58766077D01*
X129505152Y-58766077D02*
X129505152Y-58623220D01*
X129505152Y-58623220D02*
X129552771Y-58527982D01*
X129552771Y-58527982D02*
X129648009Y-58480363D01*
X129648009Y-58480363D02*
X130171819Y-58480363D01*
X130124200Y-57575601D02*
X130171819Y-57670839D01*
X130171819Y-57670839D02*
X130171819Y-57861315D01*
X130171819Y-57861315D02*
X130124200Y-57956553D01*
X130124200Y-57956553D02*
X130076580Y-58004172D01*
X130076580Y-58004172D02*
X129981342Y-58051791D01*
X129981342Y-58051791D02*
X129695628Y-58051791D01*
X129695628Y-58051791D02*
X129600390Y-58004172D01*
X129600390Y-58004172D02*
X129552771Y-57956553D01*
X129552771Y-57956553D02*
X129505152Y-57861315D01*
X129505152Y-57861315D02*
X129505152Y-57670839D01*
X129505152Y-57670839D02*
X129552771Y-57575601D01*
X129171819Y-56956553D02*
X129171819Y-56766077D01*
X129171819Y-56766077D02*
X129219438Y-56670839D01*
X129219438Y-56670839D02*
X129314676Y-56575601D01*
X129314676Y-56575601D02*
X129505152Y-56527982D01*
X129505152Y-56527982D02*
X129838485Y-56527982D01*
X129838485Y-56527982D02*
X130028961Y-56575601D01*
X130028961Y-56575601D02*
X130124200Y-56670839D01*
X130124200Y-56670839D02*
X130171819Y-56766077D01*
X130171819Y-56766077D02*
X130171819Y-56956553D01*
X130171819Y-56956553D02*
X130124200Y-57051791D01*
X130124200Y-57051791D02*
X130028961Y-57147029D01*
X130028961Y-57147029D02*
X129838485Y-57194648D01*
X129838485Y-57194648D02*
X129505152Y-57194648D01*
X129505152Y-57194648D02*
X129314676Y-57147029D01*
X129314676Y-57147029D02*
X129219438Y-57051791D01*
X129219438Y-57051791D02*
X129171819Y-56956553D01*
X129505152Y-55670839D02*
X130171819Y-55670839D01*
X129505152Y-56099410D02*
X130028961Y-56099410D01*
X130028961Y-56099410D02*
X130124200Y-56051791D01*
X130124200Y-56051791D02*
X130171819Y-55956553D01*
X130171819Y-55956553D02*
X130171819Y-55813696D01*
X130171819Y-55813696D02*
X130124200Y-55718458D01*
X130124200Y-55718458D02*
X130076580Y-55670839D01*
X129505152Y-55337505D02*
X129505152Y-54956553D01*
X129171819Y-55194648D02*
X130028961Y-55194648D01*
X130028961Y-55194648D02*
X130124200Y-55147029D01*
X130124200Y-55147029D02*
X130171819Y-55051791D01*
X130171819Y-55051791D02*
X130171819Y-54956553D01*
X129171819Y-53670838D02*
X129171819Y-53575600D01*
X129171819Y-53575600D02*
X129219438Y-53480362D01*
X129219438Y-53480362D02*
X129267057Y-53432743D01*
X129267057Y-53432743D02*
X129362295Y-53385124D01*
X129362295Y-53385124D02*
X129552771Y-53337505D01*
X129552771Y-53337505D02*
X129790866Y-53337505D01*
X129790866Y-53337505D02*
X129981342Y-53385124D01*
X129981342Y-53385124D02*
X130076580Y-53432743D01*
X130076580Y-53432743D02*
X130124200Y-53480362D01*
X130124200Y-53480362D02*
X130171819Y-53575600D01*
X130171819Y-53575600D02*
X130171819Y-53670838D01*
X130171819Y-53670838D02*
X130124200Y-53766076D01*
X130124200Y-53766076D02*
X130076580Y-53813695D01*
X130076580Y-53813695D02*
X129981342Y-53861314D01*
X129981342Y-53861314D02*
X129790866Y-53908933D01*
X129790866Y-53908933D02*
X129552771Y-53908933D01*
X129552771Y-53908933D02*
X129362295Y-53861314D01*
X129362295Y-53861314D02*
X129267057Y-53813695D01*
X129267057Y-53813695D02*
X129219438Y-53766076D01*
X129219438Y-53766076D02*
X129171819Y-53670838D01*
X141300200Y-72862839D02*
X141347819Y-72719982D01*
X141347819Y-72719982D02*
X141347819Y-72481887D01*
X141347819Y-72481887D02*
X141300200Y-72386649D01*
X141300200Y-72386649D02*
X141252580Y-72339030D01*
X141252580Y-72339030D02*
X141157342Y-72291411D01*
X141157342Y-72291411D02*
X141062104Y-72291411D01*
X141062104Y-72291411D02*
X140966866Y-72339030D01*
X140966866Y-72339030D02*
X140919247Y-72386649D01*
X140919247Y-72386649D02*
X140871628Y-72481887D01*
X140871628Y-72481887D02*
X140824009Y-72672363D01*
X140824009Y-72672363D02*
X140776390Y-72767601D01*
X140776390Y-72767601D02*
X140728771Y-72815220D01*
X140728771Y-72815220D02*
X140633533Y-72862839D01*
X140633533Y-72862839D02*
X140538295Y-72862839D01*
X140538295Y-72862839D02*
X140443057Y-72815220D01*
X140443057Y-72815220D02*
X140395438Y-72767601D01*
X140395438Y-72767601D02*
X140347819Y-72672363D01*
X140347819Y-72672363D02*
X140347819Y-72434268D01*
X140347819Y-72434268D02*
X140395438Y-72291411D01*
X141347819Y-71862839D02*
X140347819Y-71862839D01*
X140347819Y-71862839D02*
X140347819Y-71624744D01*
X140347819Y-71624744D02*
X140395438Y-71481887D01*
X140395438Y-71481887D02*
X140490676Y-71386649D01*
X140490676Y-71386649D02*
X140585914Y-71339030D01*
X140585914Y-71339030D02*
X140776390Y-71291411D01*
X140776390Y-71291411D02*
X140919247Y-71291411D01*
X140919247Y-71291411D02*
X141109723Y-71339030D01*
X141109723Y-71339030D02*
X141204961Y-71386649D01*
X141204961Y-71386649D02*
X141300200Y-71481887D01*
X141300200Y-71481887D02*
X141347819Y-71624744D01*
X141347819Y-71624744D02*
X141347819Y-71862839D01*
X141062104Y-70910458D02*
X141062104Y-70434268D01*
X141347819Y-71005696D02*
X140347819Y-70672363D01*
X140347819Y-70672363D02*
X141347819Y-70339030D01*
X61059965Y-65865717D02*
X61464026Y-65461656D01*
X61969102Y-66370794D02*
X61261995Y-65663687D01*
X62709881Y-65630015D02*
X62339491Y-65259626D01*
X62339491Y-65259626D02*
X62238476Y-65225954D01*
X62238476Y-65225954D02*
X62137461Y-65259626D01*
X62137461Y-65259626D02*
X62002774Y-65394313D01*
X62002774Y-65394313D02*
X61969102Y-65495328D01*
X62676209Y-65596343D02*
X62642537Y-65697358D01*
X62642537Y-65697358D02*
X62474178Y-65865717D01*
X62474178Y-65865717D02*
X62373163Y-65899389D01*
X62373163Y-65899389D02*
X62272148Y-65865717D01*
X62272148Y-65865717D02*
X62204804Y-65798374D01*
X62204804Y-65798374D02*
X62171132Y-65697358D01*
X62171132Y-65697358D02*
X62204804Y-65596343D01*
X62204804Y-65596343D02*
X62373163Y-65427984D01*
X62373163Y-65427984D02*
X62406835Y-65326969D01*
X62575194Y-64821893D02*
X63282300Y-65529000D01*
X62608865Y-64855564D02*
X62642537Y-64754549D01*
X62642537Y-64754549D02*
X62777224Y-64619862D01*
X62777224Y-64619862D02*
X62878239Y-64586190D01*
X62878239Y-64586190D02*
X62945583Y-64586190D01*
X62945583Y-64586190D02*
X63046598Y-64619862D01*
X63046598Y-64619862D02*
X63248629Y-64821893D01*
X63248629Y-64821893D02*
X63282300Y-64922908D01*
X63282300Y-64922908D02*
X63282300Y-64990251D01*
X63282300Y-64990251D02*
X63248629Y-65091267D01*
X63248629Y-65091267D02*
X63113942Y-65225954D01*
X63113942Y-65225954D02*
X63012926Y-65259625D01*
X76465400Y-65738717D02*
X76229697Y-65974420D01*
X76600087Y-66344809D02*
X75892980Y-65637702D01*
X75892980Y-65637702D02*
X76229697Y-65300984D01*
X77138835Y-65738717D02*
X77273522Y-65671374D01*
X77273522Y-65671374D02*
X77441880Y-65503015D01*
X77441880Y-65503015D02*
X77475552Y-65402000D01*
X77475552Y-65402000D02*
X77475552Y-65334656D01*
X77475552Y-65334656D02*
X77441880Y-65233641D01*
X77441880Y-65233641D02*
X77374537Y-65166297D01*
X77374537Y-65166297D02*
X77273522Y-65132626D01*
X77273522Y-65132626D02*
X77206178Y-65132626D01*
X77206178Y-65132626D02*
X77105163Y-65166297D01*
X77105163Y-65166297D02*
X76936804Y-65267313D01*
X76936804Y-65267313D02*
X76835789Y-65300984D01*
X76835789Y-65300984D02*
X76768445Y-65300984D01*
X76768445Y-65300984D02*
X76667430Y-65267313D01*
X76667430Y-65267313D02*
X76600087Y-65199969D01*
X76600087Y-65199969D02*
X76566415Y-65098954D01*
X76566415Y-65098954D02*
X76566415Y-65031610D01*
X76566415Y-65031610D02*
X76600087Y-64930595D01*
X76600087Y-64930595D02*
X76768445Y-64762236D01*
X76768445Y-64762236D02*
X76903132Y-64694893D01*
X77105163Y-64425519D02*
X77980628Y-64964267D01*
X77980628Y-64964267D02*
X77610239Y-64324504D01*
X77610239Y-64324504D02*
X78250003Y-64694893D01*
X78250003Y-64694893D02*
X77711254Y-63819427D01*
X79058124Y-63886771D02*
X78654063Y-64290832D01*
X78856094Y-64088801D02*
X78148987Y-63381695D01*
X78148987Y-63381695D02*
X78182659Y-63550053D01*
X78182659Y-63550053D02*
X78182659Y-63684740D01*
X78182659Y-63684740D02*
X78148987Y-63785756D01*
X64467743Y-66471809D02*
X64602430Y-66404465D01*
X64602430Y-66404465D02*
X64770789Y-66236107D01*
X64770789Y-66236107D02*
X64804461Y-66135091D01*
X64804461Y-66135091D02*
X64804461Y-66067748D01*
X64804461Y-66067748D02*
X64770789Y-65966733D01*
X64770789Y-65966733D02*
X64703445Y-65899389D01*
X64703445Y-65899389D02*
X64602430Y-65865717D01*
X64602430Y-65865717D02*
X64535087Y-65865717D01*
X64535087Y-65865717D02*
X64434071Y-65899389D01*
X64434071Y-65899389D02*
X64265713Y-66000404D01*
X64265713Y-66000404D02*
X64164697Y-66034076D01*
X64164697Y-66034076D02*
X64097354Y-66034076D01*
X64097354Y-66034076D02*
X63996339Y-66000404D01*
X63996339Y-66000404D02*
X63928995Y-65933061D01*
X63928995Y-65933061D02*
X63895323Y-65832046D01*
X63895323Y-65832046D02*
X63895323Y-65764702D01*
X63895323Y-65764702D02*
X63928995Y-65663687D01*
X63928995Y-65663687D02*
X64097354Y-65495328D01*
X64097354Y-65495328D02*
X64232041Y-65427984D01*
X64636102Y-65427984D02*
X64905476Y-65158610D01*
X64501415Y-65091267D02*
X65107506Y-65697358D01*
X65107506Y-65697358D02*
X65208522Y-65731030D01*
X65208522Y-65731030D02*
X65309537Y-65697358D01*
X65309537Y-65697358D02*
X65376880Y-65630015D01*
X65915629Y-65091267D02*
X65545239Y-64720877D01*
X65545239Y-64720877D02*
X65444224Y-64687206D01*
X65444224Y-64687206D02*
X65343209Y-64720877D01*
X65343209Y-64720877D02*
X65208522Y-64855564D01*
X65208522Y-64855564D02*
X65174850Y-64956580D01*
X65881957Y-65057595D02*
X65848285Y-65158610D01*
X65848285Y-65158610D02*
X65679926Y-65326969D01*
X65679926Y-65326969D02*
X65578911Y-65360641D01*
X65578911Y-65360641D02*
X65477896Y-65326969D01*
X65477896Y-65326969D02*
X65410552Y-65259625D01*
X65410552Y-65259625D02*
X65376881Y-65158610D01*
X65376881Y-65158610D02*
X65410552Y-65057595D01*
X65410552Y-65057595D02*
X65578911Y-64889236D01*
X65578911Y-64889236D02*
X65612583Y-64788221D01*
X66252346Y-64754549D02*
X65780942Y-64283145D01*
X65915629Y-64417832D02*
X65881957Y-64316816D01*
X65881957Y-64316816D02*
X65881957Y-64249473D01*
X65881957Y-64249473D02*
X65915629Y-64148458D01*
X65915629Y-64148458D02*
X65982972Y-64081114D01*
X66117660Y-63946427D02*
X66387034Y-63677053D01*
X65982973Y-63609709D02*
X66589064Y-64215801D01*
X66589064Y-64215801D02*
X66690079Y-64249473D01*
X66690079Y-64249473D02*
X66791095Y-64215801D01*
X66791095Y-64215801D02*
X66858438Y-64148457D01*
X57493019Y-85432658D02*
X58493019Y-85194563D01*
X58493019Y-85194563D02*
X57778733Y-85004087D01*
X57778733Y-85004087D02*
X58493019Y-84813611D01*
X58493019Y-84813611D02*
X57493019Y-84575516D01*
X58445400Y-84242182D02*
X58493019Y-84099325D01*
X58493019Y-84099325D02*
X58493019Y-83861230D01*
X58493019Y-83861230D02*
X58445400Y-83765992D01*
X58445400Y-83765992D02*
X58397780Y-83718373D01*
X58397780Y-83718373D02*
X58302542Y-83670754D01*
X58302542Y-83670754D02*
X58207304Y-83670754D01*
X58207304Y-83670754D02*
X58112066Y-83718373D01*
X58112066Y-83718373D02*
X58064447Y-83765992D01*
X58064447Y-83765992D02*
X58016828Y-83861230D01*
X58016828Y-83861230D02*
X57969209Y-84051706D01*
X57969209Y-84051706D02*
X57921590Y-84146944D01*
X57921590Y-84146944D02*
X57873971Y-84194563D01*
X57873971Y-84194563D02*
X57778733Y-84242182D01*
X57778733Y-84242182D02*
X57683495Y-84242182D01*
X57683495Y-84242182D02*
X57588257Y-84194563D01*
X57588257Y-84194563D02*
X57540638Y-84146944D01*
X57540638Y-84146944D02*
X57493019Y-84051706D01*
X57493019Y-84051706D02*
X57493019Y-83813611D01*
X57493019Y-83813611D02*
X57540638Y-83670754D01*
X57588257Y-83289801D02*
X57540638Y-83242182D01*
X57540638Y-83242182D02*
X57493019Y-83146944D01*
X57493019Y-83146944D02*
X57493019Y-82908849D01*
X57493019Y-82908849D02*
X57540638Y-82813611D01*
X57540638Y-82813611D02*
X57588257Y-82765992D01*
X57588257Y-82765992D02*
X57683495Y-82718373D01*
X57683495Y-82718373D02*
X57778733Y-82718373D01*
X57778733Y-82718373D02*
X57921590Y-82765992D01*
X57921590Y-82765992D02*
X58493019Y-83337420D01*
X58493019Y-83337420D02*
X58493019Y-82718373D01*
X57921590Y-82146944D02*
X57873971Y-82242182D01*
X57873971Y-82242182D02*
X57826352Y-82289801D01*
X57826352Y-82289801D02*
X57731114Y-82337420D01*
X57731114Y-82337420D02*
X57683495Y-82337420D01*
X57683495Y-82337420D02*
X57588257Y-82289801D01*
X57588257Y-82289801D02*
X57540638Y-82242182D01*
X57540638Y-82242182D02*
X57493019Y-82146944D01*
X57493019Y-82146944D02*
X57493019Y-81956468D01*
X57493019Y-81956468D02*
X57540638Y-81861230D01*
X57540638Y-81861230D02*
X57588257Y-81813611D01*
X57588257Y-81813611D02*
X57683495Y-81765992D01*
X57683495Y-81765992D02*
X57731114Y-81765992D01*
X57731114Y-81765992D02*
X57826352Y-81813611D01*
X57826352Y-81813611D02*
X57873971Y-81861230D01*
X57873971Y-81861230D02*
X57921590Y-81956468D01*
X57921590Y-81956468D02*
X57921590Y-82146944D01*
X57921590Y-82146944D02*
X57969209Y-82242182D01*
X57969209Y-82242182D02*
X58016828Y-82289801D01*
X58016828Y-82289801D02*
X58112066Y-82337420D01*
X58112066Y-82337420D02*
X58302542Y-82337420D01*
X58302542Y-82337420D02*
X58397780Y-82289801D01*
X58397780Y-82289801D02*
X58445400Y-82242182D01*
X58445400Y-82242182D02*
X58493019Y-82146944D01*
X58493019Y-82146944D02*
X58493019Y-81956468D01*
X58493019Y-81956468D02*
X58445400Y-81861230D01*
X58445400Y-81861230D02*
X58397780Y-81813611D01*
X58397780Y-81813611D02*
X58302542Y-81765992D01*
X58302542Y-81765992D02*
X58112066Y-81765992D01*
X58112066Y-81765992D02*
X58016828Y-81813611D01*
X58016828Y-81813611D02*
X57969209Y-81861230D01*
X57969209Y-81861230D02*
X57921590Y-81956468D01*
X58493019Y-80813611D02*
X58493019Y-81385039D01*
X58493019Y-81099325D02*
X57493019Y-81099325D01*
X57493019Y-81099325D02*
X57635876Y-81194563D01*
X57635876Y-81194563D02*
X57731114Y-81289801D01*
X57731114Y-81289801D02*
X57778733Y-81385039D01*
X57588257Y-80432658D02*
X57540638Y-80385039D01*
X57540638Y-80385039D02*
X57493019Y-80289801D01*
X57493019Y-80289801D02*
X57493019Y-80051706D01*
X57493019Y-80051706D02*
X57540638Y-79956468D01*
X57540638Y-79956468D02*
X57588257Y-79908849D01*
X57588257Y-79908849D02*
X57683495Y-79861230D01*
X57683495Y-79861230D02*
X57778733Y-79861230D01*
X57778733Y-79861230D02*
X57921590Y-79908849D01*
X57921590Y-79908849D02*
X58493019Y-80480277D01*
X58493019Y-80480277D02*
X58493019Y-79861230D01*
X153285819Y-60369220D02*
X152285819Y-60369220D01*
X152285819Y-60369220D02*
X153000104Y-60035887D01*
X153000104Y-60035887D02*
X152285819Y-59702554D01*
X152285819Y-59702554D02*
X153285819Y-59702554D01*
X153285819Y-59226363D02*
X152619152Y-59226363D01*
X152285819Y-59226363D02*
X152333438Y-59273982D01*
X152333438Y-59273982D02*
X152381057Y-59226363D01*
X152381057Y-59226363D02*
X152333438Y-59178744D01*
X152333438Y-59178744D02*
X152285819Y-59226363D01*
X152285819Y-59226363D02*
X152381057Y-59226363D01*
X153285819Y-58321602D02*
X152285819Y-58321602D01*
X153238200Y-58321602D02*
X153285819Y-58416840D01*
X153285819Y-58416840D02*
X153285819Y-58607316D01*
X153285819Y-58607316D02*
X153238200Y-58702554D01*
X153238200Y-58702554D02*
X153190580Y-58750173D01*
X153190580Y-58750173D02*
X153095342Y-58797792D01*
X153095342Y-58797792D02*
X152809628Y-58797792D01*
X152809628Y-58797792D02*
X152714390Y-58750173D01*
X152714390Y-58750173D02*
X152666771Y-58702554D01*
X152666771Y-58702554D02*
X152619152Y-58607316D01*
X152619152Y-58607316D02*
X152619152Y-58416840D01*
X152619152Y-58416840D02*
X152666771Y-58321602D01*
X153285819Y-57845411D02*
X152619152Y-57845411D01*
X152285819Y-57845411D02*
X152333438Y-57893030D01*
X152333438Y-57893030D02*
X152381057Y-57845411D01*
X152381057Y-57845411D02*
X152333438Y-57797792D01*
X152333438Y-57797792D02*
X152285819Y-57845411D01*
X152285819Y-57845411D02*
X152381057Y-57845411D01*
X153285819Y-57369221D02*
X152285819Y-57369221D01*
X152619152Y-56893031D02*
X153285819Y-56893031D01*
X152714390Y-56893031D02*
X152666771Y-56845412D01*
X152666771Y-56845412D02*
X152619152Y-56750174D01*
X152619152Y-56750174D02*
X152619152Y-56607317D01*
X152619152Y-56607317D02*
X152666771Y-56512079D01*
X152666771Y-56512079D02*
X152762009Y-56464460D01*
X152762009Y-56464460D02*
X153285819Y-56464460D01*
X132902438Y-72418411D02*
X132854819Y-72513649D01*
X132854819Y-72513649D02*
X132854819Y-72656506D01*
X132854819Y-72656506D02*
X132902438Y-72799363D01*
X132902438Y-72799363D02*
X132997676Y-72894601D01*
X132997676Y-72894601D02*
X133092914Y-72942220D01*
X133092914Y-72942220D02*
X133283390Y-72989839D01*
X133283390Y-72989839D02*
X133426247Y-72989839D01*
X133426247Y-72989839D02*
X133616723Y-72942220D01*
X133616723Y-72942220D02*
X133711961Y-72894601D01*
X133711961Y-72894601D02*
X133807200Y-72799363D01*
X133807200Y-72799363D02*
X133854819Y-72656506D01*
X133854819Y-72656506D02*
X133854819Y-72561268D01*
X133854819Y-72561268D02*
X133807200Y-72418411D01*
X133807200Y-72418411D02*
X133759580Y-72370792D01*
X133759580Y-72370792D02*
X133426247Y-72370792D01*
X133426247Y-72370792D02*
X133426247Y-72561268D01*
X133854819Y-71942220D02*
X132854819Y-71942220D01*
X132854819Y-71942220D02*
X133854819Y-71370792D01*
X133854819Y-71370792D02*
X132854819Y-71370792D01*
X133854819Y-70894601D02*
X132854819Y-70894601D01*
X132854819Y-70894601D02*
X132854819Y-70656506D01*
X132854819Y-70656506D02*
X132902438Y-70513649D01*
X132902438Y-70513649D02*
X132997676Y-70418411D01*
X132997676Y-70418411D02*
X133092914Y-70370792D01*
X133092914Y-70370792D02*
X133283390Y-70323173D01*
X133283390Y-70323173D02*
X133426247Y-70323173D01*
X133426247Y-70323173D02*
X133616723Y-70370792D01*
X133616723Y-70370792D02*
X133711961Y-70418411D01*
X133711961Y-70418411D02*
X133807200Y-70513649D01*
X133807200Y-70513649D02*
X133854819Y-70656506D01*
X133854819Y-70656506D02*
X133854819Y-70894601D01*
X71520087Y-66344809D02*
X70812980Y-65637702D01*
X70812980Y-65637702D02*
X71082354Y-65368328D01*
X71082354Y-65368328D02*
X71183369Y-65334656D01*
X71183369Y-65334656D02*
X71250713Y-65334656D01*
X71250713Y-65334656D02*
X71351728Y-65368328D01*
X71351728Y-65368328D02*
X71452743Y-65469343D01*
X71452743Y-65469343D02*
X71486415Y-65570358D01*
X71486415Y-65570358D02*
X71486415Y-65637702D01*
X71486415Y-65637702D02*
X71452743Y-65738717D01*
X71452743Y-65738717D02*
X71183369Y-66008091D01*
X72227193Y-65637702D02*
X71755789Y-65166297D01*
X71890476Y-65300984D02*
X71856804Y-65199969D01*
X71856804Y-65199969D02*
X71856804Y-65132626D01*
X71856804Y-65132626D02*
X71890476Y-65031610D01*
X71890476Y-65031610D02*
X71957819Y-64964267D01*
X72900629Y-64896923D02*
X72866957Y-64997938D01*
X72866957Y-64997938D02*
X72732270Y-65132625D01*
X72732270Y-65132625D02*
X72631255Y-65166297D01*
X72631255Y-65166297D02*
X72530239Y-65132625D01*
X72530239Y-65132625D02*
X72260865Y-64863251D01*
X72260865Y-64863251D02*
X72227194Y-64762236D01*
X72227194Y-64762236D02*
X72260865Y-64661221D01*
X72260865Y-64661221D02*
X72395552Y-64526534D01*
X72395552Y-64526534D02*
X72496568Y-64492862D01*
X72496568Y-64492862D02*
X72597583Y-64526534D01*
X72597583Y-64526534D02*
X72664926Y-64593877D01*
X72664926Y-64593877D02*
X72395552Y-64997938D01*
X72597583Y-63987786D02*
X72597583Y-63920442D01*
X72597583Y-63920442D02*
X72631255Y-63819427D01*
X72631255Y-63819427D02*
X72799613Y-63651068D01*
X72799613Y-63651068D02*
X72900629Y-63617397D01*
X72900629Y-63617397D02*
X72967972Y-63617397D01*
X72967972Y-63617397D02*
X73068987Y-63651068D01*
X73068987Y-63651068D02*
X73136331Y-63718412D01*
X73136331Y-63718412D02*
X73203674Y-63853099D01*
X73203674Y-63853099D02*
X73203674Y-64661221D01*
X73203674Y-64661221D02*
X73641407Y-64223488D01*
X118995819Y-60877220D02*
X117995819Y-60877220D01*
X117995819Y-60877220D02*
X118710104Y-60543887D01*
X118710104Y-60543887D02*
X117995819Y-60210554D01*
X117995819Y-60210554D02*
X118995819Y-60210554D01*
X118995819Y-59734363D02*
X118329152Y-59734363D01*
X117995819Y-59734363D02*
X118043438Y-59781982D01*
X118043438Y-59781982D02*
X118091057Y-59734363D01*
X118091057Y-59734363D02*
X118043438Y-59686744D01*
X118043438Y-59686744D02*
X117995819Y-59734363D01*
X117995819Y-59734363D02*
X118091057Y-59734363D01*
X118995819Y-58829602D02*
X117995819Y-58829602D01*
X118948200Y-58829602D02*
X118995819Y-58924840D01*
X118995819Y-58924840D02*
X118995819Y-59115316D01*
X118995819Y-59115316D02*
X118948200Y-59210554D01*
X118948200Y-59210554D02*
X118900580Y-59258173D01*
X118900580Y-59258173D02*
X118805342Y-59305792D01*
X118805342Y-59305792D02*
X118519628Y-59305792D01*
X118519628Y-59305792D02*
X118424390Y-59258173D01*
X118424390Y-59258173D02*
X118376771Y-59210554D01*
X118376771Y-59210554D02*
X118329152Y-59115316D01*
X118329152Y-59115316D02*
X118329152Y-58924840D01*
X118329152Y-58924840D02*
X118376771Y-58829602D01*
X118995819Y-58353411D02*
X118329152Y-58353411D01*
X117995819Y-58353411D02*
X118043438Y-58401030D01*
X118043438Y-58401030D02*
X118091057Y-58353411D01*
X118091057Y-58353411D02*
X118043438Y-58305792D01*
X118043438Y-58305792D02*
X117995819Y-58353411D01*
X117995819Y-58353411D02*
X118091057Y-58353411D01*
X117995819Y-57686745D02*
X117995819Y-57496269D01*
X117995819Y-57496269D02*
X118043438Y-57401031D01*
X118043438Y-57401031D02*
X118138676Y-57305793D01*
X118138676Y-57305793D02*
X118329152Y-57258174D01*
X118329152Y-57258174D02*
X118662485Y-57258174D01*
X118662485Y-57258174D02*
X118852961Y-57305793D01*
X118852961Y-57305793D02*
X118948200Y-57401031D01*
X118948200Y-57401031D02*
X118995819Y-57496269D01*
X118995819Y-57496269D02*
X118995819Y-57686745D01*
X118995819Y-57686745D02*
X118948200Y-57781983D01*
X118948200Y-57781983D02*
X118852961Y-57877221D01*
X118852961Y-57877221D02*
X118662485Y-57924840D01*
X118662485Y-57924840D02*
X118329152Y-57924840D01*
X118329152Y-57924840D02*
X118138676Y-57877221D01*
X118138676Y-57877221D02*
X118043438Y-57781983D01*
X118043438Y-57781983D02*
X117995819Y-57686745D01*
X118329152Y-56401031D02*
X118995819Y-56401031D01*
X118329152Y-56829602D02*
X118852961Y-56829602D01*
X118852961Y-56829602D02*
X118948200Y-56781983D01*
X118948200Y-56781983D02*
X118995819Y-56686745D01*
X118995819Y-56686745D02*
X118995819Y-56543888D01*
X118995819Y-56543888D02*
X118948200Y-56448650D01*
X118948200Y-56448650D02*
X118900580Y-56401031D01*
X118329152Y-56067697D02*
X118329152Y-55686745D01*
X117995819Y-55924840D02*
X118852961Y-55924840D01*
X118852961Y-55924840D02*
X118948200Y-55877221D01*
X118948200Y-55877221D02*
X118995819Y-55781983D01*
X118995819Y-55781983D02*
X118995819Y-55686745D01*
X117995819Y-54401030D02*
X117995819Y-54305792D01*
X117995819Y-54305792D02*
X118043438Y-54210554D01*
X118043438Y-54210554D02*
X118091057Y-54162935D01*
X118091057Y-54162935D02*
X118186295Y-54115316D01*
X118186295Y-54115316D02*
X118376771Y-54067697D01*
X118376771Y-54067697D02*
X118614866Y-54067697D01*
X118614866Y-54067697D02*
X118805342Y-54115316D01*
X118805342Y-54115316D02*
X118900580Y-54162935D01*
X118900580Y-54162935D02*
X118948200Y-54210554D01*
X118948200Y-54210554D02*
X118995819Y-54305792D01*
X118995819Y-54305792D02*
X118995819Y-54401030D01*
X118995819Y-54401030D02*
X118948200Y-54496268D01*
X118948200Y-54496268D02*
X118900580Y-54543887D01*
X118900580Y-54543887D02*
X118805342Y-54591506D01*
X118805342Y-54591506D02*
X118614866Y-54639125D01*
X118614866Y-54639125D02*
X118376771Y-54639125D01*
X118376771Y-54639125D02*
X118186295Y-54591506D01*
X118186295Y-54591506D02*
X118091057Y-54543887D01*
X118091057Y-54543887D02*
X118043438Y-54496268D01*
X118043438Y-54496268D02*
X117995819Y-54401030D01*
X69361087Y-66344809D02*
X68653980Y-65637702D01*
X68653980Y-65637702D02*
X68923354Y-65368328D01*
X68923354Y-65368328D02*
X69024369Y-65334656D01*
X69024369Y-65334656D02*
X69091713Y-65334656D01*
X69091713Y-65334656D02*
X69192728Y-65368328D01*
X69192728Y-65368328D02*
X69293743Y-65469343D01*
X69293743Y-65469343D02*
X69327415Y-65570358D01*
X69327415Y-65570358D02*
X69327415Y-65637702D01*
X69327415Y-65637702D02*
X69293743Y-65738717D01*
X69293743Y-65738717D02*
X69024369Y-66008091D01*
X70068193Y-65637702D02*
X69596789Y-65166297D01*
X69731476Y-65300984D02*
X69697804Y-65199969D01*
X69697804Y-65199969D02*
X69697804Y-65132626D01*
X69697804Y-65132626D02*
X69731476Y-65031610D01*
X69731476Y-65031610D02*
X69798819Y-64964267D01*
X70741629Y-64896923D02*
X70707957Y-64997938D01*
X70707957Y-64997938D02*
X70573270Y-65132625D01*
X70573270Y-65132625D02*
X70472255Y-65166297D01*
X70472255Y-65166297D02*
X70371239Y-65132625D01*
X70371239Y-65132625D02*
X70101865Y-64863251D01*
X70101865Y-64863251D02*
X70068194Y-64762236D01*
X70068194Y-64762236D02*
X70101865Y-64661221D01*
X70101865Y-64661221D02*
X70236552Y-64526534D01*
X70236552Y-64526534D02*
X70337568Y-64492862D01*
X70337568Y-64492862D02*
X70438583Y-64526534D01*
X70438583Y-64526534D02*
X70505926Y-64593877D01*
X70505926Y-64593877D02*
X70236552Y-64997938D01*
X71482407Y-64223488D02*
X71078346Y-64627549D01*
X71280377Y-64425519D02*
X70573270Y-63718412D01*
X70573270Y-63718412D02*
X70606942Y-63886771D01*
X70606942Y-63886771D02*
X70606942Y-64021458D01*
X70606942Y-64021458D02*
X70573270Y-64122473D01*
X96008819Y-61004220D02*
X95008819Y-61004220D01*
X95008819Y-61004220D02*
X95723104Y-60670887D01*
X95723104Y-60670887D02*
X95008819Y-60337554D01*
X95008819Y-60337554D02*
X96008819Y-60337554D01*
X96008819Y-59861363D02*
X95342152Y-59861363D01*
X95008819Y-59861363D02*
X95056438Y-59908982D01*
X95056438Y-59908982D02*
X95104057Y-59861363D01*
X95104057Y-59861363D02*
X95056438Y-59813744D01*
X95056438Y-59813744D02*
X95008819Y-59861363D01*
X95008819Y-59861363D02*
X95104057Y-59861363D01*
X96008819Y-58956602D02*
X95008819Y-58956602D01*
X95961200Y-58956602D02*
X96008819Y-59051840D01*
X96008819Y-59051840D02*
X96008819Y-59242316D01*
X96008819Y-59242316D02*
X95961200Y-59337554D01*
X95961200Y-59337554D02*
X95913580Y-59385173D01*
X95913580Y-59385173D02*
X95818342Y-59432792D01*
X95818342Y-59432792D02*
X95532628Y-59432792D01*
X95532628Y-59432792D02*
X95437390Y-59385173D01*
X95437390Y-59385173D02*
X95389771Y-59337554D01*
X95389771Y-59337554D02*
X95342152Y-59242316D01*
X95342152Y-59242316D02*
X95342152Y-59051840D01*
X95342152Y-59051840D02*
X95389771Y-58956602D01*
X96008819Y-58480411D02*
X95342152Y-58480411D01*
X95008819Y-58480411D02*
X95056438Y-58528030D01*
X95056438Y-58528030D02*
X95104057Y-58480411D01*
X95104057Y-58480411D02*
X95056438Y-58432792D01*
X95056438Y-58432792D02*
X95008819Y-58480411D01*
X95008819Y-58480411D02*
X95104057Y-58480411D01*
X95008819Y-57813745D02*
X95008819Y-57623269D01*
X95008819Y-57623269D02*
X95056438Y-57528031D01*
X95056438Y-57528031D02*
X95151676Y-57432793D01*
X95151676Y-57432793D02*
X95342152Y-57385174D01*
X95342152Y-57385174D02*
X95675485Y-57385174D01*
X95675485Y-57385174D02*
X95865961Y-57432793D01*
X95865961Y-57432793D02*
X95961200Y-57528031D01*
X95961200Y-57528031D02*
X96008819Y-57623269D01*
X96008819Y-57623269D02*
X96008819Y-57813745D01*
X96008819Y-57813745D02*
X95961200Y-57908983D01*
X95961200Y-57908983D02*
X95865961Y-58004221D01*
X95865961Y-58004221D02*
X95675485Y-58051840D01*
X95675485Y-58051840D02*
X95342152Y-58051840D01*
X95342152Y-58051840D02*
X95151676Y-58004221D01*
X95151676Y-58004221D02*
X95056438Y-57908983D01*
X95056438Y-57908983D02*
X95008819Y-57813745D01*
X95342152Y-56528031D02*
X96008819Y-56528031D01*
X95342152Y-56956602D02*
X95865961Y-56956602D01*
X95865961Y-56956602D02*
X95961200Y-56908983D01*
X95961200Y-56908983D02*
X96008819Y-56813745D01*
X96008819Y-56813745D02*
X96008819Y-56670888D01*
X96008819Y-56670888D02*
X95961200Y-56575650D01*
X95961200Y-56575650D02*
X95913580Y-56528031D01*
X95342152Y-56194697D02*
X95342152Y-55813745D01*
X95008819Y-56051840D02*
X95865961Y-56051840D01*
X95865961Y-56051840D02*
X95961200Y-56004221D01*
X95961200Y-56004221D02*
X96008819Y-55908983D01*
X96008819Y-55908983D02*
X96008819Y-55813745D01*
X95104057Y-54766125D02*
X95056438Y-54718506D01*
X95056438Y-54718506D02*
X95008819Y-54623268D01*
X95008819Y-54623268D02*
X95008819Y-54385173D01*
X95008819Y-54385173D02*
X95056438Y-54289935D01*
X95056438Y-54289935D02*
X95104057Y-54242316D01*
X95104057Y-54242316D02*
X95199295Y-54194697D01*
X95199295Y-54194697D02*
X95294533Y-54194697D01*
X95294533Y-54194697D02*
X95437390Y-54242316D01*
X95437390Y-54242316D02*
X96008819Y-54813744D01*
X96008819Y-54813744D02*
X96008819Y-54194697D01*
X67134743Y-66344809D02*
X67269430Y-66277465D01*
X67269430Y-66277465D02*
X67437789Y-66109107D01*
X67437789Y-66109107D02*
X67471461Y-66008091D01*
X67471461Y-66008091D02*
X67471461Y-65940748D01*
X67471461Y-65940748D02*
X67437789Y-65839733D01*
X67437789Y-65839733D02*
X67370445Y-65772389D01*
X67370445Y-65772389D02*
X67269430Y-65738717D01*
X67269430Y-65738717D02*
X67202087Y-65738717D01*
X67202087Y-65738717D02*
X67101071Y-65772389D01*
X67101071Y-65772389D02*
X66932713Y-65873404D01*
X66932713Y-65873404D02*
X66831697Y-65907076D01*
X66831697Y-65907076D02*
X66764354Y-65907076D01*
X66764354Y-65907076D02*
X66663339Y-65873404D01*
X66663339Y-65873404D02*
X66595995Y-65806061D01*
X66595995Y-65806061D02*
X66562323Y-65705046D01*
X66562323Y-65705046D02*
X66562323Y-65637702D01*
X66562323Y-65637702D02*
X66595995Y-65536687D01*
X66595995Y-65536687D02*
X66764354Y-65368328D01*
X66764354Y-65368328D02*
X66899041Y-65300984D01*
X67303102Y-65300984D02*
X67572476Y-65031610D01*
X67168415Y-64964267D02*
X67774506Y-65570358D01*
X67774506Y-65570358D02*
X67875522Y-65604030D01*
X67875522Y-65604030D02*
X67976537Y-65570358D01*
X67976537Y-65570358D02*
X68043880Y-65503015D01*
X68380598Y-65166297D02*
X68279583Y-65199969D01*
X68279583Y-65199969D02*
X68212239Y-65199969D01*
X68212239Y-65199969D02*
X68111224Y-65166297D01*
X68111224Y-65166297D02*
X67909194Y-64964267D01*
X67909194Y-64964267D02*
X67875522Y-64863251D01*
X67875522Y-64863251D02*
X67875522Y-64795908D01*
X67875522Y-64795908D02*
X67909194Y-64694893D01*
X67909194Y-64694893D02*
X68010209Y-64593877D01*
X68010209Y-64593877D02*
X68111224Y-64560206D01*
X68111224Y-64560206D02*
X68178568Y-64560206D01*
X68178568Y-64560206D02*
X68279583Y-64593877D01*
X68279583Y-64593877D02*
X68481613Y-64795908D01*
X68481613Y-64795908D02*
X68515285Y-64896923D01*
X68515285Y-64896923D02*
X68515285Y-64964267D01*
X68515285Y-64964267D02*
X68481613Y-65065282D01*
X68481613Y-65065282D02*
X68380598Y-65166297D01*
X68447942Y-64156145D02*
X69155049Y-64863251D01*
X68481614Y-64189816D02*
X68515285Y-64088801D01*
X68515285Y-64088801D02*
X68649972Y-63954114D01*
X68649972Y-63954114D02*
X68750988Y-63920442D01*
X68750988Y-63920442D02*
X68818331Y-63920442D01*
X68818331Y-63920442D02*
X68919346Y-63954114D01*
X68919346Y-63954114D02*
X69121377Y-64156145D01*
X69121377Y-64156145D02*
X69155049Y-64257160D01*
X69155049Y-64257160D02*
X69155049Y-64324503D01*
X69155049Y-64324503D02*
X69121377Y-64425519D01*
X69121377Y-64425519D02*
X68986690Y-64560206D01*
X68986690Y-64560206D02*
X68885675Y-64593877D01*
X135267819Y-72958077D02*
X136267819Y-72624744D01*
X136267819Y-72624744D02*
X135267819Y-72291411D01*
X136220200Y-71529506D02*
X136267819Y-71624744D01*
X136267819Y-71624744D02*
X136267819Y-71815220D01*
X136267819Y-71815220D02*
X136220200Y-71910458D01*
X136220200Y-71910458D02*
X136172580Y-71958077D01*
X136172580Y-71958077D02*
X136077342Y-72005696D01*
X136077342Y-72005696D02*
X135791628Y-72005696D01*
X135791628Y-72005696D02*
X135696390Y-71958077D01*
X135696390Y-71958077D02*
X135648771Y-71910458D01*
X135648771Y-71910458D02*
X135601152Y-71815220D01*
X135601152Y-71815220D02*
X135601152Y-71624744D01*
X135601152Y-71624744D02*
X135648771Y-71529506D01*
X136220200Y-70672363D02*
X136267819Y-70767601D01*
X136267819Y-70767601D02*
X136267819Y-70958077D01*
X136267819Y-70958077D02*
X136220200Y-71053315D01*
X136220200Y-71053315D02*
X136172580Y-71100934D01*
X136172580Y-71100934D02*
X136077342Y-71148553D01*
X136077342Y-71148553D02*
X135791628Y-71148553D01*
X135791628Y-71148553D02*
X135696390Y-71100934D01*
X135696390Y-71100934D02*
X135648771Y-71053315D01*
X135648771Y-71053315D02*
X135601152Y-70958077D01*
X135601152Y-70958077D02*
X135601152Y-70767601D01*
X135601152Y-70767601D02*
X135648771Y-70672363D01*
X59336779Y-101869819D02*
X59336779Y-100869819D01*
X59812969Y-101203152D02*
X59812969Y-101869819D01*
X59812969Y-101298390D02*
X59860588Y-101250771D01*
X59860588Y-101250771D02*
X59955826Y-101203152D01*
X59955826Y-101203152D02*
X60098683Y-101203152D01*
X60098683Y-101203152D02*
X60193921Y-101250771D01*
X60193921Y-101250771D02*
X60241540Y-101346009D01*
X60241540Y-101346009D02*
X60241540Y-101869819D01*
X62003445Y-101869819D02*
X61432017Y-101869819D01*
X61717731Y-101869819D02*
X61717731Y-100869819D01*
X61717731Y-100869819D02*
X61622493Y-101012676D01*
X61622493Y-101012676D02*
X61527255Y-101107914D01*
X61527255Y-101107914D02*
X61432017Y-101155533D01*
X62908207Y-100869819D02*
X62432017Y-100869819D01*
X62432017Y-100869819D02*
X62384398Y-101346009D01*
X62384398Y-101346009D02*
X62432017Y-101298390D01*
X62432017Y-101298390D02*
X62527255Y-101250771D01*
X62527255Y-101250771D02*
X62765350Y-101250771D01*
X62765350Y-101250771D02*
X62860588Y-101298390D01*
X62860588Y-101298390D02*
X62908207Y-101346009D01*
X62908207Y-101346009D02*
X62955826Y-101441247D01*
X62955826Y-101441247D02*
X62955826Y-101679342D01*
X62955826Y-101679342D02*
X62908207Y-101774580D01*
X62908207Y-101774580D02*
X62860588Y-101822200D01*
X62860588Y-101822200D02*
X62765350Y-101869819D01*
X62765350Y-101869819D02*
X62527255Y-101869819D01*
X62527255Y-101869819D02*
X62432017Y-101822200D01*
X62432017Y-101822200D02*
X62384398Y-101774580D01*
X64670112Y-101869819D02*
X64098684Y-101869819D01*
X64384398Y-101869819D02*
X64384398Y-100869819D01*
X64384398Y-100869819D02*
X64289160Y-101012676D01*
X64289160Y-101012676D02*
X64193922Y-101107914D01*
X64193922Y-101107914D02*
X64098684Y-101155533D01*
X65622493Y-101869819D02*
X65051065Y-101869819D01*
X65336779Y-101869819D02*
X65336779Y-100869819D01*
X65336779Y-100869819D02*
X65241541Y-101012676D01*
X65241541Y-101012676D02*
X65146303Y-101107914D01*
X65146303Y-101107914D02*
X65051065Y-101155533D01*
X67336779Y-101869819D02*
X66765351Y-101869819D01*
X67051065Y-101869819D02*
X67051065Y-100869819D01*
X67051065Y-100869819D02*
X66955827Y-101012676D01*
X66955827Y-101012676D02*
X66860589Y-101107914D01*
X66860589Y-101107914D02*
X66765351Y-101155533D01*
X67955827Y-100869819D02*
X68051065Y-100869819D01*
X68051065Y-100869819D02*
X68146303Y-100917438D01*
X68146303Y-100917438D02*
X68193922Y-100965057D01*
X68193922Y-100965057D02*
X68241541Y-101060295D01*
X68241541Y-101060295D02*
X68289160Y-101250771D01*
X68289160Y-101250771D02*
X68289160Y-101488866D01*
X68289160Y-101488866D02*
X68241541Y-101679342D01*
X68241541Y-101679342D02*
X68193922Y-101774580D01*
X68193922Y-101774580D02*
X68146303Y-101822200D01*
X68146303Y-101822200D02*
X68051065Y-101869819D01*
X68051065Y-101869819D02*
X67955827Y-101869819D01*
X67955827Y-101869819D02*
X67860589Y-101822200D01*
X67860589Y-101822200D02*
X67812970Y-101774580D01*
X67812970Y-101774580D02*
X67765351Y-101679342D01*
X67765351Y-101679342D02*
X67717732Y-101488866D01*
X67717732Y-101488866D02*
X67717732Y-101250771D01*
X67717732Y-101250771D02*
X67765351Y-101060295D01*
X67765351Y-101060295D02*
X67812970Y-100965057D01*
X67812970Y-100965057D02*
X67860589Y-100917438D01*
X67860589Y-100917438D02*
X67955827Y-100869819D01*
X69527256Y-101869819D02*
X69717732Y-101869819D01*
X69717732Y-101869819D02*
X69812970Y-101822200D01*
X69812970Y-101822200D02*
X69860589Y-101774580D01*
X69860589Y-101774580D02*
X69955827Y-101631723D01*
X69955827Y-101631723D02*
X70003446Y-101441247D01*
X70003446Y-101441247D02*
X70003446Y-101060295D01*
X70003446Y-101060295D02*
X69955827Y-100965057D01*
X69955827Y-100965057D02*
X69908208Y-100917438D01*
X69908208Y-100917438D02*
X69812970Y-100869819D01*
X69812970Y-100869819D02*
X69622494Y-100869819D01*
X69622494Y-100869819D02*
X69527256Y-100917438D01*
X69527256Y-100917438D02*
X69479637Y-100965057D01*
X69479637Y-100965057D02*
X69432018Y-101060295D01*
X69432018Y-101060295D02*
X69432018Y-101298390D01*
X69432018Y-101298390D02*
X69479637Y-101393628D01*
X69479637Y-101393628D02*
X69527256Y-101441247D01*
X69527256Y-101441247D02*
X69622494Y-101488866D01*
X69622494Y-101488866D02*
X69812970Y-101488866D01*
X69812970Y-101488866D02*
X69908208Y-101441247D01*
X69908208Y-101441247D02*
X69955827Y-101393628D01*
X69955827Y-101393628D02*
X70003446Y-101298390D01*
X81926400Y-65738717D02*
X81690697Y-65974420D01*
X82061087Y-66344809D02*
X81353980Y-65637702D01*
X81353980Y-65637702D02*
X81690697Y-65300984D01*
X82599835Y-65738717D02*
X82734522Y-65671374D01*
X82734522Y-65671374D02*
X82902880Y-65503015D01*
X82902880Y-65503015D02*
X82936552Y-65402000D01*
X82936552Y-65402000D02*
X82936552Y-65334656D01*
X82936552Y-65334656D02*
X82902880Y-65233641D01*
X82902880Y-65233641D02*
X82835537Y-65166297D01*
X82835537Y-65166297D02*
X82734522Y-65132626D01*
X82734522Y-65132626D02*
X82667178Y-65132626D01*
X82667178Y-65132626D02*
X82566163Y-65166297D01*
X82566163Y-65166297D02*
X82397804Y-65267313D01*
X82397804Y-65267313D02*
X82296789Y-65300984D01*
X82296789Y-65300984D02*
X82229445Y-65300984D01*
X82229445Y-65300984D02*
X82128430Y-65267313D01*
X82128430Y-65267313D02*
X82061087Y-65199969D01*
X82061087Y-65199969D02*
X82027415Y-65098954D01*
X82027415Y-65098954D02*
X82027415Y-65031610D01*
X82027415Y-65031610D02*
X82061087Y-64930595D01*
X82061087Y-64930595D02*
X82229445Y-64762236D01*
X82229445Y-64762236D02*
X82364132Y-64694893D01*
X82566163Y-64425519D02*
X83441628Y-64964267D01*
X83441628Y-64964267D02*
X83071239Y-64324504D01*
X83071239Y-64324504D02*
X83711003Y-64694893D01*
X83711003Y-64694893D02*
X83172254Y-63819427D01*
X83374285Y-63617397D02*
X83812018Y-63179664D01*
X83812018Y-63179664D02*
X83845689Y-63684740D01*
X83845689Y-63684740D02*
X83946705Y-63583725D01*
X83946705Y-63583725D02*
X84047720Y-63550053D01*
X84047720Y-63550053D02*
X84115063Y-63550053D01*
X84115063Y-63550053D02*
X84216079Y-63583725D01*
X84216079Y-63583725D02*
X84384437Y-63752084D01*
X84384437Y-63752084D02*
X84418109Y-63853099D01*
X84418109Y-63853099D02*
X84418109Y-63920443D01*
X84418109Y-63920443D02*
X84384437Y-64021458D01*
X84384437Y-64021458D02*
X84182407Y-64223488D01*
X84182407Y-64223488D02*
X84081392Y-64257160D01*
X84081392Y-64257160D02*
X84014048Y-64257160D01*
X141681200Y-60543839D02*
X141728819Y-60400982D01*
X141728819Y-60400982D02*
X141728819Y-60162887D01*
X141728819Y-60162887D02*
X141681200Y-60067649D01*
X141681200Y-60067649D02*
X141633580Y-60020030D01*
X141633580Y-60020030D02*
X141538342Y-59972411D01*
X141538342Y-59972411D02*
X141443104Y-59972411D01*
X141443104Y-59972411D02*
X141347866Y-60020030D01*
X141347866Y-60020030D02*
X141300247Y-60067649D01*
X141300247Y-60067649D02*
X141252628Y-60162887D01*
X141252628Y-60162887D02*
X141205009Y-60353363D01*
X141205009Y-60353363D02*
X141157390Y-60448601D01*
X141157390Y-60448601D02*
X141109771Y-60496220D01*
X141109771Y-60496220D02*
X141014533Y-60543839D01*
X141014533Y-60543839D02*
X140919295Y-60543839D01*
X140919295Y-60543839D02*
X140824057Y-60496220D01*
X140824057Y-60496220D02*
X140776438Y-60448601D01*
X140776438Y-60448601D02*
X140728819Y-60353363D01*
X140728819Y-60353363D02*
X140728819Y-60115268D01*
X140728819Y-60115268D02*
X140776438Y-59972411D01*
X141062152Y-59639077D02*
X141728819Y-59400982D01*
X141062152Y-59162887D02*
X141728819Y-59400982D01*
X141728819Y-59400982D02*
X141966914Y-59496220D01*
X141966914Y-59496220D02*
X142014533Y-59543839D01*
X142014533Y-59543839D02*
X142062152Y-59639077D01*
X141062152Y-58781934D02*
X141728819Y-58781934D01*
X141157390Y-58781934D02*
X141109771Y-58734315D01*
X141109771Y-58734315D02*
X141062152Y-58639077D01*
X141062152Y-58639077D02*
X141062152Y-58496220D01*
X141062152Y-58496220D02*
X141109771Y-58400982D01*
X141109771Y-58400982D02*
X141205009Y-58353363D01*
X141205009Y-58353363D02*
X141728819Y-58353363D01*
X141681200Y-57448601D02*
X141728819Y-57543839D01*
X141728819Y-57543839D02*
X141728819Y-57734315D01*
X141728819Y-57734315D02*
X141681200Y-57829553D01*
X141681200Y-57829553D02*
X141633580Y-57877172D01*
X141633580Y-57877172D02*
X141538342Y-57924791D01*
X141538342Y-57924791D02*
X141252628Y-57924791D01*
X141252628Y-57924791D02*
X141157390Y-57877172D01*
X141157390Y-57877172D02*
X141109771Y-57829553D01*
X141109771Y-57829553D02*
X141062152Y-57734315D01*
X141062152Y-57734315D02*
X141062152Y-57543839D01*
X141062152Y-57543839D02*
X141109771Y-57448601D01*
X140728819Y-56829553D02*
X140728819Y-56639077D01*
X140728819Y-56639077D02*
X140776438Y-56543839D01*
X140776438Y-56543839D02*
X140871676Y-56448601D01*
X140871676Y-56448601D02*
X141062152Y-56400982D01*
X141062152Y-56400982D02*
X141395485Y-56400982D01*
X141395485Y-56400982D02*
X141585961Y-56448601D01*
X141585961Y-56448601D02*
X141681200Y-56543839D01*
X141681200Y-56543839D02*
X141728819Y-56639077D01*
X141728819Y-56639077D02*
X141728819Y-56829553D01*
X141728819Y-56829553D02*
X141681200Y-56924791D01*
X141681200Y-56924791D02*
X141585961Y-57020029D01*
X141585961Y-57020029D02*
X141395485Y-57067648D01*
X141395485Y-57067648D02*
X141062152Y-57067648D01*
X141062152Y-57067648D02*
X140871676Y-57020029D01*
X140871676Y-57020029D02*
X140776438Y-56924791D01*
X140776438Y-56924791D02*
X140728819Y-56829553D01*
X141062152Y-55543839D02*
X141728819Y-55543839D01*
X141062152Y-55972410D02*
X141585961Y-55972410D01*
X141585961Y-55972410D02*
X141681200Y-55924791D01*
X141681200Y-55924791D02*
X141728819Y-55829553D01*
X141728819Y-55829553D02*
X141728819Y-55686696D01*
X141728819Y-55686696D02*
X141681200Y-55591458D01*
X141681200Y-55591458D02*
X141633580Y-55543839D01*
X141062152Y-55210505D02*
X141062152Y-54829553D01*
X140728819Y-55067648D02*
X141585961Y-55067648D01*
X141585961Y-55067648D02*
X141681200Y-55020029D01*
X141681200Y-55020029D02*
X141728819Y-54924791D01*
X141728819Y-54924791D02*
X141728819Y-54829553D01*
X141728819Y-53210505D02*
X141728819Y-53781933D01*
X141728819Y-53496219D02*
X140728819Y-53496219D01*
X140728819Y-53496219D02*
X140871676Y-53591457D01*
X140871676Y-53591457D02*
X140966914Y-53686695D01*
X140966914Y-53686695D02*
X141014533Y-53781933D01*
X84324819Y-61131220D02*
X83324819Y-61131220D01*
X83324819Y-61131220D02*
X84039104Y-60797887D01*
X84039104Y-60797887D02*
X83324819Y-60464554D01*
X83324819Y-60464554D02*
X84324819Y-60464554D01*
X84324819Y-59988363D02*
X83658152Y-59988363D01*
X83324819Y-59988363D02*
X83372438Y-60035982D01*
X83372438Y-60035982D02*
X83420057Y-59988363D01*
X83420057Y-59988363D02*
X83372438Y-59940744D01*
X83372438Y-59940744D02*
X83324819Y-59988363D01*
X83324819Y-59988363D02*
X83420057Y-59988363D01*
X84324819Y-59083602D02*
X83324819Y-59083602D01*
X84277200Y-59083602D02*
X84324819Y-59178840D01*
X84324819Y-59178840D02*
X84324819Y-59369316D01*
X84324819Y-59369316D02*
X84277200Y-59464554D01*
X84277200Y-59464554D02*
X84229580Y-59512173D01*
X84229580Y-59512173D02*
X84134342Y-59559792D01*
X84134342Y-59559792D02*
X83848628Y-59559792D01*
X83848628Y-59559792D02*
X83753390Y-59512173D01*
X83753390Y-59512173D02*
X83705771Y-59464554D01*
X83705771Y-59464554D02*
X83658152Y-59369316D01*
X83658152Y-59369316D02*
X83658152Y-59178840D01*
X83658152Y-59178840D02*
X83705771Y-59083602D01*
X84324819Y-58607411D02*
X83658152Y-58607411D01*
X83324819Y-58607411D02*
X83372438Y-58655030D01*
X83372438Y-58655030D02*
X83420057Y-58607411D01*
X83420057Y-58607411D02*
X83372438Y-58559792D01*
X83372438Y-58559792D02*
X83324819Y-58607411D01*
X83324819Y-58607411D02*
X83420057Y-58607411D01*
X83324819Y-57940745D02*
X83324819Y-57750269D01*
X83324819Y-57750269D02*
X83372438Y-57655031D01*
X83372438Y-57655031D02*
X83467676Y-57559793D01*
X83467676Y-57559793D02*
X83658152Y-57512174D01*
X83658152Y-57512174D02*
X83991485Y-57512174D01*
X83991485Y-57512174D02*
X84181961Y-57559793D01*
X84181961Y-57559793D02*
X84277200Y-57655031D01*
X84277200Y-57655031D02*
X84324819Y-57750269D01*
X84324819Y-57750269D02*
X84324819Y-57940745D01*
X84324819Y-57940745D02*
X84277200Y-58035983D01*
X84277200Y-58035983D02*
X84181961Y-58131221D01*
X84181961Y-58131221D02*
X83991485Y-58178840D01*
X83991485Y-58178840D02*
X83658152Y-58178840D01*
X83658152Y-58178840D02*
X83467676Y-58131221D01*
X83467676Y-58131221D02*
X83372438Y-58035983D01*
X83372438Y-58035983D02*
X83324819Y-57940745D01*
X83658152Y-56655031D02*
X84324819Y-56655031D01*
X83658152Y-57083602D02*
X84181961Y-57083602D01*
X84181961Y-57083602D02*
X84277200Y-57035983D01*
X84277200Y-57035983D02*
X84324819Y-56940745D01*
X84324819Y-56940745D02*
X84324819Y-56797888D01*
X84324819Y-56797888D02*
X84277200Y-56702650D01*
X84277200Y-56702650D02*
X84229580Y-56655031D01*
X83658152Y-56321697D02*
X83658152Y-55940745D01*
X83324819Y-56178840D02*
X84181961Y-56178840D01*
X84181961Y-56178840D02*
X84277200Y-56131221D01*
X84277200Y-56131221D02*
X84324819Y-56035983D01*
X84324819Y-56035983D02*
X84324819Y-55940745D01*
X83324819Y-54940744D02*
X83324819Y-54321697D01*
X83324819Y-54321697D02*
X83705771Y-54655030D01*
X83705771Y-54655030D02*
X83705771Y-54512173D01*
X83705771Y-54512173D02*
X83753390Y-54416935D01*
X83753390Y-54416935D02*
X83801009Y-54369316D01*
X83801009Y-54369316D02*
X83896247Y-54321697D01*
X83896247Y-54321697D02*
X84134342Y-54321697D01*
X84134342Y-54321697D02*
X84229580Y-54369316D01*
X84229580Y-54369316D02*
X84277200Y-54416935D01*
X84277200Y-54416935D02*
X84324819Y-54512173D01*
X84324819Y-54512173D02*
X84324819Y-54797887D01*
X84324819Y-54797887D02*
X84277200Y-54893125D01*
X84277200Y-54893125D02*
X84229580Y-54940744D01*
X79005400Y-65738717D02*
X78769697Y-65974420D01*
X79140087Y-66344809D02*
X78432980Y-65637702D01*
X78432980Y-65637702D02*
X78769697Y-65300984D01*
X79678835Y-65738717D02*
X79813522Y-65671374D01*
X79813522Y-65671374D02*
X79981880Y-65503015D01*
X79981880Y-65503015D02*
X80015552Y-65402000D01*
X80015552Y-65402000D02*
X80015552Y-65334656D01*
X80015552Y-65334656D02*
X79981880Y-65233641D01*
X79981880Y-65233641D02*
X79914537Y-65166297D01*
X79914537Y-65166297D02*
X79813522Y-65132626D01*
X79813522Y-65132626D02*
X79746178Y-65132626D01*
X79746178Y-65132626D02*
X79645163Y-65166297D01*
X79645163Y-65166297D02*
X79476804Y-65267313D01*
X79476804Y-65267313D02*
X79375789Y-65300984D01*
X79375789Y-65300984D02*
X79308445Y-65300984D01*
X79308445Y-65300984D02*
X79207430Y-65267313D01*
X79207430Y-65267313D02*
X79140087Y-65199969D01*
X79140087Y-65199969D02*
X79106415Y-65098954D01*
X79106415Y-65098954D02*
X79106415Y-65031610D01*
X79106415Y-65031610D02*
X79140087Y-64930595D01*
X79140087Y-64930595D02*
X79308445Y-64762236D01*
X79308445Y-64762236D02*
X79443132Y-64694893D01*
X79645163Y-64425519D02*
X80520628Y-64964267D01*
X80520628Y-64964267D02*
X80150239Y-64324504D01*
X80150239Y-64324504D02*
X80790003Y-64694893D01*
X80790003Y-64694893D02*
X80251254Y-63819427D01*
X80554300Y-63651069D02*
X80554300Y-63583725D01*
X80554300Y-63583725D02*
X80587972Y-63482710D01*
X80587972Y-63482710D02*
X80756331Y-63314351D01*
X80756331Y-63314351D02*
X80857346Y-63280679D01*
X80857346Y-63280679D02*
X80924689Y-63280679D01*
X80924689Y-63280679D02*
X81025705Y-63314351D01*
X81025705Y-63314351D02*
X81093048Y-63381695D01*
X81093048Y-63381695D02*
X81160392Y-63516382D01*
X81160392Y-63516382D02*
X81160392Y-64324504D01*
X81160392Y-64324504D02*
X81598124Y-63886771D01*
X107565819Y-60877220D02*
X106565819Y-60877220D01*
X106565819Y-60877220D02*
X107280104Y-60543887D01*
X107280104Y-60543887D02*
X106565819Y-60210554D01*
X106565819Y-60210554D02*
X107565819Y-60210554D01*
X107565819Y-59734363D02*
X106899152Y-59734363D01*
X106565819Y-59734363D02*
X106613438Y-59781982D01*
X106613438Y-59781982D02*
X106661057Y-59734363D01*
X106661057Y-59734363D02*
X106613438Y-59686744D01*
X106613438Y-59686744D02*
X106565819Y-59734363D01*
X106565819Y-59734363D02*
X106661057Y-59734363D01*
X107565819Y-58829602D02*
X106565819Y-58829602D01*
X107518200Y-58829602D02*
X107565819Y-58924840D01*
X107565819Y-58924840D02*
X107565819Y-59115316D01*
X107565819Y-59115316D02*
X107518200Y-59210554D01*
X107518200Y-59210554D02*
X107470580Y-59258173D01*
X107470580Y-59258173D02*
X107375342Y-59305792D01*
X107375342Y-59305792D02*
X107089628Y-59305792D01*
X107089628Y-59305792D02*
X106994390Y-59258173D01*
X106994390Y-59258173D02*
X106946771Y-59210554D01*
X106946771Y-59210554D02*
X106899152Y-59115316D01*
X106899152Y-59115316D02*
X106899152Y-58924840D01*
X106899152Y-58924840D02*
X106946771Y-58829602D01*
X107565819Y-58353411D02*
X106899152Y-58353411D01*
X106565819Y-58353411D02*
X106613438Y-58401030D01*
X106613438Y-58401030D02*
X106661057Y-58353411D01*
X106661057Y-58353411D02*
X106613438Y-58305792D01*
X106613438Y-58305792D02*
X106565819Y-58353411D01*
X106565819Y-58353411D02*
X106661057Y-58353411D01*
X106565819Y-57686745D02*
X106565819Y-57496269D01*
X106565819Y-57496269D02*
X106613438Y-57401031D01*
X106613438Y-57401031D02*
X106708676Y-57305793D01*
X106708676Y-57305793D02*
X106899152Y-57258174D01*
X106899152Y-57258174D02*
X107232485Y-57258174D01*
X107232485Y-57258174D02*
X107422961Y-57305793D01*
X107422961Y-57305793D02*
X107518200Y-57401031D01*
X107518200Y-57401031D02*
X107565819Y-57496269D01*
X107565819Y-57496269D02*
X107565819Y-57686745D01*
X107565819Y-57686745D02*
X107518200Y-57781983D01*
X107518200Y-57781983D02*
X107422961Y-57877221D01*
X107422961Y-57877221D02*
X107232485Y-57924840D01*
X107232485Y-57924840D02*
X106899152Y-57924840D01*
X106899152Y-57924840D02*
X106708676Y-57877221D01*
X106708676Y-57877221D02*
X106613438Y-57781983D01*
X106613438Y-57781983D02*
X106565819Y-57686745D01*
X106899152Y-56401031D02*
X107565819Y-56401031D01*
X106899152Y-56829602D02*
X107422961Y-56829602D01*
X107422961Y-56829602D02*
X107518200Y-56781983D01*
X107518200Y-56781983D02*
X107565819Y-56686745D01*
X107565819Y-56686745D02*
X107565819Y-56543888D01*
X107565819Y-56543888D02*
X107518200Y-56448650D01*
X107518200Y-56448650D02*
X107470580Y-56401031D01*
X106899152Y-56067697D02*
X106899152Y-55686745D01*
X106565819Y-55924840D02*
X107422961Y-55924840D01*
X107422961Y-55924840D02*
X107518200Y-55877221D01*
X107518200Y-55877221D02*
X107565819Y-55781983D01*
X107565819Y-55781983D02*
X107565819Y-55686745D01*
X107565819Y-54067697D02*
X107565819Y-54639125D01*
X107565819Y-54353411D02*
X106565819Y-54353411D01*
X106565819Y-54353411D02*
X106708676Y-54448649D01*
X106708676Y-54448649D02*
X106803914Y-54543887D01*
X106803914Y-54543887D02*
X106851533Y-54639125D01*
X123552179Y-95577019D02*
X123552179Y-94577019D01*
X124599797Y-95481780D02*
X124552178Y-95529400D01*
X124552178Y-95529400D02*
X124409321Y-95577019D01*
X124409321Y-95577019D02*
X124314083Y-95577019D01*
X124314083Y-95577019D02*
X124171226Y-95529400D01*
X124171226Y-95529400D02*
X124075988Y-95434161D01*
X124075988Y-95434161D02*
X124028369Y-95338923D01*
X124028369Y-95338923D02*
X123980750Y-95148447D01*
X123980750Y-95148447D02*
X123980750Y-95005590D01*
X123980750Y-95005590D02*
X124028369Y-94815114D01*
X124028369Y-94815114D02*
X124075988Y-94719876D01*
X124075988Y-94719876D02*
X124171226Y-94624638D01*
X124171226Y-94624638D02*
X124314083Y-94577019D01*
X124314083Y-94577019D02*
X124409321Y-94577019D01*
X124409321Y-94577019D02*
X124552178Y-94624638D01*
X124552178Y-94624638D02*
X124599797Y-94672257D01*
X124980750Y-95529400D02*
X125123607Y-95577019D01*
X125123607Y-95577019D02*
X125361702Y-95577019D01*
X125361702Y-95577019D02*
X125456940Y-95529400D01*
X125456940Y-95529400D02*
X125504559Y-95481780D01*
X125504559Y-95481780D02*
X125552178Y-95386542D01*
X125552178Y-95386542D02*
X125552178Y-95291304D01*
X125552178Y-95291304D02*
X125504559Y-95196066D01*
X125504559Y-95196066D02*
X125456940Y-95148447D01*
X125456940Y-95148447D02*
X125361702Y-95100828D01*
X125361702Y-95100828D02*
X125171226Y-95053209D01*
X125171226Y-95053209D02*
X125075988Y-95005590D01*
X125075988Y-95005590D02*
X125028369Y-94957971D01*
X125028369Y-94957971D02*
X124980750Y-94862733D01*
X124980750Y-94862733D02*
X124980750Y-94767495D01*
X124980750Y-94767495D02*
X125028369Y-94672257D01*
X125028369Y-94672257D02*
X125075988Y-94624638D01*
X125075988Y-94624638D02*
X125171226Y-94577019D01*
X125171226Y-94577019D02*
X125409321Y-94577019D01*
X125409321Y-94577019D02*
X125552178Y-94624638D01*
X125980750Y-95577019D02*
X125980750Y-94577019D01*
X125980750Y-94577019D02*
X126361702Y-94577019D01*
X126361702Y-94577019D02*
X126456940Y-94624638D01*
X126456940Y-94624638D02*
X126504559Y-94672257D01*
X126504559Y-94672257D02*
X126552178Y-94767495D01*
X126552178Y-94767495D02*
X126552178Y-94910352D01*
X126552178Y-94910352D02*
X126504559Y-95005590D01*
X126504559Y-95005590D02*
X126456940Y-95053209D01*
X126456940Y-95053209D02*
X126361702Y-95100828D01*
X126361702Y-95100828D02*
X125980750Y-95100828D01*
X76052819Y-97004666D02*
X75576628Y-97337999D01*
X76052819Y-97576094D02*
X75052819Y-97576094D01*
X75052819Y-97576094D02*
X75052819Y-97195142D01*
X75052819Y-97195142D02*
X75100438Y-97099904D01*
X75100438Y-97099904D02*
X75148057Y-97052285D01*
X75148057Y-97052285D02*
X75243295Y-97004666D01*
X75243295Y-97004666D02*
X75386152Y-97004666D01*
X75386152Y-97004666D02*
X75481390Y-97052285D01*
X75481390Y-97052285D02*
X75529009Y-97099904D01*
X75529009Y-97099904D02*
X75576628Y-97195142D01*
X75576628Y-97195142D02*
X75576628Y-97576094D01*
X75052819Y-96671332D02*
X75052819Y-96052285D01*
X75052819Y-96052285D02*
X75433771Y-96385618D01*
X75433771Y-96385618D02*
X75433771Y-96242761D01*
X75433771Y-96242761D02*
X75481390Y-96147523D01*
X75481390Y-96147523D02*
X75529009Y-96099904D01*
X75529009Y-96099904D02*
X75624247Y-96052285D01*
X75624247Y-96052285D02*
X75862342Y-96052285D01*
X75862342Y-96052285D02*
X75957580Y-96099904D01*
X75957580Y-96099904D02*
X76005200Y-96147523D01*
X76005200Y-96147523D02*
X76052819Y-96242761D01*
X76052819Y-96242761D02*
X76052819Y-96528475D01*
X76052819Y-96528475D02*
X76005200Y-96623713D01*
X76005200Y-96623713D02*
X75957580Y-96671332D01*
X158433666Y-42174819D02*
X158433666Y-42889104D01*
X158433666Y-42889104D02*
X158386047Y-43031961D01*
X158386047Y-43031961D02*
X158290809Y-43127200D01*
X158290809Y-43127200D02*
X158147952Y-43174819D01*
X158147952Y-43174819D02*
X158052714Y-43174819D01*
X159433666Y-43174819D02*
X158862238Y-43174819D01*
X159147952Y-43174819D02*
X159147952Y-42174819D01*
X159147952Y-42174819D02*
X159052714Y-42317676D01*
X159052714Y-42317676D02*
X158957476Y-42412914D01*
X158957476Y-42412914D02*
X158862238Y-42460533D01*
X110355142Y-64589819D02*
X110021809Y-64113628D01*
X109783714Y-64589819D02*
X109783714Y-63589819D01*
X109783714Y-63589819D02*
X110164666Y-63589819D01*
X110164666Y-63589819D02*
X110259904Y-63637438D01*
X110259904Y-63637438D02*
X110307523Y-63685057D01*
X110307523Y-63685057D02*
X110355142Y-63780295D01*
X110355142Y-63780295D02*
X110355142Y-63923152D01*
X110355142Y-63923152D02*
X110307523Y-64018390D01*
X110307523Y-64018390D02*
X110259904Y-64066009D01*
X110259904Y-64066009D02*
X110164666Y-64113628D01*
X110164666Y-64113628D02*
X109783714Y-64113628D01*
X110736095Y-63685057D02*
X110783714Y-63637438D01*
X110783714Y-63637438D02*
X110878952Y-63589819D01*
X110878952Y-63589819D02*
X111117047Y-63589819D01*
X111117047Y-63589819D02*
X111212285Y-63637438D01*
X111212285Y-63637438D02*
X111259904Y-63685057D01*
X111259904Y-63685057D02*
X111307523Y-63780295D01*
X111307523Y-63780295D02*
X111307523Y-63875533D01*
X111307523Y-63875533D02*
X111259904Y-64018390D01*
X111259904Y-64018390D02*
X110688476Y-64589819D01*
X110688476Y-64589819D02*
X111307523Y-64589819D01*
X111640857Y-63589819D02*
X112259904Y-63589819D01*
X112259904Y-63589819D02*
X111926571Y-63970771D01*
X111926571Y-63970771D02*
X112069428Y-63970771D01*
X112069428Y-63970771D02*
X112164666Y-64018390D01*
X112164666Y-64018390D02*
X112212285Y-64066009D01*
X112212285Y-64066009D02*
X112259904Y-64161247D01*
X112259904Y-64161247D02*
X112259904Y-64399342D01*
X112259904Y-64399342D02*
X112212285Y-64494580D01*
X112212285Y-64494580D02*
X112164666Y-64542200D01*
X112164666Y-64542200D02*
X112069428Y-64589819D01*
X112069428Y-64589819D02*
X111783714Y-64589819D01*
X111783714Y-64589819D02*
X111688476Y-64542200D01*
X111688476Y-64542200D02*
X111640857Y-64494580D01*
X103317142Y-64462819D02*
X102983809Y-63986628D01*
X102745714Y-64462819D02*
X102745714Y-63462819D01*
X102745714Y-63462819D02*
X103126666Y-63462819D01*
X103126666Y-63462819D02*
X103221904Y-63510438D01*
X103221904Y-63510438D02*
X103269523Y-63558057D01*
X103269523Y-63558057D02*
X103317142Y-63653295D01*
X103317142Y-63653295D02*
X103317142Y-63796152D01*
X103317142Y-63796152D02*
X103269523Y-63891390D01*
X103269523Y-63891390D02*
X103221904Y-63939009D01*
X103221904Y-63939009D02*
X103126666Y-63986628D01*
X103126666Y-63986628D02*
X102745714Y-63986628D01*
X103698095Y-63558057D02*
X103745714Y-63510438D01*
X103745714Y-63510438D02*
X103840952Y-63462819D01*
X103840952Y-63462819D02*
X104079047Y-63462819D01*
X104079047Y-63462819D02*
X104174285Y-63510438D01*
X104174285Y-63510438D02*
X104221904Y-63558057D01*
X104221904Y-63558057D02*
X104269523Y-63653295D01*
X104269523Y-63653295D02*
X104269523Y-63748533D01*
X104269523Y-63748533D02*
X104221904Y-63891390D01*
X104221904Y-63891390D02*
X103650476Y-64462819D01*
X103650476Y-64462819D02*
X104269523Y-64462819D01*
X105126666Y-63462819D02*
X104936190Y-63462819D01*
X104936190Y-63462819D02*
X104840952Y-63510438D01*
X104840952Y-63510438D02*
X104793333Y-63558057D01*
X104793333Y-63558057D02*
X104698095Y-63700914D01*
X104698095Y-63700914D02*
X104650476Y-63891390D01*
X104650476Y-63891390D02*
X104650476Y-64272342D01*
X104650476Y-64272342D02*
X104698095Y-64367580D01*
X104698095Y-64367580D02*
X104745714Y-64415200D01*
X104745714Y-64415200D02*
X104840952Y-64462819D01*
X104840952Y-64462819D02*
X105031428Y-64462819D01*
X105031428Y-64462819D02*
X105126666Y-64415200D01*
X105126666Y-64415200D02*
X105174285Y-64367580D01*
X105174285Y-64367580D02*
X105221904Y-64272342D01*
X105221904Y-64272342D02*
X105221904Y-64034247D01*
X105221904Y-64034247D02*
X105174285Y-63939009D01*
X105174285Y-63939009D02*
X105126666Y-63891390D01*
X105126666Y-63891390D02*
X105031428Y-63843771D01*
X105031428Y-63843771D02*
X104840952Y-63843771D01*
X104840952Y-63843771D02*
X104745714Y-63891390D01*
X104745714Y-63891390D02*
X104698095Y-63939009D01*
X104698095Y-63939009D02*
X104650476Y-64034247D01*
X124126666Y-42174819D02*
X124126666Y-42889104D01*
X124126666Y-42889104D02*
X124079047Y-43031961D01*
X124079047Y-43031961D02*
X123983809Y-43127200D01*
X123983809Y-43127200D02*
X123840952Y-43174819D01*
X123840952Y-43174819D02*
X123745714Y-43174819D01*
X125031428Y-42174819D02*
X124840952Y-42174819D01*
X124840952Y-42174819D02*
X124745714Y-42222438D01*
X124745714Y-42222438D02*
X124698095Y-42270057D01*
X124698095Y-42270057D02*
X124602857Y-42412914D01*
X124602857Y-42412914D02*
X124555238Y-42603390D01*
X124555238Y-42603390D02*
X124555238Y-42984342D01*
X124555238Y-42984342D02*
X124602857Y-43079580D01*
X124602857Y-43079580D02*
X124650476Y-43127200D01*
X124650476Y-43127200D02*
X124745714Y-43174819D01*
X124745714Y-43174819D02*
X124936190Y-43174819D01*
X124936190Y-43174819D02*
X125031428Y-43127200D01*
X125031428Y-43127200D02*
X125079047Y-43079580D01*
X125079047Y-43079580D02*
X125126666Y-42984342D01*
X125126666Y-42984342D02*
X125126666Y-42746247D01*
X125126666Y-42746247D02*
X125079047Y-42651009D01*
X125079047Y-42651009D02*
X125031428Y-42603390D01*
X125031428Y-42603390D02*
X124936190Y-42555771D01*
X124936190Y-42555771D02*
X124745714Y-42555771D01*
X124745714Y-42555771D02*
X124650476Y-42603390D01*
X124650476Y-42603390D02*
X124602857Y-42651009D01*
X124602857Y-42651009D02*
X124555238Y-42746247D01*
X102546667Y-80037200D02*
X102689524Y-80084819D01*
X102689524Y-80084819D02*
X102927619Y-80084819D01*
X102927619Y-80084819D02*
X103022857Y-80037200D01*
X103022857Y-80037200D02*
X103070476Y-79989580D01*
X103070476Y-79989580D02*
X103118095Y-79894342D01*
X103118095Y-79894342D02*
X103118095Y-79799104D01*
X103118095Y-79799104D02*
X103070476Y-79703866D01*
X103070476Y-79703866D02*
X103022857Y-79656247D01*
X103022857Y-79656247D02*
X102927619Y-79608628D01*
X102927619Y-79608628D02*
X102737143Y-79561009D01*
X102737143Y-79561009D02*
X102641905Y-79513390D01*
X102641905Y-79513390D02*
X102594286Y-79465771D01*
X102594286Y-79465771D02*
X102546667Y-79370533D01*
X102546667Y-79370533D02*
X102546667Y-79275295D01*
X102546667Y-79275295D02*
X102594286Y-79180057D01*
X102594286Y-79180057D02*
X102641905Y-79132438D01*
X102641905Y-79132438D02*
X102737143Y-79084819D01*
X102737143Y-79084819D02*
X102975238Y-79084819D01*
X102975238Y-79084819D02*
X103118095Y-79132438D01*
X103451429Y-79084819D02*
X103689524Y-80084819D01*
X103689524Y-80084819D02*
X103880000Y-79370533D01*
X103880000Y-79370533D02*
X104070476Y-80084819D01*
X104070476Y-80084819D02*
X104308572Y-79084819D01*
X105213333Y-80084819D02*
X104641905Y-80084819D01*
X104927619Y-80084819D02*
X104927619Y-79084819D01*
X104927619Y-79084819D02*
X104832381Y-79227676D01*
X104832381Y-79227676D02*
X104737143Y-79322914D01*
X104737143Y-79322914D02*
X104641905Y-79370533D01*
X61305619Y-93192066D02*
X60829428Y-93525399D01*
X61305619Y-93763494D02*
X60305619Y-93763494D01*
X60305619Y-93763494D02*
X60305619Y-93382542D01*
X60305619Y-93382542D02*
X60353238Y-93287304D01*
X60353238Y-93287304D02*
X60400857Y-93239685D01*
X60400857Y-93239685D02*
X60496095Y-93192066D01*
X60496095Y-93192066D02*
X60638952Y-93192066D01*
X60638952Y-93192066D02*
X60734190Y-93239685D01*
X60734190Y-93239685D02*
X60781809Y-93287304D01*
X60781809Y-93287304D02*
X60829428Y-93382542D01*
X60829428Y-93382542D02*
X60829428Y-93763494D01*
X61305619Y-92239685D02*
X61305619Y-92811113D01*
X61305619Y-92525399D02*
X60305619Y-92525399D01*
X60305619Y-92525399D02*
X60448476Y-92620637D01*
X60448476Y-92620637D02*
X60543714Y-92715875D01*
X60543714Y-92715875D02*
X60591333Y-92811113D01*
X66588819Y-75445857D02*
X66112628Y-75779190D01*
X66588819Y-76017285D02*
X65588819Y-76017285D01*
X65588819Y-76017285D02*
X65588819Y-75636333D01*
X65588819Y-75636333D02*
X65636438Y-75541095D01*
X65636438Y-75541095D02*
X65684057Y-75493476D01*
X65684057Y-75493476D02*
X65779295Y-75445857D01*
X65779295Y-75445857D02*
X65922152Y-75445857D01*
X65922152Y-75445857D02*
X66017390Y-75493476D01*
X66017390Y-75493476D02*
X66065009Y-75541095D01*
X66065009Y-75541095D02*
X66112628Y-75636333D01*
X66112628Y-75636333D02*
X66112628Y-76017285D01*
X66588819Y-74493476D02*
X66588819Y-75064904D01*
X66588819Y-74779190D02*
X65588819Y-74779190D01*
X65588819Y-74779190D02*
X65731676Y-74874428D01*
X65731676Y-74874428D02*
X65826914Y-74969666D01*
X65826914Y-74969666D02*
X65874533Y-75064904D01*
X65588819Y-73588714D02*
X65588819Y-74064904D01*
X65588819Y-74064904D02*
X66065009Y-74112523D01*
X66065009Y-74112523D02*
X66017390Y-74064904D01*
X66017390Y-74064904D02*
X65969771Y-73969666D01*
X65969771Y-73969666D02*
X65969771Y-73731571D01*
X65969771Y-73731571D02*
X66017390Y-73636333D01*
X66017390Y-73636333D02*
X66065009Y-73588714D01*
X66065009Y-73588714D02*
X66160247Y-73541095D01*
X66160247Y-73541095D02*
X66398342Y-73541095D01*
X66398342Y-73541095D02*
X66493580Y-73588714D01*
X66493580Y-73588714D02*
X66541200Y-73636333D01*
X66541200Y-73636333D02*
X66588819Y-73731571D01*
X66588819Y-73731571D02*
X66588819Y-73969666D01*
X66588819Y-73969666D02*
X66541200Y-74064904D01*
X66541200Y-74064904D02*
X66493580Y-74112523D01*
X71634819Y-98123333D02*
X72349104Y-98123333D01*
X72349104Y-98123333D02*
X72491961Y-98170952D01*
X72491961Y-98170952D02*
X72587200Y-98266190D01*
X72587200Y-98266190D02*
X72634819Y-98409047D01*
X72634819Y-98409047D02*
X72634819Y-98504285D01*
X71968152Y-97218571D02*
X72634819Y-97218571D01*
X71587200Y-97456666D02*
X72301485Y-97694761D01*
X72301485Y-97694761D02*
X72301485Y-97075714D01*
X61587142Y-63065819D02*
X61253809Y-62589628D01*
X61015714Y-63065819D02*
X61015714Y-62065819D01*
X61015714Y-62065819D02*
X61396666Y-62065819D01*
X61396666Y-62065819D02*
X61491904Y-62113438D01*
X61491904Y-62113438D02*
X61539523Y-62161057D01*
X61539523Y-62161057D02*
X61587142Y-62256295D01*
X61587142Y-62256295D02*
X61587142Y-62399152D01*
X61587142Y-62399152D02*
X61539523Y-62494390D01*
X61539523Y-62494390D02*
X61491904Y-62542009D01*
X61491904Y-62542009D02*
X61396666Y-62589628D01*
X61396666Y-62589628D02*
X61015714Y-62589628D01*
X61920476Y-62065819D02*
X62539523Y-62065819D01*
X62539523Y-62065819D02*
X62206190Y-62446771D01*
X62206190Y-62446771D02*
X62349047Y-62446771D01*
X62349047Y-62446771D02*
X62444285Y-62494390D01*
X62444285Y-62494390D02*
X62491904Y-62542009D01*
X62491904Y-62542009D02*
X62539523Y-62637247D01*
X62539523Y-62637247D02*
X62539523Y-62875342D01*
X62539523Y-62875342D02*
X62491904Y-62970580D01*
X62491904Y-62970580D02*
X62444285Y-63018200D01*
X62444285Y-63018200D02*
X62349047Y-63065819D01*
X62349047Y-63065819D02*
X62063333Y-63065819D01*
X62063333Y-63065819D02*
X61968095Y-63018200D01*
X61968095Y-63018200D02*
X61920476Y-62970580D01*
X63491904Y-63065819D02*
X62920476Y-63065819D01*
X63206190Y-63065819D02*
X63206190Y-62065819D01*
X63206190Y-62065819D02*
X63110952Y-62208676D01*
X63110952Y-62208676D02*
X63015714Y-62303914D01*
X63015714Y-62303914D02*
X62920476Y-62351533D01*
X59364819Y-69680333D02*
X60079104Y-69680333D01*
X60079104Y-69680333D02*
X60221961Y-69727952D01*
X60221961Y-69727952D02*
X60317200Y-69823190D01*
X60317200Y-69823190D02*
X60364819Y-69966047D01*
X60364819Y-69966047D02*
X60364819Y-70061285D01*
X59364819Y-69299380D02*
X59364819Y-68680333D01*
X59364819Y-68680333D02*
X59745771Y-69013666D01*
X59745771Y-69013666D02*
X59745771Y-68870809D01*
X59745771Y-68870809D02*
X59793390Y-68775571D01*
X59793390Y-68775571D02*
X59841009Y-68727952D01*
X59841009Y-68727952D02*
X59936247Y-68680333D01*
X59936247Y-68680333D02*
X60174342Y-68680333D01*
X60174342Y-68680333D02*
X60269580Y-68727952D01*
X60269580Y-68727952D02*
X60317200Y-68775571D01*
X60317200Y-68775571D02*
X60364819Y-68870809D01*
X60364819Y-68870809D02*
X60364819Y-69156523D01*
X60364819Y-69156523D02*
X60317200Y-69251761D01*
X60317200Y-69251761D02*
X60269580Y-69299380D01*
X161346142Y-64589819D02*
X161012809Y-64113628D01*
X160774714Y-64589819D02*
X160774714Y-63589819D01*
X160774714Y-63589819D02*
X161155666Y-63589819D01*
X161155666Y-63589819D02*
X161250904Y-63637438D01*
X161250904Y-63637438D02*
X161298523Y-63685057D01*
X161298523Y-63685057D02*
X161346142Y-63780295D01*
X161346142Y-63780295D02*
X161346142Y-63923152D01*
X161346142Y-63923152D02*
X161298523Y-64018390D01*
X161298523Y-64018390D02*
X161250904Y-64066009D01*
X161250904Y-64066009D02*
X161155666Y-64113628D01*
X161155666Y-64113628D02*
X160774714Y-64113628D01*
X162298523Y-64589819D02*
X161727095Y-64589819D01*
X162012809Y-64589819D02*
X162012809Y-63589819D01*
X162012809Y-63589819D02*
X161917571Y-63732676D01*
X161917571Y-63732676D02*
X161822333Y-63827914D01*
X161822333Y-63827914D02*
X161727095Y-63875533D01*
X162917571Y-63589819D02*
X163012809Y-63589819D01*
X163012809Y-63589819D02*
X163108047Y-63637438D01*
X163108047Y-63637438D02*
X163155666Y-63685057D01*
X163155666Y-63685057D02*
X163203285Y-63780295D01*
X163203285Y-63780295D02*
X163250904Y-63970771D01*
X163250904Y-63970771D02*
X163250904Y-64208866D01*
X163250904Y-64208866D02*
X163203285Y-64399342D01*
X163203285Y-64399342D02*
X163155666Y-64494580D01*
X163155666Y-64494580D02*
X163108047Y-64542200D01*
X163108047Y-64542200D02*
X163012809Y-64589819D01*
X163012809Y-64589819D02*
X162917571Y-64589819D01*
X162917571Y-64589819D02*
X162822333Y-64542200D01*
X162822333Y-64542200D02*
X162774714Y-64494580D01*
X162774714Y-64494580D02*
X162727095Y-64399342D01*
X162727095Y-64399342D02*
X162679476Y-64208866D01*
X162679476Y-64208866D02*
X162679476Y-63970771D01*
X162679476Y-63970771D02*
X162727095Y-63780295D01*
X162727095Y-63780295D02*
X162774714Y-63685057D01*
X162774714Y-63685057D02*
X162822333Y-63637438D01*
X162822333Y-63637438D02*
X162917571Y-63589819D01*
X129324819Y-99063333D02*
X130039104Y-99063333D01*
X130039104Y-99063333D02*
X130181961Y-99110952D01*
X130181961Y-99110952D02*
X130277200Y-99206190D01*
X130277200Y-99206190D02*
X130324819Y-99349047D01*
X130324819Y-99349047D02*
X130324819Y-99444285D01*
X129420057Y-98634761D02*
X129372438Y-98587142D01*
X129372438Y-98587142D02*
X129324819Y-98491904D01*
X129324819Y-98491904D02*
X129324819Y-98253809D01*
X129324819Y-98253809D02*
X129372438Y-98158571D01*
X129372438Y-98158571D02*
X129420057Y-98110952D01*
X129420057Y-98110952D02*
X129515295Y-98063333D01*
X129515295Y-98063333D02*
X129610533Y-98063333D01*
X129610533Y-98063333D02*
X129753390Y-98110952D01*
X129753390Y-98110952D02*
X130324819Y-98682380D01*
X130324819Y-98682380D02*
X130324819Y-98063333D01*
X124279819Y-73151904D02*
X125089342Y-73151904D01*
X125089342Y-73151904D02*
X125184580Y-73104285D01*
X125184580Y-73104285D02*
X125232200Y-73056666D01*
X125232200Y-73056666D02*
X125279819Y-72961428D01*
X125279819Y-72961428D02*
X125279819Y-72770952D01*
X125279819Y-72770952D02*
X125232200Y-72675714D01*
X125232200Y-72675714D02*
X125184580Y-72628095D01*
X125184580Y-72628095D02*
X125089342Y-72580476D01*
X125089342Y-72580476D02*
X124279819Y-72580476D01*
X124375057Y-72151904D02*
X124327438Y-72104285D01*
X124327438Y-72104285D02*
X124279819Y-72009047D01*
X124279819Y-72009047D02*
X124279819Y-71770952D01*
X124279819Y-71770952D02*
X124327438Y-71675714D01*
X124327438Y-71675714D02*
X124375057Y-71628095D01*
X124375057Y-71628095D02*
X124470295Y-71580476D01*
X124470295Y-71580476D02*
X124565533Y-71580476D01*
X124565533Y-71580476D02*
X124708390Y-71628095D01*
X124708390Y-71628095D02*
X125279819Y-72199523D01*
X125279819Y-72199523D02*
X125279819Y-71580476D01*
X81574819Y-74779666D02*
X81098628Y-75112999D01*
X81574819Y-75351094D02*
X80574819Y-75351094D01*
X80574819Y-75351094D02*
X80574819Y-74970142D01*
X80574819Y-74970142D02*
X80622438Y-74874904D01*
X80622438Y-74874904D02*
X80670057Y-74827285D01*
X80670057Y-74827285D02*
X80765295Y-74779666D01*
X80765295Y-74779666D02*
X80908152Y-74779666D01*
X80908152Y-74779666D02*
X81003390Y-74827285D01*
X81003390Y-74827285D02*
X81051009Y-74874904D01*
X81051009Y-74874904D02*
X81098628Y-74970142D01*
X81098628Y-74970142D02*
X81098628Y-75351094D01*
X81574819Y-74303475D02*
X81574819Y-74112999D01*
X81574819Y-74112999D02*
X81527200Y-74017761D01*
X81527200Y-74017761D02*
X81479580Y-73970142D01*
X81479580Y-73970142D02*
X81336723Y-73874904D01*
X81336723Y-73874904D02*
X81146247Y-73827285D01*
X81146247Y-73827285D02*
X80765295Y-73827285D01*
X80765295Y-73827285D02*
X80670057Y-73874904D01*
X80670057Y-73874904D02*
X80622438Y-73922523D01*
X80622438Y-73922523D02*
X80574819Y-74017761D01*
X80574819Y-74017761D02*
X80574819Y-74208237D01*
X80574819Y-74208237D02*
X80622438Y-74303475D01*
X80622438Y-74303475D02*
X80670057Y-74351094D01*
X80670057Y-74351094D02*
X80765295Y-74398713D01*
X80765295Y-74398713D02*
X81003390Y-74398713D01*
X81003390Y-74398713D02*
X81098628Y-74351094D01*
X81098628Y-74351094D02*
X81146247Y-74303475D01*
X81146247Y-74303475D02*
X81193866Y-74208237D01*
X81193866Y-74208237D02*
X81193866Y-74017761D01*
X81193866Y-74017761D02*
X81146247Y-73922523D01*
X81146247Y-73922523D02*
X81098628Y-73874904D01*
X81098628Y-73874904D02*
X81003390Y-73827285D01*
X75605819Y-75318857D02*
X75129628Y-75652190D01*
X75605819Y-75890285D02*
X74605819Y-75890285D01*
X74605819Y-75890285D02*
X74605819Y-75509333D01*
X74605819Y-75509333D02*
X74653438Y-75414095D01*
X74653438Y-75414095D02*
X74701057Y-75366476D01*
X74701057Y-75366476D02*
X74796295Y-75318857D01*
X74796295Y-75318857D02*
X74939152Y-75318857D01*
X74939152Y-75318857D02*
X75034390Y-75366476D01*
X75034390Y-75366476D02*
X75082009Y-75414095D01*
X75082009Y-75414095D02*
X75129628Y-75509333D01*
X75129628Y-75509333D02*
X75129628Y-75890285D01*
X75605819Y-74366476D02*
X75605819Y-74937904D01*
X75605819Y-74652190D02*
X74605819Y-74652190D01*
X74605819Y-74652190D02*
X74748676Y-74747428D01*
X74748676Y-74747428D02*
X74843914Y-74842666D01*
X74843914Y-74842666D02*
X74891533Y-74937904D01*
X74701057Y-73985523D02*
X74653438Y-73937904D01*
X74653438Y-73937904D02*
X74605819Y-73842666D01*
X74605819Y-73842666D02*
X74605819Y-73604571D01*
X74605819Y-73604571D02*
X74653438Y-73509333D01*
X74653438Y-73509333D02*
X74701057Y-73461714D01*
X74701057Y-73461714D02*
X74796295Y-73414095D01*
X74796295Y-73414095D02*
X74891533Y-73414095D01*
X74891533Y-73414095D02*
X75034390Y-73461714D01*
X75034390Y-73461714D02*
X75605819Y-74033142D01*
X75605819Y-74033142D02*
X75605819Y-73414095D01*
X162933142Y-74622819D02*
X162599809Y-74146628D01*
X162361714Y-74622819D02*
X162361714Y-73622819D01*
X162361714Y-73622819D02*
X162742666Y-73622819D01*
X162742666Y-73622819D02*
X162837904Y-73670438D01*
X162837904Y-73670438D02*
X162885523Y-73718057D01*
X162885523Y-73718057D02*
X162933142Y-73813295D01*
X162933142Y-73813295D02*
X162933142Y-73956152D01*
X162933142Y-73956152D02*
X162885523Y-74051390D01*
X162885523Y-74051390D02*
X162837904Y-74099009D01*
X162837904Y-74099009D02*
X162742666Y-74146628D01*
X162742666Y-74146628D02*
X162361714Y-74146628D01*
X163885523Y-74622819D02*
X163314095Y-74622819D01*
X163599809Y-74622819D02*
X163599809Y-73622819D01*
X163599809Y-73622819D02*
X163504571Y-73765676D01*
X163504571Y-73765676D02*
X163409333Y-73860914D01*
X163409333Y-73860914D02*
X163314095Y-73908533D01*
X164361714Y-74622819D02*
X164552190Y-74622819D01*
X164552190Y-74622819D02*
X164647428Y-74575200D01*
X164647428Y-74575200D02*
X164695047Y-74527580D01*
X164695047Y-74527580D02*
X164790285Y-74384723D01*
X164790285Y-74384723D02*
X164837904Y-74194247D01*
X164837904Y-74194247D02*
X164837904Y-73813295D01*
X164837904Y-73813295D02*
X164790285Y-73718057D01*
X164790285Y-73718057D02*
X164742666Y-73670438D01*
X164742666Y-73670438D02*
X164647428Y-73622819D01*
X164647428Y-73622819D02*
X164456952Y-73622819D01*
X164456952Y-73622819D02*
X164361714Y-73670438D01*
X164361714Y-73670438D02*
X164314095Y-73718057D01*
X164314095Y-73718057D02*
X164266476Y-73813295D01*
X164266476Y-73813295D02*
X164266476Y-74051390D01*
X164266476Y-74051390D02*
X164314095Y-74146628D01*
X164314095Y-74146628D02*
X164361714Y-74194247D01*
X164361714Y-74194247D02*
X164456952Y-74241866D01*
X164456952Y-74241866D02*
X164647428Y-74241866D01*
X164647428Y-74241866D02*
X164742666Y-74194247D01*
X164742666Y-74194247D02*
X164790285Y-74146628D01*
X164790285Y-74146628D02*
X164837904Y-74051390D01*
X126978580Y-75604666D02*
X127026200Y-75652285D01*
X127026200Y-75652285D02*
X127073819Y-75795142D01*
X127073819Y-75795142D02*
X127073819Y-75890380D01*
X127073819Y-75890380D02*
X127026200Y-76033237D01*
X127026200Y-76033237D02*
X126930961Y-76128475D01*
X126930961Y-76128475D02*
X126835723Y-76176094D01*
X126835723Y-76176094D02*
X126645247Y-76223713D01*
X126645247Y-76223713D02*
X126502390Y-76223713D01*
X126502390Y-76223713D02*
X126311914Y-76176094D01*
X126311914Y-76176094D02*
X126216676Y-76128475D01*
X126216676Y-76128475D02*
X126121438Y-76033237D01*
X126121438Y-76033237D02*
X126073819Y-75890380D01*
X126073819Y-75890380D02*
X126073819Y-75795142D01*
X126073819Y-75795142D02*
X126121438Y-75652285D01*
X126121438Y-75652285D02*
X126169057Y-75604666D01*
X127073819Y-74652285D02*
X127073819Y-75223713D01*
X127073819Y-74937999D02*
X126073819Y-74937999D01*
X126073819Y-74937999D02*
X126216676Y-75033237D01*
X126216676Y-75033237D02*
X126311914Y-75128475D01*
X126311914Y-75128475D02*
X126359533Y-75223713D01*
X146527476Y-42174819D02*
X146527476Y-42889104D01*
X146527476Y-42889104D02*
X146479857Y-43031961D01*
X146479857Y-43031961D02*
X146384619Y-43127200D01*
X146384619Y-43127200D02*
X146241762Y-43174819D01*
X146241762Y-43174819D02*
X146146524Y-43174819D01*
X147527476Y-43174819D02*
X146956048Y-43174819D01*
X147241762Y-43174819D02*
X147241762Y-42174819D01*
X147241762Y-42174819D02*
X147146524Y-42317676D01*
X147146524Y-42317676D02*
X147051286Y-42412914D01*
X147051286Y-42412914D02*
X146956048Y-42460533D01*
X148432238Y-42174819D02*
X147956048Y-42174819D01*
X147956048Y-42174819D02*
X147908429Y-42651009D01*
X147908429Y-42651009D02*
X147956048Y-42603390D01*
X147956048Y-42603390D02*
X148051286Y-42555771D01*
X148051286Y-42555771D02*
X148289381Y-42555771D01*
X148289381Y-42555771D02*
X148384619Y-42603390D01*
X148384619Y-42603390D02*
X148432238Y-42651009D01*
X148432238Y-42651009D02*
X148479857Y-42746247D01*
X148479857Y-42746247D02*
X148479857Y-42984342D01*
X148479857Y-42984342D02*
X148432238Y-43079580D01*
X148432238Y-43079580D02*
X148384619Y-43127200D01*
X148384619Y-43127200D02*
X148289381Y-43174819D01*
X148289381Y-43174819D02*
X148051286Y-43174819D01*
X148051286Y-43174819D02*
X147956048Y-43127200D01*
X147956048Y-43127200D02*
X147908429Y-43079580D01*
X119499142Y-62938819D02*
X119165809Y-62462628D01*
X118927714Y-62938819D02*
X118927714Y-61938819D01*
X118927714Y-61938819D02*
X119308666Y-61938819D01*
X119308666Y-61938819D02*
X119403904Y-61986438D01*
X119403904Y-61986438D02*
X119451523Y-62034057D01*
X119451523Y-62034057D02*
X119499142Y-62129295D01*
X119499142Y-62129295D02*
X119499142Y-62272152D01*
X119499142Y-62272152D02*
X119451523Y-62367390D01*
X119451523Y-62367390D02*
X119403904Y-62415009D01*
X119403904Y-62415009D02*
X119308666Y-62462628D01*
X119308666Y-62462628D02*
X118927714Y-62462628D01*
X119880095Y-62034057D02*
X119927714Y-61986438D01*
X119927714Y-61986438D02*
X120022952Y-61938819D01*
X120022952Y-61938819D02*
X120261047Y-61938819D01*
X120261047Y-61938819D02*
X120356285Y-61986438D01*
X120356285Y-61986438D02*
X120403904Y-62034057D01*
X120403904Y-62034057D02*
X120451523Y-62129295D01*
X120451523Y-62129295D02*
X120451523Y-62224533D01*
X120451523Y-62224533D02*
X120403904Y-62367390D01*
X120403904Y-62367390D02*
X119832476Y-62938819D01*
X119832476Y-62938819D02*
X120451523Y-62938819D01*
X121403904Y-62938819D02*
X120832476Y-62938819D01*
X121118190Y-62938819D02*
X121118190Y-61938819D01*
X121118190Y-61938819D02*
X121022952Y-62081676D01*
X121022952Y-62081676D02*
X120927714Y-62176914D01*
X120927714Y-62176914D02*
X120832476Y-62224533D01*
X64302819Y-93067666D02*
X63826628Y-93400999D01*
X64302819Y-93639094D02*
X63302819Y-93639094D01*
X63302819Y-93639094D02*
X63302819Y-93258142D01*
X63302819Y-93258142D02*
X63350438Y-93162904D01*
X63350438Y-93162904D02*
X63398057Y-93115285D01*
X63398057Y-93115285D02*
X63493295Y-93067666D01*
X63493295Y-93067666D02*
X63636152Y-93067666D01*
X63636152Y-93067666D02*
X63731390Y-93115285D01*
X63731390Y-93115285D02*
X63779009Y-93162904D01*
X63779009Y-93162904D02*
X63826628Y-93258142D01*
X63826628Y-93258142D02*
X63826628Y-93639094D01*
X63302819Y-92162904D02*
X63302819Y-92639094D01*
X63302819Y-92639094D02*
X63779009Y-92686713D01*
X63779009Y-92686713D02*
X63731390Y-92639094D01*
X63731390Y-92639094D02*
X63683771Y-92543856D01*
X63683771Y-92543856D02*
X63683771Y-92305761D01*
X63683771Y-92305761D02*
X63731390Y-92210523D01*
X63731390Y-92210523D02*
X63779009Y-92162904D01*
X63779009Y-92162904D02*
X63874247Y-92115285D01*
X63874247Y-92115285D02*
X64112342Y-92115285D01*
X64112342Y-92115285D02*
X64207580Y-92162904D01*
X64207580Y-92162904D02*
X64255200Y-92210523D01*
X64255200Y-92210523D02*
X64302819Y-92305761D01*
X64302819Y-92305761D02*
X64302819Y-92543856D01*
X64302819Y-92543856D02*
X64255200Y-92639094D01*
X64255200Y-92639094D02*
X64207580Y-92686713D01*
X99560142Y-64462819D02*
X99226809Y-63986628D01*
X98988714Y-64462819D02*
X98988714Y-63462819D01*
X98988714Y-63462819D02*
X99369666Y-63462819D01*
X99369666Y-63462819D02*
X99464904Y-63510438D01*
X99464904Y-63510438D02*
X99512523Y-63558057D01*
X99512523Y-63558057D02*
X99560142Y-63653295D01*
X99560142Y-63653295D02*
X99560142Y-63796152D01*
X99560142Y-63796152D02*
X99512523Y-63891390D01*
X99512523Y-63891390D02*
X99464904Y-63939009D01*
X99464904Y-63939009D02*
X99369666Y-63986628D01*
X99369666Y-63986628D02*
X98988714Y-63986628D01*
X99941095Y-63558057D02*
X99988714Y-63510438D01*
X99988714Y-63510438D02*
X100083952Y-63462819D01*
X100083952Y-63462819D02*
X100322047Y-63462819D01*
X100322047Y-63462819D02*
X100417285Y-63510438D01*
X100417285Y-63510438D02*
X100464904Y-63558057D01*
X100464904Y-63558057D02*
X100512523Y-63653295D01*
X100512523Y-63653295D02*
X100512523Y-63748533D01*
X100512523Y-63748533D02*
X100464904Y-63891390D01*
X100464904Y-63891390D02*
X99893476Y-64462819D01*
X99893476Y-64462819D02*
X100512523Y-64462819D01*
X101417285Y-63462819D02*
X100941095Y-63462819D01*
X100941095Y-63462819D02*
X100893476Y-63939009D01*
X100893476Y-63939009D02*
X100941095Y-63891390D01*
X100941095Y-63891390D02*
X101036333Y-63843771D01*
X101036333Y-63843771D02*
X101274428Y-63843771D01*
X101274428Y-63843771D02*
X101369666Y-63891390D01*
X101369666Y-63891390D02*
X101417285Y-63939009D01*
X101417285Y-63939009D02*
X101464904Y-64034247D01*
X101464904Y-64034247D02*
X101464904Y-64272342D01*
X101464904Y-64272342D02*
X101417285Y-64367580D01*
X101417285Y-64367580D02*
X101369666Y-64415200D01*
X101369666Y-64415200D02*
X101274428Y-64462819D01*
X101274428Y-64462819D02*
X101036333Y-64462819D01*
X101036333Y-64462819D02*
X100941095Y-64415200D01*
X100941095Y-64415200D02*
X100893476Y-64367580D01*
X57985819Y-94241857D02*
X57509628Y-94575190D01*
X57985819Y-94813285D02*
X56985819Y-94813285D01*
X56985819Y-94813285D02*
X56985819Y-94432333D01*
X56985819Y-94432333D02*
X57033438Y-94337095D01*
X57033438Y-94337095D02*
X57081057Y-94289476D01*
X57081057Y-94289476D02*
X57176295Y-94241857D01*
X57176295Y-94241857D02*
X57319152Y-94241857D01*
X57319152Y-94241857D02*
X57414390Y-94289476D01*
X57414390Y-94289476D02*
X57462009Y-94337095D01*
X57462009Y-94337095D02*
X57509628Y-94432333D01*
X57509628Y-94432333D02*
X57509628Y-94813285D01*
X57081057Y-93860904D02*
X57033438Y-93813285D01*
X57033438Y-93813285D02*
X56985819Y-93718047D01*
X56985819Y-93718047D02*
X56985819Y-93479952D01*
X56985819Y-93479952D02*
X57033438Y-93384714D01*
X57033438Y-93384714D02*
X57081057Y-93337095D01*
X57081057Y-93337095D02*
X57176295Y-93289476D01*
X57176295Y-93289476D02*
X57271533Y-93289476D01*
X57271533Y-93289476D02*
X57414390Y-93337095D01*
X57414390Y-93337095D02*
X57985819Y-93908523D01*
X57985819Y-93908523D02*
X57985819Y-93289476D01*
X57414390Y-92718047D02*
X57366771Y-92813285D01*
X57366771Y-92813285D02*
X57319152Y-92860904D01*
X57319152Y-92860904D02*
X57223914Y-92908523D01*
X57223914Y-92908523D02*
X57176295Y-92908523D01*
X57176295Y-92908523D02*
X57081057Y-92860904D01*
X57081057Y-92860904D02*
X57033438Y-92813285D01*
X57033438Y-92813285D02*
X56985819Y-92718047D01*
X56985819Y-92718047D02*
X56985819Y-92527571D01*
X56985819Y-92527571D02*
X57033438Y-92432333D01*
X57033438Y-92432333D02*
X57081057Y-92384714D01*
X57081057Y-92384714D02*
X57176295Y-92337095D01*
X57176295Y-92337095D02*
X57223914Y-92337095D01*
X57223914Y-92337095D02*
X57319152Y-92384714D01*
X57319152Y-92384714D02*
X57366771Y-92432333D01*
X57366771Y-92432333D02*
X57414390Y-92527571D01*
X57414390Y-92527571D02*
X57414390Y-92718047D01*
X57414390Y-92718047D02*
X57462009Y-92813285D01*
X57462009Y-92813285D02*
X57509628Y-92860904D01*
X57509628Y-92860904D02*
X57604866Y-92908523D01*
X57604866Y-92908523D02*
X57795342Y-92908523D01*
X57795342Y-92908523D02*
X57890580Y-92860904D01*
X57890580Y-92860904D02*
X57938200Y-92813285D01*
X57938200Y-92813285D02*
X57985819Y-92718047D01*
X57985819Y-92718047D02*
X57985819Y-92527571D01*
X57985819Y-92527571D02*
X57938200Y-92432333D01*
X57938200Y-92432333D02*
X57890580Y-92384714D01*
X57890580Y-92384714D02*
X57795342Y-92337095D01*
X57795342Y-92337095D02*
X57604866Y-92337095D01*
X57604866Y-92337095D02*
X57509628Y-92384714D01*
X57509628Y-92384714D02*
X57462009Y-92432333D01*
X57462009Y-92432333D02*
X57414390Y-92527571D01*
X88003142Y-64335819D02*
X87669809Y-63859628D01*
X87431714Y-64335819D02*
X87431714Y-63335819D01*
X87431714Y-63335819D02*
X87812666Y-63335819D01*
X87812666Y-63335819D02*
X87907904Y-63383438D01*
X87907904Y-63383438D02*
X87955523Y-63431057D01*
X87955523Y-63431057D02*
X88003142Y-63526295D01*
X88003142Y-63526295D02*
X88003142Y-63669152D01*
X88003142Y-63669152D02*
X87955523Y-63764390D01*
X87955523Y-63764390D02*
X87907904Y-63812009D01*
X87907904Y-63812009D02*
X87812666Y-63859628D01*
X87812666Y-63859628D02*
X87431714Y-63859628D01*
X88384095Y-63431057D02*
X88431714Y-63383438D01*
X88431714Y-63383438D02*
X88526952Y-63335819D01*
X88526952Y-63335819D02*
X88765047Y-63335819D01*
X88765047Y-63335819D02*
X88860285Y-63383438D01*
X88860285Y-63383438D02*
X88907904Y-63431057D01*
X88907904Y-63431057D02*
X88955523Y-63526295D01*
X88955523Y-63526295D02*
X88955523Y-63621533D01*
X88955523Y-63621533D02*
X88907904Y-63764390D01*
X88907904Y-63764390D02*
X88336476Y-64335819D01*
X88336476Y-64335819D02*
X88955523Y-64335819D01*
X89431714Y-64335819D02*
X89622190Y-64335819D01*
X89622190Y-64335819D02*
X89717428Y-64288200D01*
X89717428Y-64288200D02*
X89765047Y-64240580D01*
X89765047Y-64240580D02*
X89860285Y-64097723D01*
X89860285Y-64097723D02*
X89907904Y-63907247D01*
X89907904Y-63907247D02*
X89907904Y-63526295D01*
X89907904Y-63526295D02*
X89860285Y-63431057D01*
X89860285Y-63431057D02*
X89812666Y-63383438D01*
X89812666Y-63383438D02*
X89717428Y-63335819D01*
X89717428Y-63335819D02*
X89526952Y-63335819D01*
X89526952Y-63335819D02*
X89431714Y-63383438D01*
X89431714Y-63383438D02*
X89384095Y-63431057D01*
X89384095Y-63431057D02*
X89336476Y-63526295D01*
X89336476Y-63526295D02*
X89336476Y-63764390D01*
X89336476Y-63764390D02*
X89384095Y-63859628D01*
X89384095Y-63859628D02*
X89431714Y-63907247D01*
X89431714Y-63907247D02*
X89526952Y-63954866D01*
X89526952Y-63954866D02*
X89717428Y-63954866D01*
X89717428Y-63954866D02*
X89812666Y-63907247D01*
X89812666Y-63907247D02*
X89860285Y-63859628D01*
X89860285Y-63859628D02*
X89907904Y-63764390D01*
X63540819Y-75445857D02*
X63064628Y-75779190D01*
X63540819Y-76017285D02*
X62540819Y-76017285D01*
X62540819Y-76017285D02*
X62540819Y-75636333D01*
X62540819Y-75636333D02*
X62588438Y-75541095D01*
X62588438Y-75541095D02*
X62636057Y-75493476D01*
X62636057Y-75493476D02*
X62731295Y-75445857D01*
X62731295Y-75445857D02*
X62874152Y-75445857D01*
X62874152Y-75445857D02*
X62969390Y-75493476D01*
X62969390Y-75493476D02*
X63017009Y-75541095D01*
X63017009Y-75541095D02*
X63064628Y-75636333D01*
X63064628Y-75636333D02*
X63064628Y-76017285D01*
X63540819Y-74493476D02*
X63540819Y-75064904D01*
X63540819Y-74779190D02*
X62540819Y-74779190D01*
X62540819Y-74779190D02*
X62683676Y-74874428D01*
X62683676Y-74874428D02*
X62778914Y-74969666D01*
X62778914Y-74969666D02*
X62826533Y-75064904D01*
X62540819Y-73636333D02*
X62540819Y-73826809D01*
X62540819Y-73826809D02*
X62588438Y-73922047D01*
X62588438Y-73922047D02*
X62636057Y-73969666D01*
X62636057Y-73969666D02*
X62778914Y-74064904D01*
X62778914Y-74064904D02*
X62969390Y-74112523D01*
X62969390Y-74112523D02*
X63350342Y-74112523D01*
X63350342Y-74112523D02*
X63445580Y-74064904D01*
X63445580Y-74064904D02*
X63493200Y-74017285D01*
X63493200Y-74017285D02*
X63540819Y-73922047D01*
X63540819Y-73922047D02*
X63540819Y-73731571D01*
X63540819Y-73731571D02*
X63493200Y-73636333D01*
X63493200Y-73636333D02*
X63445580Y-73588714D01*
X63445580Y-73588714D02*
X63350342Y-73541095D01*
X63350342Y-73541095D02*
X63112247Y-73541095D01*
X63112247Y-73541095D02*
X63017009Y-73588714D01*
X63017009Y-73588714D02*
X62969390Y-73636333D01*
X62969390Y-73636333D02*
X62921771Y-73731571D01*
X62921771Y-73731571D02*
X62921771Y-73922047D01*
X62921771Y-73922047D02*
X62969390Y-74017285D01*
X62969390Y-74017285D02*
X63017009Y-74064904D01*
X63017009Y-74064904D02*
X63112247Y-74112523D01*
X74876819Y-62618857D02*
X74400628Y-62952190D01*
X74876819Y-63190285D02*
X73876819Y-63190285D01*
X73876819Y-63190285D02*
X73876819Y-62809333D01*
X73876819Y-62809333D02*
X73924438Y-62714095D01*
X73924438Y-62714095D02*
X73972057Y-62666476D01*
X73972057Y-62666476D02*
X74067295Y-62618857D01*
X74067295Y-62618857D02*
X74210152Y-62618857D01*
X74210152Y-62618857D02*
X74305390Y-62666476D01*
X74305390Y-62666476D02*
X74353009Y-62714095D01*
X74353009Y-62714095D02*
X74400628Y-62809333D01*
X74400628Y-62809333D02*
X74400628Y-63190285D01*
X73876819Y-62285523D02*
X73876819Y-61666476D01*
X73876819Y-61666476D02*
X74257771Y-61999809D01*
X74257771Y-61999809D02*
X74257771Y-61856952D01*
X74257771Y-61856952D02*
X74305390Y-61761714D01*
X74305390Y-61761714D02*
X74353009Y-61714095D01*
X74353009Y-61714095D02*
X74448247Y-61666476D01*
X74448247Y-61666476D02*
X74686342Y-61666476D01*
X74686342Y-61666476D02*
X74781580Y-61714095D01*
X74781580Y-61714095D02*
X74829200Y-61761714D01*
X74829200Y-61761714D02*
X74876819Y-61856952D01*
X74876819Y-61856952D02*
X74876819Y-62142666D01*
X74876819Y-62142666D02*
X74829200Y-62237904D01*
X74829200Y-62237904D02*
X74781580Y-62285523D01*
X73876819Y-61333142D02*
X73876819Y-60714095D01*
X73876819Y-60714095D02*
X74257771Y-61047428D01*
X74257771Y-61047428D02*
X74257771Y-60904571D01*
X74257771Y-60904571D02*
X74305390Y-60809333D01*
X74305390Y-60809333D02*
X74353009Y-60761714D01*
X74353009Y-60761714D02*
X74448247Y-60714095D01*
X74448247Y-60714095D02*
X74686342Y-60714095D01*
X74686342Y-60714095D02*
X74781580Y-60761714D01*
X74781580Y-60761714D02*
X74829200Y-60809333D01*
X74829200Y-60809333D02*
X74876819Y-60904571D01*
X74876819Y-60904571D02*
X74876819Y-61190285D01*
X74876819Y-61190285D02*
X74829200Y-61285523D01*
X74829200Y-61285523D02*
X74781580Y-61333142D01*
X58079819Y-90939857D02*
X57603628Y-91273190D01*
X58079819Y-91511285D02*
X57079819Y-91511285D01*
X57079819Y-91511285D02*
X57079819Y-91130333D01*
X57079819Y-91130333D02*
X57127438Y-91035095D01*
X57127438Y-91035095D02*
X57175057Y-90987476D01*
X57175057Y-90987476D02*
X57270295Y-90939857D01*
X57270295Y-90939857D02*
X57413152Y-90939857D01*
X57413152Y-90939857D02*
X57508390Y-90987476D01*
X57508390Y-90987476D02*
X57556009Y-91035095D01*
X57556009Y-91035095D02*
X57603628Y-91130333D01*
X57603628Y-91130333D02*
X57603628Y-91511285D01*
X57175057Y-90558904D02*
X57127438Y-90511285D01*
X57127438Y-90511285D02*
X57079819Y-90416047D01*
X57079819Y-90416047D02*
X57079819Y-90177952D01*
X57079819Y-90177952D02*
X57127438Y-90082714D01*
X57127438Y-90082714D02*
X57175057Y-90035095D01*
X57175057Y-90035095D02*
X57270295Y-89987476D01*
X57270295Y-89987476D02*
X57365533Y-89987476D01*
X57365533Y-89987476D02*
X57508390Y-90035095D01*
X57508390Y-90035095D02*
X58079819Y-90606523D01*
X58079819Y-90606523D02*
X58079819Y-89987476D01*
X57079819Y-89654142D02*
X57079819Y-88987476D01*
X57079819Y-88987476D02*
X58079819Y-89416047D01*
X72684819Y-75319857D02*
X72208628Y-75653190D01*
X72684819Y-75891285D02*
X71684819Y-75891285D01*
X71684819Y-75891285D02*
X71684819Y-75510333D01*
X71684819Y-75510333D02*
X71732438Y-75415095D01*
X71732438Y-75415095D02*
X71780057Y-75367476D01*
X71780057Y-75367476D02*
X71875295Y-75319857D01*
X71875295Y-75319857D02*
X72018152Y-75319857D01*
X72018152Y-75319857D02*
X72113390Y-75367476D01*
X72113390Y-75367476D02*
X72161009Y-75415095D01*
X72161009Y-75415095D02*
X72208628Y-75510333D01*
X72208628Y-75510333D02*
X72208628Y-75891285D01*
X72684819Y-74367476D02*
X72684819Y-74938904D01*
X72684819Y-74653190D02*
X71684819Y-74653190D01*
X71684819Y-74653190D02*
X71827676Y-74748428D01*
X71827676Y-74748428D02*
X71922914Y-74843666D01*
X71922914Y-74843666D02*
X71970533Y-74938904D01*
X71684819Y-74034142D02*
X71684819Y-73415095D01*
X71684819Y-73415095D02*
X72065771Y-73748428D01*
X72065771Y-73748428D02*
X72065771Y-73605571D01*
X72065771Y-73605571D02*
X72113390Y-73510333D01*
X72113390Y-73510333D02*
X72161009Y-73462714D01*
X72161009Y-73462714D02*
X72256247Y-73415095D01*
X72256247Y-73415095D02*
X72494342Y-73415095D01*
X72494342Y-73415095D02*
X72589580Y-73462714D01*
X72589580Y-73462714D02*
X72637200Y-73510333D01*
X72637200Y-73510333D02*
X72684819Y-73605571D01*
X72684819Y-73605571D02*
X72684819Y-73891285D01*
X72684819Y-73891285D02*
X72637200Y-73986523D01*
X72637200Y-73986523D02*
X72589580Y-74034142D01*
X82669142Y-62811819D02*
X82335809Y-62335628D01*
X82097714Y-62811819D02*
X82097714Y-61811819D01*
X82097714Y-61811819D02*
X82478666Y-61811819D01*
X82478666Y-61811819D02*
X82573904Y-61859438D01*
X82573904Y-61859438D02*
X82621523Y-61907057D01*
X82621523Y-61907057D02*
X82669142Y-62002295D01*
X82669142Y-62002295D02*
X82669142Y-62145152D01*
X82669142Y-62145152D02*
X82621523Y-62240390D01*
X82621523Y-62240390D02*
X82573904Y-62288009D01*
X82573904Y-62288009D02*
X82478666Y-62335628D01*
X82478666Y-62335628D02*
X82097714Y-62335628D01*
X83002476Y-61811819D02*
X83621523Y-61811819D01*
X83621523Y-61811819D02*
X83288190Y-62192771D01*
X83288190Y-62192771D02*
X83431047Y-62192771D01*
X83431047Y-62192771D02*
X83526285Y-62240390D01*
X83526285Y-62240390D02*
X83573904Y-62288009D01*
X83573904Y-62288009D02*
X83621523Y-62383247D01*
X83621523Y-62383247D02*
X83621523Y-62621342D01*
X83621523Y-62621342D02*
X83573904Y-62716580D01*
X83573904Y-62716580D02*
X83526285Y-62764200D01*
X83526285Y-62764200D02*
X83431047Y-62811819D01*
X83431047Y-62811819D02*
X83145333Y-62811819D01*
X83145333Y-62811819D02*
X83050095Y-62764200D01*
X83050095Y-62764200D02*
X83002476Y-62716580D01*
X84478666Y-62145152D02*
X84478666Y-62811819D01*
X84240571Y-61764200D02*
X84002476Y-62478485D01*
X84002476Y-62478485D02*
X84621523Y-62478485D01*
X60365819Y-75445857D02*
X59889628Y-75779190D01*
X60365819Y-76017285D02*
X59365819Y-76017285D01*
X59365819Y-76017285D02*
X59365819Y-75636333D01*
X59365819Y-75636333D02*
X59413438Y-75541095D01*
X59413438Y-75541095D02*
X59461057Y-75493476D01*
X59461057Y-75493476D02*
X59556295Y-75445857D01*
X59556295Y-75445857D02*
X59699152Y-75445857D01*
X59699152Y-75445857D02*
X59794390Y-75493476D01*
X59794390Y-75493476D02*
X59842009Y-75541095D01*
X59842009Y-75541095D02*
X59889628Y-75636333D01*
X59889628Y-75636333D02*
X59889628Y-76017285D01*
X60365819Y-74493476D02*
X60365819Y-75064904D01*
X60365819Y-74779190D02*
X59365819Y-74779190D01*
X59365819Y-74779190D02*
X59508676Y-74874428D01*
X59508676Y-74874428D02*
X59603914Y-74969666D01*
X59603914Y-74969666D02*
X59651533Y-75064904D01*
X59365819Y-74160142D02*
X59365819Y-73493476D01*
X59365819Y-73493476D02*
X60365819Y-73922047D01*
X82021819Y-91670666D02*
X81545628Y-92003999D01*
X82021819Y-92242094D02*
X81021819Y-92242094D01*
X81021819Y-92242094D02*
X81021819Y-91861142D01*
X81021819Y-91861142D02*
X81069438Y-91765904D01*
X81069438Y-91765904D02*
X81117057Y-91718285D01*
X81117057Y-91718285D02*
X81212295Y-91670666D01*
X81212295Y-91670666D02*
X81355152Y-91670666D01*
X81355152Y-91670666D02*
X81450390Y-91718285D01*
X81450390Y-91718285D02*
X81498009Y-91765904D01*
X81498009Y-91765904D02*
X81545628Y-91861142D01*
X81545628Y-91861142D02*
X81545628Y-92242094D01*
X81450390Y-91099237D02*
X81402771Y-91194475D01*
X81402771Y-91194475D02*
X81355152Y-91242094D01*
X81355152Y-91242094D02*
X81259914Y-91289713D01*
X81259914Y-91289713D02*
X81212295Y-91289713D01*
X81212295Y-91289713D02*
X81117057Y-91242094D01*
X81117057Y-91242094D02*
X81069438Y-91194475D01*
X81069438Y-91194475D02*
X81021819Y-91099237D01*
X81021819Y-91099237D02*
X81021819Y-90908761D01*
X81021819Y-90908761D02*
X81069438Y-90813523D01*
X81069438Y-90813523D02*
X81117057Y-90765904D01*
X81117057Y-90765904D02*
X81212295Y-90718285D01*
X81212295Y-90718285D02*
X81259914Y-90718285D01*
X81259914Y-90718285D02*
X81355152Y-90765904D01*
X81355152Y-90765904D02*
X81402771Y-90813523D01*
X81402771Y-90813523D02*
X81450390Y-90908761D01*
X81450390Y-90908761D02*
X81450390Y-91099237D01*
X81450390Y-91099237D02*
X81498009Y-91194475D01*
X81498009Y-91194475D02*
X81545628Y-91242094D01*
X81545628Y-91242094D02*
X81640866Y-91289713D01*
X81640866Y-91289713D02*
X81831342Y-91289713D01*
X81831342Y-91289713D02*
X81926580Y-91242094D01*
X81926580Y-91242094D02*
X81974200Y-91194475D01*
X81974200Y-91194475D02*
X82021819Y-91099237D01*
X82021819Y-91099237D02*
X82021819Y-90908761D01*
X82021819Y-90908761D02*
X81974200Y-90813523D01*
X81974200Y-90813523D02*
X81926580Y-90765904D01*
X81926580Y-90765904D02*
X81831342Y-90718285D01*
X81831342Y-90718285D02*
X81640866Y-90718285D01*
X81640866Y-90718285D02*
X81545628Y-90765904D01*
X81545628Y-90765904D02*
X81498009Y-90813523D01*
X81498009Y-90813523D02*
X81450390Y-90908761D01*
X91686142Y-64335819D02*
X91352809Y-63859628D01*
X91114714Y-64335819D02*
X91114714Y-63335819D01*
X91114714Y-63335819D02*
X91495666Y-63335819D01*
X91495666Y-63335819D02*
X91590904Y-63383438D01*
X91590904Y-63383438D02*
X91638523Y-63431057D01*
X91638523Y-63431057D02*
X91686142Y-63526295D01*
X91686142Y-63526295D02*
X91686142Y-63669152D01*
X91686142Y-63669152D02*
X91638523Y-63764390D01*
X91638523Y-63764390D02*
X91590904Y-63812009D01*
X91590904Y-63812009D02*
X91495666Y-63859628D01*
X91495666Y-63859628D02*
X91114714Y-63859628D01*
X92019476Y-63335819D02*
X92638523Y-63335819D01*
X92638523Y-63335819D02*
X92305190Y-63716771D01*
X92305190Y-63716771D02*
X92448047Y-63716771D01*
X92448047Y-63716771D02*
X92543285Y-63764390D01*
X92543285Y-63764390D02*
X92590904Y-63812009D01*
X92590904Y-63812009D02*
X92638523Y-63907247D01*
X92638523Y-63907247D02*
X92638523Y-64145342D01*
X92638523Y-64145342D02*
X92590904Y-64240580D01*
X92590904Y-64240580D02*
X92543285Y-64288200D01*
X92543285Y-64288200D02*
X92448047Y-64335819D01*
X92448047Y-64335819D02*
X92162333Y-64335819D01*
X92162333Y-64335819D02*
X92067095Y-64288200D01*
X92067095Y-64288200D02*
X92019476Y-64240580D01*
X93257571Y-63335819D02*
X93352809Y-63335819D01*
X93352809Y-63335819D02*
X93448047Y-63383438D01*
X93448047Y-63383438D02*
X93495666Y-63431057D01*
X93495666Y-63431057D02*
X93543285Y-63526295D01*
X93543285Y-63526295D02*
X93590904Y-63716771D01*
X93590904Y-63716771D02*
X93590904Y-63954866D01*
X93590904Y-63954866D02*
X93543285Y-64145342D01*
X93543285Y-64145342D02*
X93495666Y-64240580D01*
X93495666Y-64240580D02*
X93448047Y-64288200D01*
X93448047Y-64288200D02*
X93352809Y-64335819D01*
X93352809Y-64335819D02*
X93257571Y-64335819D01*
X93257571Y-64335819D02*
X93162333Y-64288200D01*
X93162333Y-64288200D02*
X93114714Y-64240580D01*
X93114714Y-64240580D02*
X93067095Y-64145342D01*
X93067095Y-64145342D02*
X93019476Y-63954866D01*
X93019476Y-63954866D02*
X93019476Y-63716771D01*
X93019476Y-63716771D02*
X93067095Y-63526295D01*
X93067095Y-63526295D02*
X93114714Y-63431057D01*
X93114714Y-63431057D02*
X93162333Y-63383438D01*
X93162333Y-63383438D02*
X93257571Y-63335819D01*
X148463095Y-66891819D02*
X148463095Y-67701342D01*
X148463095Y-67701342D02*
X148510714Y-67796580D01*
X148510714Y-67796580D02*
X148558333Y-67844200D01*
X148558333Y-67844200D02*
X148653571Y-67891819D01*
X148653571Y-67891819D02*
X148844047Y-67891819D01*
X148844047Y-67891819D02*
X148939285Y-67844200D01*
X148939285Y-67844200D02*
X148986904Y-67796580D01*
X148986904Y-67796580D02*
X149034523Y-67701342D01*
X149034523Y-67701342D02*
X149034523Y-66891819D01*
X149415476Y-66891819D02*
X150034523Y-66891819D01*
X150034523Y-66891819D02*
X149701190Y-67272771D01*
X149701190Y-67272771D02*
X149844047Y-67272771D01*
X149844047Y-67272771D02*
X149939285Y-67320390D01*
X149939285Y-67320390D02*
X149986904Y-67368009D01*
X149986904Y-67368009D02*
X150034523Y-67463247D01*
X150034523Y-67463247D02*
X150034523Y-67701342D01*
X150034523Y-67701342D02*
X149986904Y-67796580D01*
X149986904Y-67796580D02*
X149939285Y-67844200D01*
X149939285Y-67844200D02*
X149844047Y-67891819D01*
X149844047Y-67891819D02*
X149558333Y-67891819D01*
X149558333Y-67891819D02*
X149463095Y-67844200D01*
X149463095Y-67844200D02*
X149415476Y-67796580D01*
X79224819Y-83946904D02*
X80034342Y-83946904D01*
X80034342Y-83946904D02*
X80129580Y-83899285D01*
X80129580Y-83899285D02*
X80177200Y-83851666D01*
X80177200Y-83851666D02*
X80224819Y-83756428D01*
X80224819Y-83756428D02*
X80224819Y-83565952D01*
X80224819Y-83565952D02*
X80177200Y-83470714D01*
X80177200Y-83470714D02*
X80129580Y-83423095D01*
X80129580Y-83423095D02*
X80034342Y-83375476D01*
X80034342Y-83375476D02*
X79224819Y-83375476D01*
X80224819Y-82375476D02*
X80224819Y-82946904D01*
X80224819Y-82661190D02*
X79224819Y-82661190D01*
X79224819Y-82661190D02*
X79367676Y-82756428D01*
X79367676Y-82756428D02*
X79462914Y-82851666D01*
X79462914Y-82851666D02*
X79510533Y-82946904D01*
X162933142Y-69669819D02*
X162599809Y-69193628D01*
X162361714Y-69669819D02*
X162361714Y-68669819D01*
X162361714Y-68669819D02*
X162742666Y-68669819D01*
X162742666Y-68669819D02*
X162837904Y-68717438D01*
X162837904Y-68717438D02*
X162885523Y-68765057D01*
X162885523Y-68765057D02*
X162933142Y-68860295D01*
X162933142Y-68860295D02*
X162933142Y-69003152D01*
X162933142Y-69003152D02*
X162885523Y-69098390D01*
X162885523Y-69098390D02*
X162837904Y-69146009D01*
X162837904Y-69146009D02*
X162742666Y-69193628D01*
X162742666Y-69193628D02*
X162361714Y-69193628D01*
X163314095Y-68765057D02*
X163361714Y-68717438D01*
X163361714Y-68717438D02*
X163456952Y-68669819D01*
X163456952Y-68669819D02*
X163695047Y-68669819D01*
X163695047Y-68669819D02*
X163790285Y-68717438D01*
X163790285Y-68717438D02*
X163837904Y-68765057D01*
X163837904Y-68765057D02*
X163885523Y-68860295D01*
X163885523Y-68860295D02*
X163885523Y-68955533D01*
X163885523Y-68955533D02*
X163837904Y-69098390D01*
X163837904Y-69098390D02*
X163266476Y-69669819D01*
X163266476Y-69669819D02*
X163885523Y-69669819D01*
X164504571Y-68669819D02*
X164599809Y-68669819D01*
X164599809Y-68669819D02*
X164695047Y-68717438D01*
X164695047Y-68717438D02*
X164742666Y-68765057D01*
X164742666Y-68765057D02*
X164790285Y-68860295D01*
X164790285Y-68860295D02*
X164837904Y-69050771D01*
X164837904Y-69050771D02*
X164837904Y-69288866D01*
X164837904Y-69288866D02*
X164790285Y-69479342D01*
X164790285Y-69479342D02*
X164742666Y-69574580D01*
X164742666Y-69574580D02*
X164695047Y-69622200D01*
X164695047Y-69622200D02*
X164599809Y-69669819D01*
X164599809Y-69669819D02*
X164504571Y-69669819D01*
X164504571Y-69669819D02*
X164409333Y-69622200D01*
X164409333Y-69622200D02*
X164361714Y-69574580D01*
X164361714Y-69574580D02*
X164314095Y-69479342D01*
X164314095Y-69479342D02*
X164266476Y-69288866D01*
X164266476Y-69288866D02*
X164266476Y-69050771D01*
X164266476Y-69050771D02*
X164314095Y-68860295D01*
X164314095Y-68860295D02*
X164361714Y-68765057D01*
X164361714Y-68765057D02*
X164409333Y-68717438D01*
X164409333Y-68717438D02*
X164504571Y-68669819D01*
X135097476Y-42174819D02*
X135097476Y-42889104D01*
X135097476Y-42889104D02*
X135049857Y-43031961D01*
X135049857Y-43031961D02*
X134954619Y-43127200D01*
X134954619Y-43127200D02*
X134811762Y-43174819D01*
X134811762Y-43174819D02*
X134716524Y-43174819D01*
X136097476Y-43174819D02*
X135526048Y-43174819D01*
X135811762Y-43174819D02*
X135811762Y-42174819D01*
X135811762Y-42174819D02*
X135716524Y-42317676D01*
X135716524Y-42317676D02*
X135621286Y-42412914D01*
X135621286Y-42412914D02*
X135526048Y-42460533D01*
X136954619Y-42508152D02*
X136954619Y-43174819D01*
X136716524Y-42127200D02*
X136478429Y-42841485D01*
X136478429Y-42841485D02*
X137097476Y-42841485D01*
X66500476Y-42204819D02*
X66500476Y-42919104D01*
X66500476Y-42919104D02*
X66452857Y-43061961D01*
X66452857Y-43061961D02*
X66357619Y-43157200D01*
X66357619Y-43157200D02*
X66214762Y-43204819D01*
X66214762Y-43204819D02*
X66119524Y-43204819D01*
X67500476Y-43204819D02*
X66929048Y-43204819D01*
X67214762Y-43204819D02*
X67214762Y-42204819D01*
X67214762Y-42204819D02*
X67119524Y-42347676D01*
X67119524Y-42347676D02*
X67024286Y-42442914D01*
X67024286Y-42442914D02*
X66929048Y-42490533D01*
X67881429Y-42300057D02*
X67929048Y-42252438D01*
X67929048Y-42252438D02*
X68024286Y-42204819D01*
X68024286Y-42204819D02*
X68262381Y-42204819D01*
X68262381Y-42204819D02*
X68357619Y-42252438D01*
X68357619Y-42252438D02*
X68405238Y-42300057D01*
X68405238Y-42300057D02*
X68452857Y-42395295D01*
X68452857Y-42395295D02*
X68452857Y-42490533D01*
X68452857Y-42490533D02*
X68405238Y-42633390D01*
X68405238Y-42633390D02*
X67833810Y-43204819D01*
X67833810Y-43204819D02*
X68452857Y-43204819D01*
X73352819Y-92939666D02*
X72876628Y-93272999D01*
X73352819Y-93511094D02*
X72352819Y-93511094D01*
X72352819Y-93511094D02*
X72352819Y-93130142D01*
X72352819Y-93130142D02*
X72400438Y-93034904D01*
X72400438Y-93034904D02*
X72448057Y-92987285D01*
X72448057Y-92987285D02*
X72543295Y-92939666D01*
X72543295Y-92939666D02*
X72686152Y-92939666D01*
X72686152Y-92939666D02*
X72781390Y-92987285D01*
X72781390Y-92987285D02*
X72829009Y-93034904D01*
X72829009Y-93034904D02*
X72876628Y-93130142D01*
X72876628Y-93130142D02*
X72876628Y-93511094D01*
X72686152Y-92082523D02*
X73352819Y-92082523D01*
X72305200Y-92320618D02*
X73019485Y-92558713D01*
X73019485Y-92558713D02*
X73019485Y-91939666D01*
X128643142Y-62938819D02*
X128309809Y-62462628D01*
X128071714Y-62938819D02*
X128071714Y-61938819D01*
X128071714Y-61938819D02*
X128452666Y-61938819D01*
X128452666Y-61938819D02*
X128547904Y-61986438D01*
X128547904Y-61986438D02*
X128595523Y-62034057D01*
X128595523Y-62034057D02*
X128643142Y-62129295D01*
X128643142Y-62129295D02*
X128643142Y-62272152D01*
X128643142Y-62272152D02*
X128595523Y-62367390D01*
X128595523Y-62367390D02*
X128547904Y-62415009D01*
X128547904Y-62415009D02*
X128452666Y-62462628D01*
X128452666Y-62462628D02*
X128071714Y-62462628D01*
X129024095Y-62034057D02*
X129071714Y-61986438D01*
X129071714Y-61986438D02*
X129166952Y-61938819D01*
X129166952Y-61938819D02*
X129405047Y-61938819D01*
X129405047Y-61938819D02*
X129500285Y-61986438D01*
X129500285Y-61986438D02*
X129547904Y-62034057D01*
X129547904Y-62034057D02*
X129595523Y-62129295D01*
X129595523Y-62129295D02*
X129595523Y-62224533D01*
X129595523Y-62224533D02*
X129547904Y-62367390D01*
X129547904Y-62367390D02*
X128976476Y-62938819D01*
X128976476Y-62938819D02*
X129595523Y-62938819D01*
X129976476Y-62034057D02*
X130024095Y-61986438D01*
X130024095Y-61986438D02*
X130119333Y-61938819D01*
X130119333Y-61938819D02*
X130357428Y-61938819D01*
X130357428Y-61938819D02*
X130452666Y-61986438D01*
X130452666Y-61986438D02*
X130500285Y-62034057D01*
X130500285Y-62034057D02*
X130547904Y-62129295D01*
X130547904Y-62129295D02*
X130547904Y-62224533D01*
X130547904Y-62224533D02*
X130500285Y-62367390D01*
X130500285Y-62367390D02*
X129928857Y-62938819D01*
X129928857Y-62938819D02*
X130547904Y-62938819D01*
X78653819Y-75255857D02*
X78177628Y-75589190D01*
X78653819Y-75827285D02*
X77653819Y-75827285D01*
X77653819Y-75827285D02*
X77653819Y-75446333D01*
X77653819Y-75446333D02*
X77701438Y-75351095D01*
X77701438Y-75351095D02*
X77749057Y-75303476D01*
X77749057Y-75303476D02*
X77844295Y-75255857D01*
X77844295Y-75255857D02*
X77987152Y-75255857D01*
X77987152Y-75255857D02*
X78082390Y-75303476D01*
X78082390Y-75303476D02*
X78130009Y-75351095D01*
X78130009Y-75351095D02*
X78177628Y-75446333D01*
X78177628Y-75446333D02*
X78177628Y-75827285D01*
X78653819Y-74303476D02*
X78653819Y-74874904D01*
X78653819Y-74589190D02*
X77653819Y-74589190D01*
X77653819Y-74589190D02*
X77796676Y-74684428D01*
X77796676Y-74684428D02*
X77891914Y-74779666D01*
X77891914Y-74779666D02*
X77939533Y-74874904D01*
X78653819Y-73351095D02*
X78653819Y-73922523D01*
X78653819Y-73636809D02*
X77653819Y-73636809D01*
X77653819Y-73636809D02*
X77796676Y-73732047D01*
X77796676Y-73732047D02*
X77891914Y-73827285D01*
X77891914Y-73827285D02*
X77939533Y-73922523D01*
X60626666Y-77769819D02*
X60626666Y-78484104D01*
X60626666Y-78484104D02*
X60579047Y-78626961D01*
X60579047Y-78626961D02*
X60483809Y-78722200D01*
X60483809Y-78722200D02*
X60340952Y-78769819D01*
X60340952Y-78769819D02*
X60245714Y-78769819D01*
X61150476Y-78769819D02*
X61340952Y-78769819D01*
X61340952Y-78769819D02*
X61436190Y-78722200D01*
X61436190Y-78722200D02*
X61483809Y-78674580D01*
X61483809Y-78674580D02*
X61579047Y-78531723D01*
X61579047Y-78531723D02*
X61626666Y-78341247D01*
X61626666Y-78341247D02*
X61626666Y-77960295D01*
X61626666Y-77960295D02*
X61579047Y-77865057D01*
X61579047Y-77865057D02*
X61531428Y-77817438D01*
X61531428Y-77817438D02*
X61436190Y-77769819D01*
X61436190Y-77769819D02*
X61245714Y-77769819D01*
X61245714Y-77769819D02*
X61150476Y-77817438D01*
X61150476Y-77817438D02*
X61102857Y-77865057D01*
X61102857Y-77865057D02*
X61055238Y-77960295D01*
X61055238Y-77960295D02*
X61055238Y-78198390D01*
X61055238Y-78198390D02*
X61102857Y-78293628D01*
X61102857Y-78293628D02*
X61150476Y-78341247D01*
X61150476Y-78341247D02*
X61245714Y-78388866D01*
X61245714Y-78388866D02*
X61436190Y-78388866D01*
X61436190Y-78388866D02*
X61531428Y-78341247D01*
X61531428Y-78341247D02*
X61579047Y-78293628D01*
X61579047Y-78293628D02*
X61626666Y-78198390D01*
X138295142Y-62938819D02*
X137961809Y-62462628D01*
X137723714Y-62938819D02*
X137723714Y-61938819D01*
X137723714Y-61938819D02*
X138104666Y-61938819D01*
X138104666Y-61938819D02*
X138199904Y-61986438D01*
X138199904Y-61986438D02*
X138247523Y-62034057D01*
X138247523Y-62034057D02*
X138295142Y-62129295D01*
X138295142Y-62129295D02*
X138295142Y-62272152D01*
X138295142Y-62272152D02*
X138247523Y-62367390D01*
X138247523Y-62367390D02*
X138199904Y-62415009D01*
X138199904Y-62415009D02*
X138104666Y-62462628D01*
X138104666Y-62462628D02*
X137723714Y-62462628D01*
X138628476Y-61938819D02*
X139247523Y-61938819D01*
X139247523Y-61938819D02*
X138914190Y-62319771D01*
X138914190Y-62319771D02*
X139057047Y-62319771D01*
X139057047Y-62319771D02*
X139152285Y-62367390D01*
X139152285Y-62367390D02*
X139199904Y-62415009D01*
X139199904Y-62415009D02*
X139247523Y-62510247D01*
X139247523Y-62510247D02*
X139247523Y-62748342D01*
X139247523Y-62748342D02*
X139199904Y-62843580D01*
X139199904Y-62843580D02*
X139152285Y-62891200D01*
X139152285Y-62891200D02*
X139057047Y-62938819D01*
X139057047Y-62938819D02*
X138771333Y-62938819D01*
X138771333Y-62938819D02*
X138676095Y-62891200D01*
X138676095Y-62891200D02*
X138628476Y-62843580D01*
X140152285Y-61938819D02*
X139676095Y-61938819D01*
X139676095Y-61938819D02*
X139628476Y-62415009D01*
X139628476Y-62415009D02*
X139676095Y-62367390D01*
X139676095Y-62367390D02*
X139771333Y-62319771D01*
X139771333Y-62319771D02*
X140009428Y-62319771D01*
X140009428Y-62319771D02*
X140104666Y-62367390D01*
X140104666Y-62367390D02*
X140152285Y-62415009D01*
X140152285Y-62415009D02*
X140199904Y-62510247D01*
X140199904Y-62510247D02*
X140199904Y-62748342D01*
X140199904Y-62748342D02*
X140152285Y-62843580D01*
X140152285Y-62843580D02*
X140104666Y-62891200D01*
X140104666Y-62891200D02*
X140009428Y-62938819D01*
X140009428Y-62938819D02*
X139771333Y-62938819D01*
X139771333Y-62938819D02*
X139676095Y-62891200D01*
X139676095Y-62891200D02*
X139628476Y-62843580D01*
X117994819Y-91768333D02*
X118709104Y-91768333D01*
X118709104Y-91768333D02*
X118851961Y-91815952D01*
X118851961Y-91815952D02*
X118947200Y-91911190D01*
X118947200Y-91911190D02*
X118994819Y-92054047D01*
X118994819Y-92054047D02*
X118994819Y-92149285D01*
X117994819Y-90815952D02*
X117994819Y-91292142D01*
X117994819Y-91292142D02*
X118471009Y-91339761D01*
X118471009Y-91339761D02*
X118423390Y-91292142D01*
X118423390Y-91292142D02*
X118375771Y-91196904D01*
X118375771Y-91196904D02*
X118375771Y-90958809D01*
X118375771Y-90958809D02*
X118423390Y-90863571D01*
X118423390Y-90863571D02*
X118471009Y-90815952D01*
X118471009Y-90815952D02*
X118566247Y-90768333D01*
X118566247Y-90768333D02*
X118804342Y-90768333D01*
X118804342Y-90768333D02*
X118899580Y-90815952D01*
X118899580Y-90815952D02*
X118947200Y-90863571D01*
X118947200Y-90863571D02*
X118994819Y-90958809D01*
X118994819Y-90958809D02*
X118994819Y-91196904D01*
X118994819Y-91196904D02*
X118947200Y-91292142D01*
X118947200Y-91292142D02*
X118899580Y-91339761D01*
X146514142Y-64589819D02*
X146180809Y-64113628D01*
X145942714Y-64589819D02*
X145942714Y-63589819D01*
X145942714Y-63589819D02*
X146323666Y-63589819D01*
X146323666Y-63589819D02*
X146418904Y-63637438D01*
X146418904Y-63637438D02*
X146466523Y-63685057D01*
X146466523Y-63685057D02*
X146514142Y-63780295D01*
X146514142Y-63780295D02*
X146514142Y-63923152D01*
X146514142Y-63923152D02*
X146466523Y-64018390D01*
X146466523Y-64018390D02*
X146418904Y-64066009D01*
X146418904Y-64066009D02*
X146323666Y-64113628D01*
X146323666Y-64113628D02*
X145942714Y-64113628D01*
X146847476Y-63589819D02*
X147466523Y-63589819D01*
X147466523Y-63589819D02*
X147133190Y-63970771D01*
X147133190Y-63970771D02*
X147276047Y-63970771D01*
X147276047Y-63970771D02*
X147371285Y-64018390D01*
X147371285Y-64018390D02*
X147418904Y-64066009D01*
X147418904Y-64066009D02*
X147466523Y-64161247D01*
X147466523Y-64161247D02*
X147466523Y-64399342D01*
X147466523Y-64399342D02*
X147418904Y-64494580D01*
X147418904Y-64494580D02*
X147371285Y-64542200D01*
X147371285Y-64542200D02*
X147276047Y-64589819D01*
X147276047Y-64589819D02*
X146990333Y-64589819D01*
X146990333Y-64589819D02*
X146895095Y-64542200D01*
X146895095Y-64542200D02*
X146847476Y-64494580D01*
X148323666Y-63589819D02*
X148133190Y-63589819D01*
X148133190Y-63589819D02*
X148037952Y-63637438D01*
X148037952Y-63637438D02*
X147990333Y-63685057D01*
X147990333Y-63685057D02*
X147895095Y-63827914D01*
X147895095Y-63827914D02*
X147847476Y-64018390D01*
X147847476Y-64018390D02*
X147847476Y-64399342D01*
X147847476Y-64399342D02*
X147895095Y-64494580D01*
X147895095Y-64494580D02*
X147942714Y-64542200D01*
X147942714Y-64542200D02*
X148037952Y-64589819D01*
X148037952Y-64589819D02*
X148228428Y-64589819D01*
X148228428Y-64589819D02*
X148323666Y-64542200D01*
X148323666Y-64542200D02*
X148371285Y-64494580D01*
X148371285Y-64494580D02*
X148418904Y-64399342D01*
X148418904Y-64399342D02*
X148418904Y-64161247D01*
X148418904Y-64161247D02*
X148371285Y-64066009D01*
X148371285Y-64066009D02*
X148323666Y-64018390D01*
X148323666Y-64018390D02*
X148228428Y-63970771D01*
X148228428Y-63970771D02*
X148037952Y-63970771D01*
X148037952Y-63970771D02*
X147942714Y-64018390D01*
X147942714Y-64018390D02*
X147895095Y-64066009D01*
X147895095Y-64066009D02*
X147847476Y-64161247D01*
X70304819Y-92939666D02*
X69828628Y-93272999D01*
X70304819Y-93511094D02*
X69304819Y-93511094D01*
X69304819Y-93511094D02*
X69304819Y-93130142D01*
X69304819Y-93130142D02*
X69352438Y-93034904D01*
X69352438Y-93034904D02*
X69400057Y-92987285D01*
X69400057Y-92987285D02*
X69495295Y-92939666D01*
X69495295Y-92939666D02*
X69638152Y-92939666D01*
X69638152Y-92939666D02*
X69733390Y-92987285D01*
X69733390Y-92987285D02*
X69781009Y-93034904D01*
X69781009Y-93034904D02*
X69828628Y-93130142D01*
X69828628Y-93130142D02*
X69828628Y-93511094D01*
X69400057Y-92558713D02*
X69352438Y-92511094D01*
X69352438Y-92511094D02*
X69304819Y-92415856D01*
X69304819Y-92415856D02*
X69304819Y-92177761D01*
X69304819Y-92177761D02*
X69352438Y-92082523D01*
X69352438Y-92082523D02*
X69400057Y-92034904D01*
X69400057Y-92034904D02*
X69495295Y-91987285D01*
X69495295Y-91987285D02*
X69590533Y-91987285D01*
X69590533Y-91987285D02*
X69733390Y-92034904D01*
X69733390Y-92034904D02*
X70304819Y-92606332D01*
X70304819Y-92606332D02*
X70304819Y-91987285D01*
X114165142Y-64589819D02*
X113831809Y-64113628D01*
X113593714Y-64589819D02*
X113593714Y-63589819D01*
X113593714Y-63589819D02*
X113974666Y-63589819D01*
X113974666Y-63589819D02*
X114069904Y-63637438D01*
X114069904Y-63637438D02*
X114117523Y-63685057D01*
X114117523Y-63685057D02*
X114165142Y-63780295D01*
X114165142Y-63780295D02*
X114165142Y-63923152D01*
X114165142Y-63923152D02*
X114117523Y-64018390D01*
X114117523Y-64018390D02*
X114069904Y-64066009D01*
X114069904Y-64066009D02*
X113974666Y-64113628D01*
X113974666Y-64113628D02*
X113593714Y-64113628D01*
X114546095Y-63685057D02*
X114593714Y-63637438D01*
X114593714Y-63637438D02*
X114688952Y-63589819D01*
X114688952Y-63589819D02*
X114927047Y-63589819D01*
X114927047Y-63589819D02*
X115022285Y-63637438D01*
X115022285Y-63637438D02*
X115069904Y-63685057D01*
X115069904Y-63685057D02*
X115117523Y-63780295D01*
X115117523Y-63780295D02*
X115117523Y-63875533D01*
X115117523Y-63875533D02*
X115069904Y-64018390D01*
X115069904Y-64018390D02*
X114498476Y-64589819D01*
X114498476Y-64589819D02*
X115117523Y-64589819D01*
X115974666Y-63923152D02*
X115974666Y-64589819D01*
X115736571Y-63542200D02*
X115498476Y-64256485D01*
X115498476Y-64256485D02*
X116117523Y-64256485D01*
X101266666Y-42174819D02*
X101266666Y-42889104D01*
X101266666Y-42889104D02*
X101219047Y-43031961D01*
X101219047Y-43031961D02*
X101123809Y-43127200D01*
X101123809Y-43127200D02*
X100980952Y-43174819D01*
X100980952Y-43174819D02*
X100885714Y-43174819D01*
X101885714Y-42603390D02*
X101790476Y-42555771D01*
X101790476Y-42555771D02*
X101742857Y-42508152D01*
X101742857Y-42508152D02*
X101695238Y-42412914D01*
X101695238Y-42412914D02*
X101695238Y-42365295D01*
X101695238Y-42365295D02*
X101742857Y-42270057D01*
X101742857Y-42270057D02*
X101790476Y-42222438D01*
X101790476Y-42222438D02*
X101885714Y-42174819D01*
X101885714Y-42174819D02*
X102076190Y-42174819D01*
X102076190Y-42174819D02*
X102171428Y-42222438D01*
X102171428Y-42222438D02*
X102219047Y-42270057D01*
X102219047Y-42270057D02*
X102266666Y-42365295D01*
X102266666Y-42365295D02*
X102266666Y-42412914D01*
X102266666Y-42412914D02*
X102219047Y-42508152D01*
X102219047Y-42508152D02*
X102171428Y-42555771D01*
X102171428Y-42555771D02*
X102076190Y-42603390D01*
X102076190Y-42603390D02*
X101885714Y-42603390D01*
X101885714Y-42603390D02*
X101790476Y-42651009D01*
X101790476Y-42651009D02*
X101742857Y-42698628D01*
X101742857Y-42698628D02*
X101695238Y-42793866D01*
X101695238Y-42793866D02*
X101695238Y-42984342D01*
X101695238Y-42984342D02*
X101742857Y-43079580D01*
X101742857Y-43079580D02*
X101790476Y-43127200D01*
X101790476Y-43127200D02*
X101885714Y-43174819D01*
X101885714Y-43174819D02*
X102076190Y-43174819D01*
X102076190Y-43174819D02*
X102171428Y-43127200D01*
X102171428Y-43127200D02*
X102219047Y-43079580D01*
X102219047Y-43079580D02*
X102266666Y-42984342D01*
X102266666Y-42984342D02*
X102266666Y-42793866D01*
X102266666Y-42793866D02*
X102219047Y-42698628D01*
X102219047Y-42698628D02*
X102171428Y-42651009D01*
X102171428Y-42651009D02*
X102076190Y-42603390D01*
X67350819Y-93003666D02*
X66874628Y-93336999D01*
X67350819Y-93575094D02*
X66350819Y-93575094D01*
X66350819Y-93575094D02*
X66350819Y-93194142D01*
X66350819Y-93194142D02*
X66398438Y-93098904D01*
X66398438Y-93098904D02*
X66446057Y-93051285D01*
X66446057Y-93051285D02*
X66541295Y-93003666D01*
X66541295Y-93003666D02*
X66684152Y-93003666D01*
X66684152Y-93003666D02*
X66779390Y-93051285D01*
X66779390Y-93051285D02*
X66827009Y-93098904D01*
X66827009Y-93098904D02*
X66874628Y-93194142D01*
X66874628Y-93194142D02*
X66874628Y-93575094D01*
X66350819Y-92146523D02*
X66350819Y-92336999D01*
X66350819Y-92336999D02*
X66398438Y-92432237D01*
X66398438Y-92432237D02*
X66446057Y-92479856D01*
X66446057Y-92479856D02*
X66588914Y-92575094D01*
X66588914Y-92575094D02*
X66779390Y-92622713D01*
X66779390Y-92622713D02*
X67160342Y-92622713D01*
X67160342Y-92622713D02*
X67255580Y-92575094D01*
X67255580Y-92575094D02*
X67303200Y-92527475D01*
X67303200Y-92527475D02*
X67350819Y-92432237D01*
X67350819Y-92432237D02*
X67350819Y-92241761D01*
X67350819Y-92241761D02*
X67303200Y-92146523D01*
X67303200Y-92146523D02*
X67255580Y-92098904D01*
X67255580Y-92098904D02*
X67160342Y-92051285D01*
X67160342Y-92051285D02*
X66922247Y-92051285D01*
X66922247Y-92051285D02*
X66827009Y-92098904D01*
X66827009Y-92098904D02*
X66779390Y-92146523D01*
X66779390Y-92146523D02*
X66731771Y-92241761D01*
X66731771Y-92241761D02*
X66731771Y-92432237D01*
X66731771Y-92432237D02*
X66779390Y-92527475D01*
X66779390Y-92527475D02*
X66827009Y-92575094D01*
X66827009Y-92575094D02*
X66922247Y-92622713D01*
X82147580Y-85891666D02*
X82195200Y-85939285D01*
X82195200Y-85939285D02*
X82242819Y-86082142D01*
X82242819Y-86082142D02*
X82242819Y-86177380D01*
X82242819Y-86177380D02*
X82195200Y-86320237D01*
X82195200Y-86320237D02*
X82099961Y-86415475D01*
X82099961Y-86415475D02*
X82004723Y-86463094D01*
X82004723Y-86463094D02*
X81814247Y-86510713D01*
X81814247Y-86510713D02*
X81671390Y-86510713D01*
X81671390Y-86510713D02*
X81480914Y-86463094D01*
X81480914Y-86463094D02*
X81385676Y-86415475D01*
X81385676Y-86415475D02*
X81290438Y-86320237D01*
X81290438Y-86320237D02*
X81242819Y-86177380D01*
X81242819Y-86177380D02*
X81242819Y-86082142D01*
X81242819Y-86082142D02*
X81290438Y-85939285D01*
X81290438Y-85939285D02*
X81338057Y-85891666D01*
X81338057Y-85510713D02*
X81290438Y-85463094D01*
X81290438Y-85463094D02*
X81242819Y-85367856D01*
X81242819Y-85367856D02*
X81242819Y-85129761D01*
X81242819Y-85129761D02*
X81290438Y-85034523D01*
X81290438Y-85034523D02*
X81338057Y-84986904D01*
X81338057Y-84986904D02*
X81433295Y-84939285D01*
X81433295Y-84939285D02*
X81528533Y-84939285D01*
X81528533Y-84939285D02*
X81671390Y-84986904D01*
X81671390Y-84986904D02*
X82242819Y-85558332D01*
X82242819Y-85558332D02*
X82242819Y-84939285D01*
X112696666Y-42174819D02*
X112696666Y-42889104D01*
X112696666Y-42889104D02*
X112649047Y-43031961D01*
X112649047Y-43031961D02*
X112553809Y-43127200D01*
X112553809Y-43127200D02*
X112410952Y-43174819D01*
X112410952Y-43174819D02*
X112315714Y-43174819D01*
X113077619Y-42174819D02*
X113744285Y-42174819D01*
X113744285Y-42174819D02*
X113315714Y-43174819D01*
X69636819Y-75446857D02*
X69160628Y-75780190D01*
X69636819Y-76018285D02*
X68636819Y-76018285D01*
X68636819Y-76018285D02*
X68636819Y-75637333D01*
X68636819Y-75637333D02*
X68684438Y-75542095D01*
X68684438Y-75542095D02*
X68732057Y-75494476D01*
X68732057Y-75494476D02*
X68827295Y-75446857D01*
X68827295Y-75446857D02*
X68970152Y-75446857D01*
X68970152Y-75446857D02*
X69065390Y-75494476D01*
X69065390Y-75494476D02*
X69113009Y-75542095D01*
X69113009Y-75542095D02*
X69160628Y-75637333D01*
X69160628Y-75637333D02*
X69160628Y-76018285D01*
X69636819Y-74494476D02*
X69636819Y-75065904D01*
X69636819Y-74780190D02*
X68636819Y-74780190D01*
X68636819Y-74780190D02*
X68779676Y-74875428D01*
X68779676Y-74875428D02*
X68874914Y-74970666D01*
X68874914Y-74970666D02*
X68922533Y-75065904D01*
X68970152Y-73637333D02*
X69636819Y-73637333D01*
X68589200Y-73875428D02*
X69303485Y-74113523D01*
X69303485Y-74113523D02*
X69303485Y-73494476D01*
X89360476Y-42204819D02*
X89360476Y-42919104D01*
X89360476Y-42919104D02*
X89312857Y-43061961D01*
X89312857Y-43061961D02*
X89217619Y-43157200D01*
X89217619Y-43157200D02*
X89074762Y-43204819D01*
X89074762Y-43204819D02*
X88979524Y-43204819D01*
X90360476Y-43204819D02*
X89789048Y-43204819D01*
X90074762Y-43204819D02*
X90074762Y-42204819D01*
X90074762Y-42204819D02*
X89979524Y-42347676D01*
X89979524Y-42347676D02*
X89884286Y-42442914D01*
X89884286Y-42442914D02*
X89789048Y-42490533D01*
X91312857Y-43204819D02*
X90741429Y-43204819D01*
X91027143Y-43204819D02*
X91027143Y-42204819D01*
X91027143Y-42204819D02*
X90931905Y-42347676D01*
X90931905Y-42347676D02*
X90836667Y-42442914D01*
X90836667Y-42442914D02*
X90741429Y-42490533D01*
X156741905Y-65351819D02*
X156741905Y-64351819D01*
X156741905Y-64351819D02*
X156980000Y-64351819D01*
X156980000Y-64351819D02*
X157122857Y-64399438D01*
X157122857Y-64399438D02*
X157218095Y-64494676D01*
X157218095Y-64494676D02*
X157265714Y-64589914D01*
X157265714Y-64589914D02*
X157313333Y-64780390D01*
X157313333Y-64780390D02*
X157313333Y-64923247D01*
X157313333Y-64923247D02*
X157265714Y-65113723D01*
X157265714Y-65113723D02*
X157218095Y-65208961D01*
X157218095Y-65208961D02*
X157122857Y-65304200D01*
X157122857Y-65304200D02*
X156980000Y-65351819D01*
X156980000Y-65351819D02*
X156741905Y-65351819D01*
X158265714Y-65351819D02*
X157694286Y-65351819D01*
X157980000Y-65351819D02*
X157980000Y-64351819D01*
X157980000Y-64351819D02*
X157884762Y-64494676D01*
X157884762Y-64494676D02*
X157789524Y-64589914D01*
X157789524Y-64589914D02*
X157694286Y-64637533D01*
X79100819Y-91670666D02*
X78624628Y-92003999D01*
X79100819Y-92242094D02*
X78100819Y-92242094D01*
X78100819Y-92242094D02*
X78100819Y-91861142D01*
X78100819Y-91861142D02*
X78148438Y-91765904D01*
X78148438Y-91765904D02*
X78196057Y-91718285D01*
X78196057Y-91718285D02*
X78291295Y-91670666D01*
X78291295Y-91670666D02*
X78434152Y-91670666D01*
X78434152Y-91670666D02*
X78529390Y-91718285D01*
X78529390Y-91718285D02*
X78577009Y-91765904D01*
X78577009Y-91765904D02*
X78624628Y-91861142D01*
X78624628Y-91861142D02*
X78624628Y-92242094D01*
X78100819Y-91337332D02*
X78100819Y-90670666D01*
X78100819Y-90670666D02*
X79100819Y-91099237D01*
X71239142Y-63065819D02*
X70905809Y-62589628D01*
X70667714Y-63065819D02*
X70667714Y-62065819D01*
X70667714Y-62065819D02*
X71048666Y-62065819D01*
X71048666Y-62065819D02*
X71143904Y-62113438D01*
X71143904Y-62113438D02*
X71191523Y-62161057D01*
X71191523Y-62161057D02*
X71239142Y-62256295D01*
X71239142Y-62256295D02*
X71239142Y-62399152D01*
X71239142Y-62399152D02*
X71191523Y-62494390D01*
X71191523Y-62494390D02*
X71143904Y-62542009D01*
X71143904Y-62542009D02*
X71048666Y-62589628D01*
X71048666Y-62589628D02*
X70667714Y-62589628D01*
X71572476Y-62065819D02*
X72191523Y-62065819D01*
X72191523Y-62065819D02*
X71858190Y-62446771D01*
X71858190Y-62446771D02*
X72001047Y-62446771D01*
X72001047Y-62446771D02*
X72096285Y-62494390D01*
X72096285Y-62494390D02*
X72143904Y-62542009D01*
X72143904Y-62542009D02*
X72191523Y-62637247D01*
X72191523Y-62637247D02*
X72191523Y-62875342D01*
X72191523Y-62875342D02*
X72143904Y-62970580D01*
X72143904Y-62970580D02*
X72096285Y-63018200D01*
X72096285Y-63018200D02*
X72001047Y-63065819D01*
X72001047Y-63065819D02*
X71715333Y-63065819D01*
X71715333Y-63065819D02*
X71620095Y-63018200D01*
X71620095Y-63018200D02*
X71572476Y-62970580D01*
X72572476Y-62161057D02*
X72620095Y-62113438D01*
X72620095Y-62113438D02*
X72715333Y-62065819D01*
X72715333Y-62065819D02*
X72953428Y-62065819D01*
X72953428Y-62065819D02*
X73048666Y-62113438D01*
X73048666Y-62113438D02*
X73096285Y-62161057D01*
X73096285Y-62161057D02*
X73143904Y-62256295D01*
X73143904Y-62256295D02*
X73143904Y-62351533D01*
X73143904Y-62351533D02*
X73096285Y-62494390D01*
X73096285Y-62494390D02*
X72524857Y-63065819D01*
X72524857Y-63065819D02*
X73143904Y-63065819D01*
X162933142Y-72209819D02*
X162599809Y-71733628D01*
X162361714Y-72209819D02*
X162361714Y-71209819D01*
X162361714Y-71209819D02*
X162742666Y-71209819D01*
X162742666Y-71209819D02*
X162837904Y-71257438D01*
X162837904Y-71257438D02*
X162885523Y-71305057D01*
X162885523Y-71305057D02*
X162933142Y-71400295D01*
X162933142Y-71400295D02*
X162933142Y-71543152D01*
X162933142Y-71543152D02*
X162885523Y-71638390D01*
X162885523Y-71638390D02*
X162837904Y-71686009D01*
X162837904Y-71686009D02*
X162742666Y-71733628D01*
X162742666Y-71733628D02*
X162361714Y-71733628D01*
X163885523Y-72209819D02*
X163314095Y-72209819D01*
X163599809Y-72209819D02*
X163599809Y-71209819D01*
X163599809Y-71209819D02*
X163504571Y-71352676D01*
X163504571Y-71352676D02*
X163409333Y-71447914D01*
X163409333Y-71447914D02*
X163314095Y-71495533D01*
X164456952Y-71638390D02*
X164361714Y-71590771D01*
X164361714Y-71590771D02*
X164314095Y-71543152D01*
X164314095Y-71543152D02*
X164266476Y-71447914D01*
X164266476Y-71447914D02*
X164266476Y-71400295D01*
X164266476Y-71400295D02*
X164314095Y-71305057D01*
X164314095Y-71305057D02*
X164361714Y-71257438D01*
X164361714Y-71257438D02*
X164456952Y-71209819D01*
X164456952Y-71209819D02*
X164647428Y-71209819D01*
X164647428Y-71209819D02*
X164742666Y-71257438D01*
X164742666Y-71257438D02*
X164790285Y-71305057D01*
X164790285Y-71305057D02*
X164837904Y-71400295D01*
X164837904Y-71400295D02*
X164837904Y-71447914D01*
X164837904Y-71447914D02*
X164790285Y-71543152D01*
X164790285Y-71543152D02*
X164742666Y-71590771D01*
X164742666Y-71590771D02*
X164647428Y-71638390D01*
X164647428Y-71638390D02*
X164456952Y-71638390D01*
X164456952Y-71638390D02*
X164361714Y-71686009D01*
X164361714Y-71686009D02*
X164314095Y-71733628D01*
X164314095Y-71733628D02*
X164266476Y-71828866D01*
X164266476Y-71828866D02*
X164266476Y-72019342D01*
X164266476Y-72019342D02*
X164314095Y-72114580D01*
X164314095Y-72114580D02*
X164361714Y-72162200D01*
X164361714Y-72162200D02*
X164456952Y-72209819D01*
X164456952Y-72209819D02*
X164647428Y-72209819D01*
X164647428Y-72209819D02*
X164742666Y-72162200D01*
X164742666Y-72162200D02*
X164790285Y-72114580D01*
X164790285Y-72114580D02*
X164837904Y-72019342D01*
X164837904Y-72019342D02*
X164837904Y-71828866D01*
X164837904Y-71828866D02*
X164790285Y-71733628D01*
X164790285Y-71733628D02*
X164742666Y-71686009D01*
X164742666Y-71686009D02*
X164647428Y-71638390D01*
X130474819Y-68754523D02*
X131189104Y-68754523D01*
X131189104Y-68754523D02*
X131331961Y-68802142D01*
X131331961Y-68802142D02*
X131427200Y-68897380D01*
X131427200Y-68897380D02*
X131474819Y-69040237D01*
X131474819Y-69040237D02*
X131474819Y-69135475D01*
X131474819Y-67754523D02*
X131474819Y-68325951D01*
X131474819Y-68040237D02*
X130474819Y-68040237D01*
X130474819Y-68040237D02*
X130617676Y-68135475D01*
X130617676Y-68135475D02*
X130712914Y-68230713D01*
X130712914Y-68230713D02*
X130760533Y-68325951D01*
X130474819Y-67135475D02*
X130474819Y-67040237D01*
X130474819Y-67040237D02*
X130522438Y-66944999D01*
X130522438Y-66944999D02*
X130570057Y-66897380D01*
X130570057Y-66897380D02*
X130665295Y-66849761D01*
X130665295Y-66849761D02*
X130855771Y-66802142D01*
X130855771Y-66802142D02*
X131093866Y-66802142D01*
X131093866Y-66802142D02*
X131284342Y-66849761D01*
X131284342Y-66849761D02*
X131379580Y-66897380D01*
X131379580Y-66897380D02*
X131427200Y-66944999D01*
X131427200Y-66944999D02*
X131474819Y-67040237D01*
X131474819Y-67040237D02*
X131474819Y-67135475D01*
X131474819Y-67135475D02*
X131427200Y-67230713D01*
X131427200Y-67230713D02*
X131379580Y-67278332D01*
X131379580Y-67278332D02*
X131284342Y-67325951D01*
X131284342Y-67325951D02*
X131093866Y-67373570D01*
X131093866Y-67373570D02*
X130855771Y-67373570D01*
X130855771Y-67373570D02*
X130665295Y-67325951D01*
X130665295Y-67325951D02*
X130570057Y-67278332D01*
X130570057Y-67278332D02*
X130522438Y-67230713D01*
X130522438Y-67230713D02*
X130474819Y-67135475D01*
X77930476Y-42204819D02*
X77930476Y-42919104D01*
X77930476Y-42919104D02*
X77882857Y-43061961D01*
X77882857Y-43061961D02*
X77787619Y-43157200D01*
X77787619Y-43157200D02*
X77644762Y-43204819D01*
X77644762Y-43204819D02*
X77549524Y-43204819D01*
X78930476Y-43204819D02*
X78359048Y-43204819D01*
X78644762Y-43204819D02*
X78644762Y-42204819D01*
X78644762Y-42204819D02*
X78549524Y-42347676D01*
X78549524Y-42347676D02*
X78454286Y-42442914D01*
X78454286Y-42442914D02*
X78359048Y-42490533D01*
X79263810Y-42204819D02*
X79882857Y-42204819D01*
X79882857Y-42204819D02*
X79549524Y-42585771D01*
X79549524Y-42585771D02*
X79692381Y-42585771D01*
X79692381Y-42585771D02*
X79787619Y-42633390D01*
X79787619Y-42633390D02*
X79835238Y-42681009D01*
X79835238Y-42681009D02*
X79882857Y-42776247D01*
X79882857Y-42776247D02*
X79882857Y-43014342D01*
X79882857Y-43014342D02*
X79835238Y-43109580D01*
X79835238Y-43109580D02*
X79787619Y-43157200D01*
X79787619Y-43157200D02*
X79692381Y-43204819D01*
X79692381Y-43204819D02*
X79406667Y-43204819D01*
X79406667Y-43204819D02*
X79311429Y-43157200D01*
X79311429Y-43157200D02*
X79263810Y-43109580D01*
D11*
%TO.C,R3*%
X74690500Y-96600742D02*
X74690500Y-97075258D01*
X73645500Y-96600742D02*
X73645500Y-97075258D01*
%TO.C,J1*%
X155667000Y-46520000D02*
X156167000Y-46520000D01*
X155667000Y-47720000D02*
X153667000Y-47720000D01*
X155667000Y-47720000D02*
X155667000Y-46520000D01*
X155667000Y-50320000D02*
X153667000Y-50320000D01*
X155667000Y-56820000D02*
X155667000Y-50320000D01*
X155667000Y-61220000D02*
X155667000Y-60020000D01*
X156167000Y-44020000D02*
X161367000Y-44020000D01*
X156167000Y-46520000D02*
X156167000Y-44020000D01*
X161367000Y-44020000D02*
X161367000Y-46520000D01*
X161367000Y-46520000D02*
X161867000Y-46520000D01*
X161867000Y-46520000D02*
X161867000Y-49720000D01*
X161867000Y-52320000D02*
X161867000Y-61220000D01*
X161867000Y-61220000D02*
X155667000Y-61220000D01*
%TO.C,R23*%
X110707742Y-61961500D02*
X111182258Y-61961500D01*
X110707742Y-63006500D02*
X111182258Y-63006500D01*
%TO.C,R26*%
X103722742Y-61961500D02*
X104197258Y-61961500D01*
X103722742Y-63006500D02*
X104197258Y-63006500D01*
%TO.C,J6*%
X121360000Y-46520000D02*
X121860000Y-46520000D01*
X121360000Y-47720000D02*
X119360000Y-47720000D01*
X121360000Y-47720000D02*
X121360000Y-46520000D01*
X121360000Y-50320000D02*
X119360000Y-50320000D01*
X121360000Y-56820000D02*
X121360000Y-50320000D01*
X121360000Y-61220000D02*
X121360000Y-60020000D01*
X121860000Y-44020000D02*
X127060000Y-44020000D01*
X121860000Y-46520000D02*
X121860000Y-44020000D01*
X127060000Y-44020000D02*
X127060000Y-46520000D01*
X127060000Y-46520000D02*
X127560000Y-46520000D01*
X127560000Y-46520000D02*
X127560000Y-49720000D01*
X127560000Y-52320000D02*
X127560000Y-61220000D01*
X127560000Y-61220000D02*
X121360000Y-61220000D01*
%TO.C,SW1*%
X106980000Y-76530000D02*
X106380000Y-76530000D01*
X106680000Y-76230000D02*
X106980000Y-76530000D01*
X106380000Y-76530000D02*
X106680000Y-76230000D01*
X105280000Y-78330000D02*
X105280000Y-66530000D01*
X101180000Y-78330000D02*
X105280000Y-78330000D01*
X101180000Y-66530000D02*
X105280000Y-66530000D01*
X99680000Y-72430000D02*
X98680000Y-72430000D01*
X99180000Y-72930000D02*
X99180000Y-71930000D01*
X97180000Y-78330000D02*
X93080000Y-78330000D01*
X93080000Y-78330000D02*
X93080000Y-75930000D01*
X93080000Y-73730000D02*
X93080000Y-71130000D01*
X93080000Y-68930000D02*
X93080000Y-66530000D01*
X93080000Y-66530000D02*
X97180000Y-66530000D01*
X102180000Y-72430000D02*
G75*
G03*
X102180000Y-72430000I-3000000J0D01*
G01*
%TO.C,R1*%
X61758300Y-93262658D02*
X61758300Y-92788142D01*
X62803300Y-93262658D02*
X62803300Y-92788142D01*
%TO.C,R15*%
X67041500Y-75040258D02*
X67041500Y-74565742D01*
X68086500Y-75040258D02*
X68086500Y-74565742D01*
%TO.C,J4*%
X71180000Y-95190000D02*
X71180000Y-96520000D01*
X69850000Y-95190000D02*
X71180000Y-95190000D01*
X68580000Y-95190000D02*
X60900000Y-95190000D01*
X68580000Y-95190000D02*
X68580000Y-97790000D01*
X60900000Y-95190000D02*
X60900000Y-100390000D01*
X71180000Y-97790000D02*
X71180000Y-100390000D01*
X68580000Y-97790000D02*
X71180000Y-97790000D01*
X71180000Y-100390000D02*
X60900000Y-100390000D01*
%TO.C,R31*%
X64957742Y-62088500D02*
X65432258Y-62088500D01*
X64957742Y-63133500D02*
X65432258Y-63133500D01*
%TO.C,J3*%
X60910000Y-71947000D02*
X60910000Y-70617000D01*
X62240000Y-71947000D02*
X60910000Y-71947000D01*
X63510000Y-71947000D02*
X83890000Y-71947000D01*
X63510000Y-71947000D02*
X63510000Y-69347000D01*
X83890000Y-71947000D02*
X83890000Y-66747000D01*
X60910000Y-69347000D02*
X60910000Y-66747000D01*
X63510000Y-69347000D02*
X60910000Y-69347000D01*
X60910000Y-66747000D02*
X83890000Y-66747000D01*
%TO.C,R10*%
X161751742Y-62088500D02*
X162226258Y-62088500D01*
X161751742Y-63133500D02*
X162226258Y-63133500D01*
%TO.C,J2*%
X128870000Y-96130000D02*
X128870000Y-97460000D01*
X127540000Y-96130000D02*
X128870000Y-96130000D01*
X126270000Y-96130000D02*
X121130000Y-96130000D01*
X126270000Y-96130000D02*
X126270000Y-98730000D01*
X121130000Y-96130000D02*
X121130000Y-101330000D01*
X128870000Y-98730000D02*
X128870000Y-101330000D01*
X126270000Y-98730000D02*
X128870000Y-98730000D01*
X128870000Y-101330000D02*
X121130000Y-101330000D01*
%TO.C,U2*%
X123985000Y-68530000D02*
X123750000Y-68530000D01*
X123750000Y-68530000D02*
X123750000Y-66715000D01*
X110965000Y-68530000D02*
X111200000Y-68530000D01*
X123985000Y-72390000D02*
X123985000Y-68530000D01*
X123985000Y-72390000D02*
X123985000Y-76250000D01*
X110965000Y-72390000D02*
X110965000Y-68530000D01*
X110965000Y-72390000D02*
X110965000Y-76250000D01*
X123985000Y-76250000D02*
X123750000Y-76250000D01*
X110965000Y-76250000D02*
X111200000Y-76250000D01*
%TO.C,R9*%
X82027500Y-74850258D02*
X82027500Y-74375742D01*
X83072500Y-74850258D02*
X83072500Y-74375742D01*
%TO.C,R12*%
X76058500Y-74913258D02*
X76058500Y-74438742D01*
X77103500Y-74913258D02*
X77103500Y-74438742D01*
%TO.C,R19*%
X160253142Y-73797900D02*
X160727658Y-73797900D01*
X160253142Y-74842900D02*
X160727658Y-74842900D01*
%TO.C,C1*%
X124585000Y-75845580D02*
X124585000Y-75564420D01*
X125605000Y-75845580D02*
X125605000Y-75564420D01*
%TO.C,J15*%
X144237000Y-46520000D02*
X144737000Y-46520000D01*
X144237000Y-47720000D02*
X142237000Y-47720000D01*
X144237000Y-47720000D02*
X144237000Y-46520000D01*
X144237000Y-50320000D02*
X142237000Y-50320000D01*
X144237000Y-56820000D02*
X144237000Y-50320000D01*
X144237000Y-61220000D02*
X144237000Y-60020000D01*
X144737000Y-44020000D02*
X149937000Y-44020000D01*
X144737000Y-46520000D02*
X144737000Y-44020000D01*
X149937000Y-44020000D02*
X149937000Y-46520000D01*
X149937000Y-46520000D02*
X150437000Y-46520000D01*
X150437000Y-46520000D02*
X150437000Y-49720000D01*
X150437000Y-52320000D02*
X150437000Y-61220000D01*
X150437000Y-61220000D02*
X144237000Y-61220000D01*
%TO.C,R21*%
X122747742Y-61961500D02*
X123222258Y-61961500D01*
X122747742Y-63006500D02*
X123222258Y-63006500D01*
%TO.C,R5*%
X64755500Y-93138258D02*
X64755500Y-92663742D01*
X65800500Y-93138258D02*
X65800500Y-92663742D01*
%TO.C,R25*%
X99902742Y-61961500D02*
X100377258Y-61961500D01*
X99902742Y-63006500D02*
X100377258Y-63006500D01*
%TO.C,R28*%
X59577500Y-93397742D02*
X59577500Y-93872258D01*
X58532500Y-93397742D02*
X58532500Y-93872258D01*
%TO.C,R29*%
X88482742Y-61961500D02*
X88957258Y-61961500D01*
X88482742Y-63006500D02*
X88957258Y-63006500D01*
%TO.C,R16*%
X63993500Y-75040258D02*
X63993500Y-74565742D01*
X65038500Y-75040258D02*
X65038500Y-74565742D01*
%TO.C,R33*%
X76387742Y-61961500D02*
X76862258Y-61961500D01*
X76387742Y-63006500D02*
X76862258Y-63006500D01*
%TO.C,R27*%
X58532500Y-90534258D02*
X58532500Y-90059742D01*
X59577500Y-90534258D02*
X59577500Y-90059742D01*
%TO.C,R13*%
X73137500Y-74914258D02*
X73137500Y-74439742D01*
X74182500Y-74914258D02*
X74182500Y-74439742D01*
%TO.C,R34*%
X80197742Y-61961500D02*
X80672258Y-61961500D01*
X80197742Y-63006500D02*
X80672258Y-63006500D01*
%TO.C,R17*%
X60818500Y-75040258D02*
X60818500Y-74565742D01*
X61863500Y-75040258D02*
X61863500Y-74565742D01*
%TO.C,R8*%
X80659500Y-91266742D02*
X80659500Y-91741258D01*
X79614500Y-91266742D02*
X79614500Y-91741258D01*
%TO.C,R30*%
X92292742Y-61961500D02*
X92767258Y-61961500D01*
X92292742Y-63006500D02*
X92767258Y-63006500D01*
%TO.C,U3*%
X149060000Y-68340000D02*
X149060000Y-68630000D01*
X149060000Y-68630000D02*
X146780000Y-68630000D01*
X149060000Y-77710000D02*
X149060000Y-77420000D01*
X152480000Y-68340000D02*
X149060000Y-68340000D01*
X152480000Y-68340000D02*
X155900000Y-68340000D01*
X152480000Y-77710000D02*
X149060000Y-77710000D01*
X152480000Y-77710000D02*
X155900000Y-77710000D01*
X155900000Y-68340000D02*
X155900000Y-68630000D01*
X155900000Y-77710000D02*
X155900000Y-77420000D01*
%TO.C,U1*%
X78930000Y-79325000D02*
X78665000Y-79325000D01*
X78665000Y-79325000D02*
X78665000Y-77510000D01*
X63310000Y-79325000D02*
X63575000Y-79325000D01*
X78930000Y-83185000D02*
X78930000Y-79325000D01*
X78930000Y-83185000D02*
X78930000Y-87045000D01*
X63310000Y-83185000D02*
X63310000Y-79325000D01*
X63310000Y-83185000D02*
X63310000Y-87045000D01*
X78930000Y-87045000D02*
X78665000Y-87045000D01*
X63310000Y-87045000D02*
X63575000Y-87045000D01*
%TO.C,R20*%
X160727658Y-69762900D02*
X160253142Y-69762900D01*
X160727658Y-68717900D02*
X160253142Y-68717900D01*
%TO.C,J14*%
X132807000Y-46520000D02*
X133307000Y-46520000D01*
X132807000Y-47720000D02*
X130807000Y-47720000D01*
X132807000Y-47720000D02*
X132807000Y-46520000D01*
X132807000Y-50320000D02*
X130807000Y-50320000D01*
X132807000Y-56820000D02*
X132807000Y-50320000D01*
X132807000Y-61220000D02*
X132807000Y-60020000D01*
X133307000Y-44020000D02*
X138507000Y-44020000D01*
X133307000Y-46520000D02*
X133307000Y-44020000D01*
X138507000Y-44020000D02*
X138507000Y-46520000D01*
X138507000Y-46520000D02*
X139007000Y-46520000D01*
X139007000Y-46520000D02*
X139007000Y-49720000D01*
X139007000Y-52320000D02*
X139007000Y-61220000D01*
X139007000Y-61220000D02*
X132807000Y-61220000D01*
%TO.C,J12*%
X64210000Y-46550000D02*
X64710000Y-46550000D01*
X64210000Y-47750000D02*
X62210000Y-47750000D01*
X64210000Y-47750000D02*
X64210000Y-46550000D01*
X64210000Y-50350000D02*
X62210000Y-50350000D01*
X64210000Y-56850000D02*
X64210000Y-50350000D01*
X64210000Y-61250000D02*
X64210000Y-60050000D01*
X64710000Y-44050000D02*
X69910000Y-44050000D01*
X64710000Y-46550000D02*
X64710000Y-44050000D01*
X69910000Y-44050000D02*
X69910000Y-46550000D01*
X69910000Y-46550000D02*
X70410000Y-46550000D01*
X70410000Y-46550000D02*
X70410000Y-49750000D01*
X70410000Y-52350000D02*
X70410000Y-61250000D01*
X70410000Y-61250000D02*
X64210000Y-61250000D01*
%TO.C,R4*%
X74817500Y-92599742D02*
X74817500Y-93074258D01*
X73772500Y-92599742D02*
X73772500Y-93074258D01*
%TO.C,R22*%
X125977742Y-61961500D02*
X126452258Y-61961500D01*
X125977742Y-63006500D02*
X126452258Y-63006500D01*
%TO.C,R11*%
X79106500Y-74850258D02*
X79106500Y-74375742D01*
X80151500Y-74850258D02*
X80151500Y-74375742D01*
%TO.C,J9*%
X59630000Y-79315000D02*
X60960000Y-79315000D01*
X59630000Y-80645000D02*
X59630000Y-79315000D01*
X59630000Y-81915000D02*
X59630000Y-87055000D01*
X59630000Y-81915000D02*
X62290000Y-81915000D01*
X59630000Y-87055000D02*
X62290000Y-87055000D01*
X62290000Y-81915000D02*
X62290000Y-87055000D01*
%TO.C,R35*%
X135715742Y-61961500D02*
X136190258Y-61961500D01*
X135715742Y-63006500D02*
X136190258Y-63006500D01*
%TO.C,J5*%
X117540000Y-84975000D02*
X86940000Y-84975000D01*
X86940000Y-84975000D02*
X86940000Y-97895000D01*
X117540000Y-90435000D02*
X117540000Y-84975000D01*
X117540000Y-97895000D02*
X117540000Y-92435000D01*
X86940000Y-97895000D02*
X117540000Y-97895000D01*
X117540000Y-90435000D02*
G75*
G03*
X117540000Y-92435000I0J-1000000D01*
G01*
%TO.C,R36*%
X146919742Y-61961500D02*
X147394258Y-61961500D01*
X146919742Y-63006500D02*
X147394258Y-63006500D01*
%TO.C,R2*%
X71769500Y-92599742D02*
X71769500Y-93074258D01*
X70724500Y-92599742D02*
X70724500Y-93074258D01*
%TO.C,R24*%
X114506742Y-61961500D02*
X114981258Y-61961500D01*
X114506742Y-63006500D02*
X114981258Y-63006500D01*
%TO.C,J8*%
X98500000Y-46520000D02*
X99000000Y-46520000D01*
X98500000Y-47720000D02*
X96500000Y-47720000D01*
X98500000Y-47720000D02*
X98500000Y-46520000D01*
X98500000Y-50320000D02*
X96500000Y-50320000D01*
X98500000Y-56820000D02*
X98500000Y-50320000D01*
X98500000Y-61220000D02*
X98500000Y-60020000D01*
X99000000Y-44020000D02*
X104200000Y-44020000D01*
X99000000Y-46520000D02*
X99000000Y-44020000D01*
X104200000Y-44020000D02*
X104200000Y-46520000D01*
X104200000Y-46520000D02*
X104700000Y-46520000D01*
X104700000Y-46520000D02*
X104700000Y-49720000D01*
X104700000Y-52320000D02*
X104700000Y-61220000D01*
X104700000Y-61220000D02*
X98500000Y-61220000D01*
%TO.C,R6*%
X67803500Y-93074258D02*
X67803500Y-92599742D01*
X68848500Y-93074258D02*
X68848500Y-92599742D01*
%TO.C,C2*%
X79500000Y-86185580D02*
X79500000Y-85904420D01*
X80520000Y-86185580D02*
X80520000Y-85904420D01*
%TO.C,J7*%
X109930000Y-46520000D02*
X110430000Y-46520000D01*
X109930000Y-47720000D02*
X107930000Y-47720000D01*
X109930000Y-47720000D02*
X109930000Y-46520000D01*
X109930000Y-50320000D02*
X107930000Y-50320000D01*
X109930000Y-56820000D02*
X109930000Y-50320000D01*
X109930000Y-61220000D02*
X109930000Y-60020000D01*
X110430000Y-44020000D02*
X115630000Y-44020000D01*
X110430000Y-46520000D02*
X110430000Y-44020000D01*
X115630000Y-44020000D02*
X115630000Y-46520000D01*
X115630000Y-46520000D02*
X116130000Y-46520000D01*
X116130000Y-46520000D02*
X116130000Y-49720000D01*
X116130000Y-52320000D02*
X116130000Y-61220000D01*
X116130000Y-61220000D02*
X109930000Y-61220000D01*
%TO.C,R14*%
X70089500Y-75041258D02*
X70089500Y-74566742D01*
X71134500Y-75041258D02*
X71134500Y-74566742D01*
%TO.C,J11*%
X87070000Y-46550000D02*
X87570000Y-46550000D01*
X87070000Y-47750000D02*
X85070000Y-47750000D01*
X87070000Y-47750000D02*
X87070000Y-46550000D01*
X87070000Y-50350000D02*
X85070000Y-50350000D01*
X87070000Y-56850000D02*
X87070000Y-50350000D01*
X87070000Y-61250000D02*
X87070000Y-60050000D01*
X87570000Y-44050000D02*
X92770000Y-44050000D01*
X87570000Y-46550000D02*
X87570000Y-44050000D01*
X92770000Y-44050000D02*
X92770000Y-46550000D01*
X92770000Y-46550000D02*
X93270000Y-46550000D01*
X93270000Y-46550000D02*
X93270000Y-49750000D01*
X93270000Y-52350000D02*
X93270000Y-61250000D01*
X93270000Y-61250000D02*
X87070000Y-61250000D01*
%TO.C,D1*%
X155120000Y-62119000D02*
X155120000Y-64119000D01*
X155120000Y-62119000D02*
X159130000Y-62119000D01*
X155120000Y-64119000D02*
X159130000Y-64119000D01*
%TO.C,R7*%
X77738500Y-91266742D02*
X77738500Y-91741258D01*
X76693500Y-91266742D02*
X76693500Y-91741258D01*
%TO.C,R32*%
X68767742Y-62088500D02*
X69242258Y-62088500D01*
X68767742Y-63133500D02*
X69242258Y-63133500D01*
%TO.C,R18*%
X160253142Y-71257900D02*
X160727658Y-71257900D01*
X160253142Y-72302900D02*
X160727658Y-72302900D01*
%TO.C,J10*%
X132020000Y-69275000D02*
X132020000Y-67945000D01*
X133350000Y-69275000D02*
X132020000Y-69275000D01*
X134620000Y-69275000D02*
X142300000Y-69275000D01*
X134620000Y-69275000D02*
X134620000Y-66615000D01*
X142300000Y-69275000D02*
X142300000Y-66615000D01*
X134620000Y-66615000D02*
X142300000Y-66615000D01*
%TO.C,J13*%
X75640000Y-46550000D02*
X76140000Y-46550000D01*
X75640000Y-47750000D02*
X73640000Y-47750000D01*
X75640000Y-47750000D02*
X75640000Y-46550000D01*
X75640000Y-50350000D02*
X73640000Y-50350000D01*
X75640000Y-56850000D02*
X75640000Y-50350000D01*
X75640000Y-61250000D02*
X75640000Y-60050000D01*
X76140000Y-44050000D02*
X81340000Y-44050000D01*
X76140000Y-46550000D02*
X76140000Y-44050000D01*
X81340000Y-44050000D02*
X81340000Y-46550000D01*
X81340000Y-46550000D02*
X81840000Y-46550000D01*
X81840000Y-46550000D02*
X81840000Y-49750000D01*
X81840000Y-52350000D02*
X81840000Y-61250000D01*
X81840000Y-61250000D02*
X75640000Y-61250000D01*
%TD*%
M02*
