%TF.GenerationSoftware,KiCad,Pcbnew,7.0.8*%
%TF.CreationDate,2024-01-30T11:56:12+01:00*%
%TF.ProjectId,MidiClockBox_v3,4d696469-436c-46f6-936b-426f785f7633,rev?*%
%TF.SameCoordinates,Original*%
%TF.FileFunction,Copper,L1,Top*%
%TF.FilePolarity,Positive*%
%FSLAX46Y46*%
G04 Gerber Fmt 4.6, Leading zero omitted, Abs format (unit mm)*
G04 Created by KiCad (PCBNEW 7.0.8) date 2024-01-30 11:56:12*
%MOMM*%
%LPD*%
G01*
G04 APERTURE LIST*
G04 Aperture macros list*
%AMRoundRect*
0 Rectangle with rounded corners*
0 $1 Rounding radius*
0 $2 $3 $4 $5 $6 $7 $8 $9 X,Y pos of 4 corners*
0 Add a 4 corners polygon primitive as box body*
4,1,4,$2,$3,$4,$5,$6,$7,$8,$9,$2,$3,0*
0 Add four circle primitives for the rounded corners*
1,1,$1+$1,$2,$3*
1,1,$1+$1,$4,$5*
1,1,$1+$1,$6,$7*
1,1,$1+$1,$8,$9*
0 Add four rect primitives between the rounded corners*
20,1,$1+$1,$2,$3,$4,$5,0*
20,1,$1+$1,$4,$5,$6,$7,0*
20,1,$1+$1,$6,$7,$8,$9,0*
20,1,$1+$1,$8,$9,$2,$3,0*%
G04 Aperture macros list end*
%ADD10C,1.000000*%
%TA.AperFunction,NonConductor*%
%ADD11C,1.000000*%
%TD*%
%ADD12C,0.500000*%
%TA.AperFunction,NonConductor*%
%ADD13C,0.500000*%
%TD*%
%ADD14C,0.150000*%
%TA.AperFunction,NonConductor*%
%ADD15C,0.150000*%
%TD*%
%ADD16C,0.125000*%
%TA.AperFunction,NonConductor*%
%ADD17C,0.125000*%
%TD*%
%TA.AperFunction,SMDPad,CuDef*%
%ADD18RoundRect,0.200000X-0.275000X0.200000X-0.275000X-0.200000X0.275000X-0.200000X0.275000X0.200000X0*%
%TD*%
%TA.AperFunction,SMDPad,CuDef*%
%ADD19R,2.800000X2.200000*%
%TD*%
%TA.AperFunction,SMDPad,CuDef*%
%ADD20R,2.800000X2.800000*%
%TD*%
%TA.AperFunction,SMDPad,CuDef*%
%ADD21RoundRect,0.200000X-0.200000X-0.275000X0.200000X-0.275000X0.200000X0.275000X-0.200000X0.275000X0*%
%TD*%
%TA.AperFunction,ComponentPad*%
%ADD22R,2.000000X2.000000*%
%TD*%
%TA.AperFunction,ComponentPad*%
%ADD23C,2.000000*%
%TD*%
%TA.AperFunction,ComponentPad*%
%ADD24R,3.200000X2.000000*%
%TD*%
%TA.AperFunction,SMDPad,CuDef*%
%ADD25RoundRect,0.200000X0.275000X-0.200000X0.275000X0.200000X-0.275000X0.200000X-0.275000X-0.200000X0*%
%TD*%
%TA.AperFunction,ComponentPad*%
%ADD26R,1.700000X1.700000*%
%TD*%
%TA.AperFunction,ComponentPad*%
%ADD27O,1.700000X1.700000*%
%TD*%
%TA.AperFunction,SMDPad,CuDef*%
%ADD28RoundRect,0.150000X-0.150000X0.875000X-0.150000X-0.875000X0.150000X-0.875000X0.150000X0.875000X0*%
%TD*%
%TA.AperFunction,SMDPad,CuDef*%
%ADD29RoundRect,0.225000X0.250000X-0.225000X0.250000X0.225000X-0.250000X0.225000X-0.250000X-0.225000X0*%
%TD*%
%TA.AperFunction,SMDPad,CuDef*%
%ADD30RoundRect,0.162500X-1.012500X-0.162500X1.012500X-0.162500X1.012500X0.162500X-1.012500X0.162500X0*%
%TD*%
%TA.AperFunction,SMDPad,CuDef*%
%ADD31RoundRect,0.200000X0.200000X0.275000X-0.200000X0.275000X-0.200000X-0.275000X0.200000X-0.275000X0*%
%TD*%
%TA.AperFunction,ComponentPad*%
%ADD32R,1.600000X1.600000*%
%TD*%
%TA.AperFunction,ComponentPad*%
%ADD33O,1.600000X1.600000*%
%TD*%
%TA.AperFunction,SMDPad,CuDef*%
%ADD34RoundRect,0.225000X-0.225000X-0.375000X0.225000X-0.375000X0.225000X0.375000X-0.225000X0.375000X0*%
%TD*%
%TA.AperFunction,ViaPad*%
%ADD35C,6.000000*%
%TD*%
%TA.AperFunction,ViaPad*%
%ADD36C,0.800000*%
%TD*%
%TA.AperFunction,Conductor*%
%ADD37C,0.250000*%
%TD*%
G04 APERTURE END LIST*
D10*
D11*
X131628326Y-85545553D02*
X131437850Y-85736030D01*
X131437850Y-85736030D02*
X130866421Y-85926506D01*
X130866421Y-85926506D02*
X130485469Y-85926506D01*
X130485469Y-85926506D02*
X129914040Y-85736030D01*
X129914040Y-85736030D02*
X129533088Y-85355077D01*
X129533088Y-85355077D02*
X129342611Y-84974125D01*
X129342611Y-84974125D02*
X129152135Y-84212220D01*
X129152135Y-84212220D02*
X129152135Y-83640791D01*
X129152135Y-83640791D02*
X129342611Y-82878887D01*
X129342611Y-82878887D02*
X129533088Y-82497934D01*
X129533088Y-82497934D02*
X129914040Y-82116982D01*
X129914040Y-82116982D02*
X130485469Y-81926506D01*
X130485469Y-81926506D02*
X130866421Y-81926506D01*
X130866421Y-81926506D02*
X131437850Y-82116982D01*
X131437850Y-82116982D02*
X131628326Y-82307458D01*
X133914040Y-85926506D02*
X133533088Y-85736030D01*
X133533088Y-85736030D02*
X133342611Y-85355077D01*
X133342611Y-85355077D02*
X133342611Y-81926506D01*
X136009278Y-85926506D02*
X135628326Y-85736030D01*
X135628326Y-85736030D02*
X135437849Y-85545553D01*
X135437849Y-85545553D02*
X135247373Y-85164601D01*
X135247373Y-85164601D02*
X135247373Y-84021744D01*
X135247373Y-84021744D02*
X135437849Y-83640791D01*
X135437849Y-83640791D02*
X135628326Y-83450315D01*
X135628326Y-83450315D02*
X136009278Y-83259839D01*
X136009278Y-83259839D02*
X136580707Y-83259839D01*
X136580707Y-83259839D02*
X136961659Y-83450315D01*
X136961659Y-83450315D02*
X137152135Y-83640791D01*
X137152135Y-83640791D02*
X137342611Y-84021744D01*
X137342611Y-84021744D02*
X137342611Y-85164601D01*
X137342611Y-85164601D02*
X137152135Y-85545553D01*
X137152135Y-85545553D02*
X136961659Y-85736030D01*
X136961659Y-85736030D02*
X136580707Y-85926506D01*
X136580707Y-85926506D02*
X136009278Y-85926506D01*
X140771183Y-85736030D02*
X140390231Y-85926506D01*
X140390231Y-85926506D02*
X139628326Y-85926506D01*
X139628326Y-85926506D02*
X139247374Y-85736030D01*
X139247374Y-85736030D02*
X139056897Y-85545553D01*
X139056897Y-85545553D02*
X138866421Y-85164601D01*
X138866421Y-85164601D02*
X138866421Y-84021744D01*
X138866421Y-84021744D02*
X139056897Y-83640791D01*
X139056897Y-83640791D02*
X139247374Y-83450315D01*
X139247374Y-83450315D02*
X139628326Y-83259839D01*
X139628326Y-83259839D02*
X140390231Y-83259839D01*
X140390231Y-83259839D02*
X140771183Y-83450315D01*
X142485468Y-85926506D02*
X142485468Y-81926506D01*
X142866421Y-84402696D02*
X144009278Y-85926506D01*
X144009278Y-83259839D02*
X142485468Y-84783649D01*
X147056897Y-83831268D02*
X147628325Y-84021744D01*
X147628325Y-84021744D02*
X147818802Y-84212220D01*
X147818802Y-84212220D02*
X148009278Y-84593172D01*
X148009278Y-84593172D02*
X148009278Y-85164601D01*
X148009278Y-85164601D02*
X147818802Y-85545553D01*
X147818802Y-85545553D02*
X147628325Y-85736030D01*
X147628325Y-85736030D02*
X147247373Y-85926506D01*
X147247373Y-85926506D02*
X145723563Y-85926506D01*
X145723563Y-85926506D02*
X145723563Y-81926506D01*
X145723563Y-81926506D02*
X147056897Y-81926506D01*
X147056897Y-81926506D02*
X147437849Y-82116982D01*
X147437849Y-82116982D02*
X147628325Y-82307458D01*
X147628325Y-82307458D02*
X147818802Y-82688410D01*
X147818802Y-82688410D02*
X147818802Y-83069363D01*
X147818802Y-83069363D02*
X147628325Y-83450315D01*
X147628325Y-83450315D02*
X147437849Y-83640791D01*
X147437849Y-83640791D02*
X147056897Y-83831268D01*
X147056897Y-83831268D02*
X145723563Y-83831268D01*
X150294992Y-85926506D02*
X149914040Y-85736030D01*
X149914040Y-85736030D02*
X149723563Y-85545553D01*
X149723563Y-85545553D02*
X149533087Y-85164601D01*
X149533087Y-85164601D02*
X149533087Y-84021744D01*
X149533087Y-84021744D02*
X149723563Y-83640791D01*
X149723563Y-83640791D02*
X149914040Y-83450315D01*
X149914040Y-83450315D02*
X150294992Y-83259839D01*
X150294992Y-83259839D02*
X150866421Y-83259839D01*
X150866421Y-83259839D02*
X151247373Y-83450315D01*
X151247373Y-83450315D02*
X151437849Y-83640791D01*
X151437849Y-83640791D02*
X151628325Y-84021744D01*
X151628325Y-84021744D02*
X151628325Y-85164601D01*
X151628325Y-85164601D02*
X151437849Y-85545553D01*
X151437849Y-85545553D02*
X151247373Y-85736030D01*
X151247373Y-85736030D02*
X150866421Y-85926506D01*
X150866421Y-85926506D02*
X150294992Y-85926506D01*
X152961659Y-85926506D02*
X155056897Y-83259839D01*
X152961659Y-83259839D02*
X155056897Y-85926506D01*
X159247373Y-83259839D02*
X160199754Y-85926506D01*
X160199754Y-85926506D02*
X161152135Y-83259839D01*
X162294992Y-81926506D02*
X164771183Y-81926506D01*
X164771183Y-81926506D02*
X163437849Y-83450315D01*
X163437849Y-83450315D02*
X164009278Y-83450315D01*
X164009278Y-83450315D02*
X164390230Y-83640791D01*
X164390230Y-83640791D02*
X164580706Y-83831268D01*
X164580706Y-83831268D02*
X164771183Y-84212220D01*
X164771183Y-84212220D02*
X164771183Y-85164601D01*
X164771183Y-85164601D02*
X164580706Y-85545553D01*
X164580706Y-85545553D02*
X164390230Y-85736030D01*
X164390230Y-85736030D02*
X164009278Y-85926506D01*
X164009278Y-85926506D02*
X162866421Y-85926506D01*
X162866421Y-85926506D02*
X162485468Y-85736030D01*
X162485468Y-85736030D02*
X162294992Y-85545553D01*
D12*
D13*
X129616998Y-89689934D02*
X129997950Y-91023268D01*
X129997950Y-91023268D02*
X130378903Y-90070887D01*
X130378903Y-90070887D02*
X130759855Y-91023268D01*
X130759855Y-91023268D02*
X131140807Y-89689934D01*
X131712236Y-89689934D02*
X132093188Y-91023268D01*
X132093188Y-91023268D02*
X132474141Y-90070887D01*
X132474141Y-90070887D02*
X132855093Y-91023268D01*
X132855093Y-91023268D02*
X133236045Y-89689934D01*
X133807474Y-89689934D02*
X134188426Y-91023268D01*
X134188426Y-91023268D02*
X134569379Y-90070887D01*
X134569379Y-90070887D02*
X134950331Y-91023268D01*
X134950331Y-91023268D02*
X135331283Y-89689934D01*
X136093188Y-90832791D02*
X136188426Y-90928030D01*
X136188426Y-90928030D02*
X136093188Y-91023268D01*
X136093188Y-91023268D02*
X135997950Y-90928030D01*
X135997950Y-90928030D02*
X136093188Y-90832791D01*
X136093188Y-90832791D02*
X136093188Y-91023268D01*
X136950331Y-90451839D02*
X137902712Y-90451839D01*
X136759855Y-91023268D02*
X137426521Y-89023268D01*
X137426521Y-89023268D02*
X138093188Y-91023268D01*
X138759855Y-89689934D02*
X138759855Y-91023268D01*
X138759855Y-89880410D02*
X138855093Y-89785172D01*
X138855093Y-89785172D02*
X139045569Y-89689934D01*
X139045569Y-89689934D02*
X139331284Y-89689934D01*
X139331284Y-89689934D02*
X139521760Y-89785172D01*
X139521760Y-89785172D02*
X139616998Y-89975649D01*
X139616998Y-89975649D02*
X139616998Y-91023268D01*
X141426522Y-91023268D02*
X141426522Y-89023268D01*
X141426522Y-90928030D02*
X141236046Y-91023268D01*
X141236046Y-91023268D02*
X140855093Y-91023268D01*
X140855093Y-91023268D02*
X140664617Y-90928030D01*
X140664617Y-90928030D02*
X140569379Y-90832791D01*
X140569379Y-90832791D02*
X140474141Y-90642315D01*
X140474141Y-90642315D02*
X140474141Y-90070887D01*
X140474141Y-90070887D02*
X140569379Y-89880410D01*
X140569379Y-89880410D02*
X140664617Y-89785172D01*
X140664617Y-89785172D02*
X140855093Y-89689934D01*
X140855093Y-89689934D02*
X141236046Y-89689934D01*
X141236046Y-89689934D02*
X141426522Y-89785172D01*
X142188427Y-89689934D02*
X142664617Y-91023268D01*
X143140808Y-89689934D02*
X142664617Y-91023268D01*
X142664617Y-91023268D02*
X142474141Y-91499458D01*
X142474141Y-91499458D02*
X142378903Y-91594696D01*
X142378903Y-91594696D02*
X142188427Y-91689934D01*
X144188427Y-91023268D02*
X143997951Y-90928030D01*
X143997951Y-90928030D02*
X143902713Y-90737553D01*
X143902713Y-90737553D02*
X143902713Y-89023268D01*
X145807475Y-91023268D02*
X145807475Y-89975649D01*
X145807475Y-89975649D02*
X145712237Y-89785172D01*
X145712237Y-89785172D02*
X145521761Y-89689934D01*
X145521761Y-89689934D02*
X145140808Y-89689934D01*
X145140808Y-89689934D02*
X144950332Y-89785172D01*
X145807475Y-90928030D02*
X145616999Y-91023268D01*
X145616999Y-91023268D02*
X145140808Y-91023268D01*
X145140808Y-91023268D02*
X144950332Y-90928030D01*
X144950332Y-90928030D02*
X144855094Y-90737553D01*
X144855094Y-90737553D02*
X144855094Y-90547077D01*
X144855094Y-90547077D02*
X144950332Y-90356601D01*
X144950332Y-90356601D02*
X145140808Y-90261363D01*
X145140808Y-90261363D02*
X145616999Y-90261363D01*
X145616999Y-90261363D02*
X145807475Y-90166125D01*
X146759856Y-89689934D02*
X146759856Y-91023268D01*
X146759856Y-89880410D02*
X146855094Y-89785172D01*
X146855094Y-89785172D02*
X147045570Y-89689934D01*
X147045570Y-89689934D02*
X147331285Y-89689934D01*
X147331285Y-89689934D02*
X147521761Y-89785172D01*
X147521761Y-89785172D02*
X147616999Y-89975649D01*
X147616999Y-89975649D02*
X147616999Y-91023268D01*
X149426523Y-91023268D02*
X149426523Y-89023268D01*
X149426523Y-90928030D02*
X149236047Y-91023268D01*
X149236047Y-91023268D02*
X148855094Y-91023268D01*
X148855094Y-91023268D02*
X148664618Y-90928030D01*
X148664618Y-90928030D02*
X148569380Y-90832791D01*
X148569380Y-90832791D02*
X148474142Y-90642315D01*
X148474142Y-90642315D02*
X148474142Y-90070887D01*
X148474142Y-90070887D02*
X148569380Y-89880410D01*
X148569380Y-89880410D02*
X148664618Y-89785172D01*
X148664618Y-89785172D02*
X148855094Y-89689934D01*
X148855094Y-89689934D02*
X149236047Y-89689934D01*
X149236047Y-89689934D02*
X149426523Y-89785172D01*
X150378904Y-90832791D02*
X150474142Y-90928030D01*
X150474142Y-90928030D02*
X150378904Y-91023268D01*
X150378904Y-91023268D02*
X150283666Y-90928030D01*
X150283666Y-90928030D02*
X150378904Y-90832791D01*
X150378904Y-90832791D02*
X150378904Y-91023268D01*
X151331285Y-91023268D02*
X151331285Y-89689934D01*
X151331285Y-89023268D02*
X151236047Y-89118506D01*
X151236047Y-89118506D02*
X151331285Y-89213744D01*
X151331285Y-89213744D02*
X151426523Y-89118506D01*
X151426523Y-89118506D02*
X151331285Y-89023268D01*
X151331285Y-89023268D02*
X151331285Y-89213744D01*
X152283666Y-89689934D02*
X152283666Y-91023268D01*
X152283666Y-89880410D02*
X152378904Y-89785172D01*
X152378904Y-89785172D02*
X152569380Y-89689934D01*
X152569380Y-89689934D02*
X152855095Y-89689934D01*
X152855095Y-89689934D02*
X153045571Y-89785172D01*
X153045571Y-89785172D02*
X153140809Y-89975649D01*
X153140809Y-89975649D02*
X153140809Y-91023268D01*
X153807476Y-89689934D02*
X154569380Y-89689934D01*
X154093190Y-91023268D02*
X154093190Y-89308982D01*
X154093190Y-89308982D02*
X154188428Y-89118506D01*
X154188428Y-89118506D02*
X154378904Y-89023268D01*
X154378904Y-89023268D02*
X154569380Y-89023268D01*
X155521761Y-91023268D02*
X155331285Y-90928030D01*
X155331285Y-90928030D02*
X155236047Y-90832791D01*
X155236047Y-90832791D02*
X155140809Y-90642315D01*
X155140809Y-90642315D02*
X155140809Y-90070887D01*
X155140809Y-90070887D02*
X155236047Y-89880410D01*
X155236047Y-89880410D02*
X155331285Y-89785172D01*
X155331285Y-89785172D02*
X155521761Y-89689934D01*
X155521761Y-89689934D02*
X155807476Y-89689934D01*
X155807476Y-89689934D02*
X155997952Y-89785172D01*
X155997952Y-89785172D02*
X156093190Y-89880410D01*
X156093190Y-89880410D02*
X156188428Y-90070887D01*
X156188428Y-90070887D02*
X156188428Y-90642315D01*
X156188428Y-90642315D02*
X156093190Y-90832791D01*
X156093190Y-90832791D02*
X155997952Y-90928030D01*
X155997952Y-90928030D02*
X155807476Y-91023268D01*
X155807476Y-91023268D02*
X155521761Y-91023268D01*
D14*
D15*
X129140179Y-88033219D02*
X129140179Y-87033219D01*
X129140179Y-87033219D02*
X129378274Y-87033219D01*
X129378274Y-87033219D02*
X129521131Y-87080838D01*
X129521131Y-87080838D02*
X129616369Y-87176076D01*
X129616369Y-87176076D02*
X129663988Y-87271314D01*
X129663988Y-87271314D02*
X129711607Y-87461790D01*
X129711607Y-87461790D02*
X129711607Y-87604647D01*
X129711607Y-87604647D02*
X129663988Y-87795123D01*
X129663988Y-87795123D02*
X129616369Y-87890361D01*
X129616369Y-87890361D02*
X129521131Y-87985600D01*
X129521131Y-87985600D02*
X129378274Y-88033219D01*
X129378274Y-88033219D02*
X129140179Y-88033219D01*
X130521131Y-87985600D02*
X130425893Y-88033219D01*
X130425893Y-88033219D02*
X130235417Y-88033219D01*
X130235417Y-88033219D02*
X130140179Y-87985600D01*
X130140179Y-87985600D02*
X130092560Y-87890361D01*
X130092560Y-87890361D02*
X130092560Y-87509409D01*
X130092560Y-87509409D02*
X130140179Y-87414171D01*
X130140179Y-87414171D02*
X130235417Y-87366552D01*
X130235417Y-87366552D02*
X130425893Y-87366552D01*
X130425893Y-87366552D02*
X130521131Y-87414171D01*
X130521131Y-87414171D02*
X130568750Y-87509409D01*
X130568750Y-87509409D02*
X130568750Y-87604647D01*
X130568750Y-87604647D02*
X130092560Y-87699885D01*
X130902084Y-87366552D02*
X131140179Y-88033219D01*
X131140179Y-88033219D02*
X131378274Y-87366552D01*
X132140179Y-87985600D02*
X132044941Y-88033219D01*
X132044941Y-88033219D02*
X131854465Y-88033219D01*
X131854465Y-88033219D02*
X131759227Y-87985600D01*
X131759227Y-87985600D02*
X131711608Y-87890361D01*
X131711608Y-87890361D02*
X131711608Y-87509409D01*
X131711608Y-87509409D02*
X131759227Y-87414171D01*
X131759227Y-87414171D02*
X131854465Y-87366552D01*
X131854465Y-87366552D02*
X132044941Y-87366552D01*
X132044941Y-87366552D02*
X132140179Y-87414171D01*
X132140179Y-87414171D02*
X132187798Y-87509409D01*
X132187798Y-87509409D02*
X132187798Y-87604647D01*
X132187798Y-87604647D02*
X131711608Y-87699885D01*
X132759227Y-88033219D02*
X132663989Y-87985600D01*
X132663989Y-87985600D02*
X132616370Y-87890361D01*
X132616370Y-87890361D02*
X132616370Y-87033219D01*
X133283037Y-88033219D02*
X133187799Y-87985600D01*
X133187799Y-87985600D02*
X133140180Y-87937980D01*
X133140180Y-87937980D02*
X133092561Y-87842742D01*
X133092561Y-87842742D02*
X133092561Y-87557028D01*
X133092561Y-87557028D02*
X133140180Y-87461790D01*
X133140180Y-87461790D02*
X133187799Y-87414171D01*
X133187799Y-87414171D02*
X133283037Y-87366552D01*
X133283037Y-87366552D02*
X133425894Y-87366552D01*
X133425894Y-87366552D02*
X133521132Y-87414171D01*
X133521132Y-87414171D02*
X133568751Y-87461790D01*
X133568751Y-87461790D02*
X133616370Y-87557028D01*
X133616370Y-87557028D02*
X133616370Y-87842742D01*
X133616370Y-87842742D02*
X133568751Y-87937980D01*
X133568751Y-87937980D02*
X133521132Y-87985600D01*
X133521132Y-87985600D02*
X133425894Y-88033219D01*
X133425894Y-88033219D02*
X133283037Y-88033219D01*
X134044942Y-87366552D02*
X134044942Y-88366552D01*
X134044942Y-87414171D02*
X134140180Y-87366552D01*
X134140180Y-87366552D02*
X134330656Y-87366552D01*
X134330656Y-87366552D02*
X134425894Y-87414171D01*
X134425894Y-87414171D02*
X134473513Y-87461790D01*
X134473513Y-87461790D02*
X134521132Y-87557028D01*
X134521132Y-87557028D02*
X134521132Y-87842742D01*
X134521132Y-87842742D02*
X134473513Y-87937980D01*
X134473513Y-87937980D02*
X134425894Y-87985600D01*
X134425894Y-87985600D02*
X134330656Y-88033219D01*
X134330656Y-88033219D02*
X134140180Y-88033219D01*
X134140180Y-88033219D02*
X134044942Y-87985600D01*
X135330656Y-87985600D02*
X135235418Y-88033219D01*
X135235418Y-88033219D02*
X135044942Y-88033219D01*
X135044942Y-88033219D02*
X134949704Y-87985600D01*
X134949704Y-87985600D02*
X134902085Y-87890361D01*
X134902085Y-87890361D02*
X134902085Y-87509409D01*
X134902085Y-87509409D02*
X134949704Y-87414171D01*
X134949704Y-87414171D02*
X135044942Y-87366552D01*
X135044942Y-87366552D02*
X135235418Y-87366552D01*
X135235418Y-87366552D02*
X135330656Y-87414171D01*
X135330656Y-87414171D02*
X135378275Y-87509409D01*
X135378275Y-87509409D02*
X135378275Y-87604647D01*
X135378275Y-87604647D02*
X134902085Y-87699885D01*
X136235418Y-88033219D02*
X136235418Y-87033219D01*
X136235418Y-87985600D02*
X136140180Y-88033219D01*
X136140180Y-88033219D02*
X135949704Y-88033219D01*
X135949704Y-88033219D02*
X135854466Y-87985600D01*
X135854466Y-87985600D02*
X135806847Y-87937980D01*
X135806847Y-87937980D02*
X135759228Y-87842742D01*
X135759228Y-87842742D02*
X135759228Y-87557028D01*
X135759228Y-87557028D02*
X135806847Y-87461790D01*
X135806847Y-87461790D02*
X135854466Y-87414171D01*
X135854466Y-87414171D02*
X135949704Y-87366552D01*
X135949704Y-87366552D02*
X136140180Y-87366552D01*
X136140180Y-87366552D02*
X136235418Y-87414171D01*
X138092561Y-87557028D02*
X138044942Y-87509409D01*
X138044942Y-87509409D02*
X137949704Y-87461790D01*
X137949704Y-87461790D02*
X137854466Y-87461790D01*
X137854466Y-87461790D02*
X137759228Y-87509409D01*
X137759228Y-87509409D02*
X137711609Y-87557028D01*
X137711609Y-87557028D02*
X137663990Y-87652266D01*
X137663990Y-87652266D02*
X137663990Y-87747504D01*
X137663990Y-87747504D02*
X137711609Y-87842742D01*
X137711609Y-87842742D02*
X137759228Y-87890361D01*
X137759228Y-87890361D02*
X137854466Y-87937980D01*
X137854466Y-87937980D02*
X137949704Y-87937980D01*
X137949704Y-87937980D02*
X138044942Y-87890361D01*
X138044942Y-87890361D02*
X138092561Y-87842742D01*
X138092561Y-87461790D02*
X138092561Y-87842742D01*
X138092561Y-87842742D02*
X138140180Y-87890361D01*
X138140180Y-87890361D02*
X138187799Y-87890361D01*
X138187799Y-87890361D02*
X138283038Y-87842742D01*
X138283038Y-87842742D02*
X138330657Y-87747504D01*
X138330657Y-87747504D02*
X138330657Y-87509409D01*
X138330657Y-87509409D02*
X138235419Y-87366552D01*
X138235419Y-87366552D02*
X138092561Y-87271314D01*
X138092561Y-87271314D02*
X137902085Y-87223695D01*
X137902085Y-87223695D02*
X137711609Y-87271314D01*
X137711609Y-87271314D02*
X137568752Y-87366552D01*
X137568752Y-87366552D02*
X137473514Y-87509409D01*
X137473514Y-87509409D02*
X137425895Y-87699885D01*
X137425895Y-87699885D02*
X137473514Y-87890361D01*
X137473514Y-87890361D02*
X137568752Y-88033219D01*
X137568752Y-88033219D02*
X137711609Y-88128457D01*
X137711609Y-88128457D02*
X137902085Y-88176076D01*
X137902085Y-88176076D02*
X138092561Y-88128457D01*
X138092561Y-88128457D02*
X138235419Y-88033219D01*
X139092561Y-87509409D02*
X139235418Y-87557028D01*
X139235418Y-87557028D02*
X139283037Y-87604647D01*
X139283037Y-87604647D02*
X139330656Y-87699885D01*
X139330656Y-87699885D02*
X139330656Y-87842742D01*
X139330656Y-87842742D02*
X139283037Y-87937980D01*
X139283037Y-87937980D02*
X139235418Y-87985600D01*
X139235418Y-87985600D02*
X139140180Y-88033219D01*
X139140180Y-88033219D02*
X138759228Y-88033219D01*
X138759228Y-88033219D02*
X138759228Y-87033219D01*
X138759228Y-87033219D02*
X139092561Y-87033219D01*
X139092561Y-87033219D02*
X139187799Y-87080838D01*
X139187799Y-87080838D02*
X139235418Y-87128457D01*
X139235418Y-87128457D02*
X139283037Y-87223695D01*
X139283037Y-87223695D02*
X139283037Y-87318933D01*
X139283037Y-87318933D02*
X139235418Y-87414171D01*
X139235418Y-87414171D02*
X139187799Y-87461790D01*
X139187799Y-87461790D02*
X139092561Y-87509409D01*
X139092561Y-87509409D02*
X138759228Y-87509409D01*
X139759228Y-88033219D02*
X139759228Y-87366552D01*
X139759228Y-87557028D02*
X139806847Y-87461790D01*
X139806847Y-87461790D02*
X139854466Y-87414171D01*
X139854466Y-87414171D02*
X139949704Y-87366552D01*
X139949704Y-87366552D02*
X140044942Y-87366552D01*
X140378276Y-88033219D02*
X140378276Y-87366552D01*
X140378276Y-87033219D02*
X140330657Y-87080838D01*
X140330657Y-87080838D02*
X140378276Y-87128457D01*
X140378276Y-87128457D02*
X140425895Y-87080838D01*
X140425895Y-87080838D02*
X140378276Y-87033219D01*
X140378276Y-87033219D02*
X140378276Y-87128457D01*
X140854466Y-87366552D02*
X140854466Y-88033219D01*
X140854466Y-87461790D02*
X140902085Y-87414171D01*
X140902085Y-87414171D02*
X140997323Y-87366552D01*
X140997323Y-87366552D02*
X141140180Y-87366552D01*
X141140180Y-87366552D02*
X141235418Y-87414171D01*
X141235418Y-87414171D02*
X141283037Y-87509409D01*
X141283037Y-87509409D02*
X141283037Y-88033219D01*
X142187799Y-87366552D02*
X142187799Y-88176076D01*
X142187799Y-88176076D02*
X142140180Y-88271314D01*
X142140180Y-88271314D02*
X142092561Y-88318933D01*
X142092561Y-88318933D02*
X141997323Y-88366552D01*
X141997323Y-88366552D02*
X141854466Y-88366552D01*
X141854466Y-88366552D02*
X141759228Y-88318933D01*
X142187799Y-87985600D02*
X142092561Y-88033219D01*
X142092561Y-88033219D02*
X141902085Y-88033219D01*
X141902085Y-88033219D02*
X141806847Y-87985600D01*
X141806847Y-87985600D02*
X141759228Y-87937980D01*
X141759228Y-87937980D02*
X141711609Y-87842742D01*
X141711609Y-87842742D02*
X141711609Y-87557028D01*
X141711609Y-87557028D02*
X141759228Y-87461790D01*
X141759228Y-87461790D02*
X141806847Y-87414171D01*
X141806847Y-87414171D02*
X141902085Y-87366552D01*
X141902085Y-87366552D02*
X142092561Y-87366552D01*
X142092561Y-87366552D02*
X142187799Y-87414171D01*
X142521133Y-87033219D02*
X143092561Y-87033219D01*
X142806847Y-88033219D02*
X142806847Y-87033219D01*
X143425895Y-88033219D02*
X143425895Y-87033219D01*
X143854466Y-88033219D02*
X143854466Y-87509409D01*
X143854466Y-87509409D02*
X143806847Y-87414171D01*
X143806847Y-87414171D02*
X143711609Y-87366552D01*
X143711609Y-87366552D02*
X143568752Y-87366552D01*
X143568752Y-87366552D02*
X143473514Y-87414171D01*
X143473514Y-87414171D02*
X143425895Y-87461790D01*
X144711609Y-87985600D02*
X144616371Y-88033219D01*
X144616371Y-88033219D02*
X144425895Y-88033219D01*
X144425895Y-88033219D02*
X144330657Y-87985600D01*
X144330657Y-87985600D02*
X144283038Y-87890361D01*
X144283038Y-87890361D02*
X144283038Y-87509409D01*
X144283038Y-87509409D02*
X144330657Y-87414171D01*
X144330657Y-87414171D02*
X144425895Y-87366552D01*
X144425895Y-87366552D02*
X144616371Y-87366552D01*
X144616371Y-87366552D02*
X144711609Y-87414171D01*
X144711609Y-87414171D02*
X144759228Y-87509409D01*
X144759228Y-87509409D02*
X144759228Y-87604647D01*
X144759228Y-87604647D02*
X144283038Y-87699885D01*
X145187800Y-88033219D02*
X145187800Y-87033219D01*
X145187800Y-87033219D02*
X145759228Y-88033219D01*
X145759228Y-88033219D02*
X145759228Y-87033219D01*
X146378276Y-88033219D02*
X146283038Y-87985600D01*
X146283038Y-87985600D02*
X146235419Y-87937980D01*
X146235419Y-87937980D02*
X146187800Y-87842742D01*
X146187800Y-87842742D02*
X146187800Y-87557028D01*
X146187800Y-87557028D02*
X146235419Y-87461790D01*
X146235419Y-87461790D02*
X146283038Y-87414171D01*
X146283038Y-87414171D02*
X146378276Y-87366552D01*
X146378276Y-87366552D02*
X146521133Y-87366552D01*
X146521133Y-87366552D02*
X146616371Y-87414171D01*
X146616371Y-87414171D02*
X146663990Y-87461790D01*
X146663990Y-87461790D02*
X146711609Y-87557028D01*
X146711609Y-87557028D02*
X146711609Y-87842742D01*
X146711609Y-87842742D02*
X146663990Y-87937980D01*
X146663990Y-87937980D02*
X146616371Y-87985600D01*
X146616371Y-87985600D02*
X146521133Y-88033219D01*
X146521133Y-88033219D02*
X146378276Y-88033219D01*
X147140181Y-88033219D02*
X147140181Y-87366552D01*
X147140181Y-87033219D02*
X147092562Y-87080838D01*
X147092562Y-87080838D02*
X147140181Y-87128457D01*
X147140181Y-87128457D02*
X147187800Y-87080838D01*
X147187800Y-87080838D02*
X147140181Y-87033219D01*
X147140181Y-87033219D02*
X147140181Y-87128457D01*
X147568752Y-87985600D02*
X147663990Y-88033219D01*
X147663990Y-88033219D02*
X147854466Y-88033219D01*
X147854466Y-88033219D02*
X147949704Y-87985600D01*
X147949704Y-87985600D02*
X147997323Y-87890361D01*
X147997323Y-87890361D02*
X147997323Y-87842742D01*
X147997323Y-87842742D02*
X147949704Y-87747504D01*
X147949704Y-87747504D02*
X147854466Y-87699885D01*
X147854466Y-87699885D02*
X147711609Y-87699885D01*
X147711609Y-87699885D02*
X147616371Y-87652266D01*
X147616371Y-87652266D02*
X147568752Y-87557028D01*
X147568752Y-87557028D02*
X147568752Y-87509409D01*
X147568752Y-87509409D02*
X147616371Y-87414171D01*
X147616371Y-87414171D02*
X147711609Y-87366552D01*
X147711609Y-87366552D02*
X147854466Y-87366552D01*
X147854466Y-87366552D02*
X147949704Y-87414171D01*
X148806847Y-87985600D02*
X148711609Y-88033219D01*
X148711609Y-88033219D02*
X148521133Y-88033219D01*
X148521133Y-88033219D02*
X148425895Y-87985600D01*
X148425895Y-87985600D02*
X148378276Y-87890361D01*
X148378276Y-87890361D02*
X148378276Y-87509409D01*
X148378276Y-87509409D02*
X148425895Y-87414171D01*
X148425895Y-87414171D02*
X148521133Y-87366552D01*
X148521133Y-87366552D02*
X148711609Y-87366552D01*
X148711609Y-87366552D02*
X148806847Y-87414171D01*
X148806847Y-87414171D02*
X148854466Y-87509409D01*
X148854466Y-87509409D02*
X148854466Y-87604647D01*
X148854466Y-87604647D02*
X148378276Y-87699885D01*
X150044943Y-88033219D02*
X150044943Y-87033219D01*
X150044943Y-87509409D02*
X150616371Y-87509409D01*
X150616371Y-88033219D02*
X150616371Y-87033219D01*
X151521133Y-88033219D02*
X151521133Y-87509409D01*
X151521133Y-87509409D02*
X151473514Y-87414171D01*
X151473514Y-87414171D02*
X151378276Y-87366552D01*
X151378276Y-87366552D02*
X151187800Y-87366552D01*
X151187800Y-87366552D02*
X151092562Y-87414171D01*
X151521133Y-87985600D02*
X151425895Y-88033219D01*
X151425895Y-88033219D02*
X151187800Y-88033219D01*
X151187800Y-88033219D02*
X151092562Y-87985600D01*
X151092562Y-87985600D02*
X151044943Y-87890361D01*
X151044943Y-87890361D02*
X151044943Y-87795123D01*
X151044943Y-87795123D02*
X151092562Y-87699885D01*
X151092562Y-87699885D02*
X151187800Y-87652266D01*
X151187800Y-87652266D02*
X151425895Y-87652266D01*
X151425895Y-87652266D02*
X151521133Y-87604647D01*
X151997324Y-88033219D02*
X151997324Y-87366552D01*
X151997324Y-87461790D02*
X152044943Y-87414171D01*
X152044943Y-87414171D02*
X152140181Y-87366552D01*
X152140181Y-87366552D02*
X152283038Y-87366552D01*
X152283038Y-87366552D02*
X152378276Y-87414171D01*
X152378276Y-87414171D02*
X152425895Y-87509409D01*
X152425895Y-87509409D02*
X152425895Y-88033219D01*
X152425895Y-87509409D02*
X152473514Y-87414171D01*
X152473514Y-87414171D02*
X152568752Y-87366552D01*
X152568752Y-87366552D02*
X152711609Y-87366552D01*
X152711609Y-87366552D02*
X152806848Y-87414171D01*
X152806848Y-87414171D02*
X152854467Y-87509409D01*
X152854467Y-87509409D02*
X152854467Y-88033219D01*
X153330657Y-88033219D02*
X153330657Y-87033219D01*
X153330657Y-87414171D02*
X153425895Y-87366552D01*
X153425895Y-87366552D02*
X153616371Y-87366552D01*
X153616371Y-87366552D02*
X153711609Y-87414171D01*
X153711609Y-87414171D02*
X153759228Y-87461790D01*
X153759228Y-87461790D02*
X153806847Y-87557028D01*
X153806847Y-87557028D02*
X153806847Y-87842742D01*
X153806847Y-87842742D02*
X153759228Y-87937980D01*
X153759228Y-87937980D02*
X153711609Y-87985600D01*
X153711609Y-87985600D02*
X153616371Y-88033219D01*
X153616371Y-88033219D02*
X153425895Y-88033219D01*
X153425895Y-88033219D02*
X153330657Y-87985600D01*
X154663990Y-87366552D02*
X154663990Y-88033219D01*
X154235419Y-87366552D02*
X154235419Y-87890361D01*
X154235419Y-87890361D02*
X154283038Y-87985600D01*
X154283038Y-87985600D02*
X154378276Y-88033219D01*
X154378276Y-88033219D02*
X154521133Y-88033219D01*
X154521133Y-88033219D02*
X154616371Y-87985600D01*
X154616371Y-87985600D02*
X154663990Y-87937980D01*
X155140181Y-88033219D02*
X155140181Y-87366552D01*
X155140181Y-87557028D02*
X155187800Y-87461790D01*
X155187800Y-87461790D02*
X155235419Y-87414171D01*
X155235419Y-87414171D02*
X155330657Y-87366552D01*
X155330657Y-87366552D02*
X155425895Y-87366552D01*
X156187800Y-87366552D02*
X156187800Y-88176076D01*
X156187800Y-88176076D02*
X156140181Y-88271314D01*
X156140181Y-88271314D02*
X156092562Y-88318933D01*
X156092562Y-88318933D02*
X155997324Y-88366552D01*
X155997324Y-88366552D02*
X155854467Y-88366552D01*
X155854467Y-88366552D02*
X155759229Y-88318933D01*
X156187800Y-87985600D02*
X156092562Y-88033219D01*
X156092562Y-88033219D02*
X155902086Y-88033219D01*
X155902086Y-88033219D02*
X155806848Y-87985600D01*
X155806848Y-87985600D02*
X155759229Y-87937980D01*
X155759229Y-87937980D02*
X155711610Y-87842742D01*
X155711610Y-87842742D02*
X155711610Y-87557028D01*
X155711610Y-87557028D02*
X155759229Y-87461790D01*
X155759229Y-87461790D02*
X155806848Y-87414171D01*
X155806848Y-87414171D02*
X155902086Y-87366552D01*
X155902086Y-87366552D02*
X156092562Y-87366552D01*
X156092562Y-87366552D02*
X156187800Y-87414171D01*
D16*
D17*
X130148096Y-92943149D02*
X129814763Y-92466958D01*
X129576668Y-92943149D02*
X129576668Y-91943149D01*
X129576668Y-91943149D02*
X129957620Y-91943149D01*
X129957620Y-91943149D02*
X130052858Y-91990768D01*
X130052858Y-91990768D02*
X130100477Y-92038387D01*
X130100477Y-92038387D02*
X130148096Y-92133625D01*
X130148096Y-92133625D02*
X130148096Y-92276482D01*
X130148096Y-92276482D02*
X130100477Y-92371720D01*
X130100477Y-92371720D02*
X130052858Y-92419339D01*
X130052858Y-92419339D02*
X129957620Y-92466958D01*
X129957620Y-92466958D02*
X129576668Y-92466958D01*
X130957620Y-92895530D02*
X130862382Y-92943149D01*
X130862382Y-92943149D02*
X130671906Y-92943149D01*
X130671906Y-92943149D02*
X130576668Y-92895530D01*
X130576668Y-92895530D02*
X130529049Y-92800291D01*
X130529049Y-92800291D02*
X130529049Y-92419339D01*
X130529049Y-92419339D02*
X130576668Y-92324101D01*
X130576668Y-92324101D02*
X130671906Y-92276482D01*
X130671906Y-92276482D02*
X130862382Y-92276482D01*
X130862382Y-92276482D02*
X130957620Y-92324101D01*
X130957620Y-92324101D02*
X131005239Y-92419339D01*
X131005239Y-92419339D02*
X131005239Y-92514577D01*
X131005239Y-92514577D02*
X130529049Y-92609815D01*
X131338573Y-92276482D02*
X131576668Y-92943149D01*
X131576668Y-92943149D02*
X131814763Y-92276482D01*
X132195716Y-92943149D02*
X132195716Y-92276482D01*
X132195716Y-91943149D02*
X132148097Y-91990768D01*
X132148097Y-91990768D02*
X132195716Y-92038387D01*
X132195716Y-92038387D02*
X132243335Y-91990768D01*
X132243335Y-91990768D02*
X132195716Y-91943149D01*
X132195716Y-91943149D02*
X132195716Y-92038387D01*
X132624287Y-92895530D02*
X132719525Y-92943149D01*
X132719525Y-92943149D02*
X132910001Y-92943149D01*
X132910001Y-92943149D02*
X133005239Y-92895530D01*
X133005239Y-92895530D02*
X133052858Y-92800291D01*
X133052858Y-92800291D02*
X133052858Y-92752672D01*
X133052858Y-92752672D02*
X133005239Y-92657434D01*
X133005239Y-92657434D02*
X132910001Y-92609815D01*
X132910001Y-92609815D02*
X132767144Y-92609815D01*
X132767144Y-92609815D02*
X132671906Y-92562196D01*
X132671906Y-92562196D02*
X132624287Y-92466958D01*
X132624287Y-92466958D02*
X132624287Y-92419339D01*
X132624287Y-92419339D02*
X132671906Y-92324101D01*
X132671906Y-92324101D02*
X132767144Y-92276482D01*
X132767144Y-92276482D02*
X132910001Y-92276482D01*
X132910001Y-92276482D02*
X133005239Y-92324101D01*
X133481430Y-92943149D02*
X133481430Y-92276482D01*
X133481430Y-91943149D02*
X133433811Y-91990768D01*
X133433811Y-91990768D02*
X133481430Y-92038387D01*
X133481430Y-92038387D02*
X133529049Y-91990768D01*
X133529049Y-91990768D02*
X133481430Y-91943149D01*
X133481430Y-91943149D02*
X133481430Y-92038387D01*
X134100477Y-92943149D02*
X134005239Y-92895530D01*
X134005239Y-92895530D02*
X133957620Y-92847910D01*
X133957620Y-92847910D02*
X133910001Y-92752672D01*
X133910001Y-92752672D02*
X133910001Y-92466958D01*
X133910001Y-92466958D02*
X133957620Y-92371720D01*
X133957620Y-92371720D02*
X134005239Y-92324101D01*
X134005239Y-92324101D02*
X134100477Y-92276482D01*
X134100477Y-92276482D02*
X134243334Y-92276482D01*
X134243334Y-92276482D02*
X134338572Y-92324101D01*
X134338572Y-92324101D02*
X134386191Y-92371720D01*
X134386191Y-92371720D02*
X134433810Y-92466958D01*
X134433810Y-92466958D02*
X134433810Y-92752672D01*
X134433810Y-92752672D02*
X134386191Y-92847910D01*
X134386191Y-92847910D02*
X134338572Y-92895530D01*
X134338572Y-92895530D02*
X134243334Y-92943149D01*
X134243334Y-92943149D02*
X134100477Y-92943149D01*
X134862382Y-92276482D02*
X134862382Y-92943149D01*
X134862382Y-92371720D02*
X134910001Y-92324101D01*
X134910001Y-92324101D02*
X135005239Y-92276482D01*
X135005239Y-92276482D02*
X135148096Y-92276482D01*
X135148096Y-92276482D02*
X135243334Y-92324101D01*
X135243334Y-92324101D02*
X135290953Y-92419339D01*
X135290953Y-92419339D02*
X135290953Y-92943149D01*
X136481430Y-92038387D02*
X136529049Y-91990768D01*
X136529049Y-91990768D02*
X136624287Y-91943149D01*
X136624287Y-91943149D02*
X136862382Y-91943149D01*
X136862382Y-91943149D02*
X136957620Y-91990768D01*
X136957620Y-91990768D02*
X137005239Y-92038387D01*
X137005239Y-92038387D02*
X137052858Y-92133625D01*
X137052858Y-92133625D02*
X137052858Y-92228863D01*
X137052858Y-92228863D02*
X137005239Y-92371720D01*
X137005239Y-92371720D02*
X136433811Y-92943149D01*
X136433811Y-92943149D02*
X137052858Y-92943149D01*
X137671906Y-91943149D02*
X137767144Y-91943149D01*
X137767144Y-91943149D02*
X137862382Y-91990768D01*
X137862382Y-91990768D02*
X137910001Y-92038387D01*
X137910001Y-92038387D02*
X137957620Y-92133625D01*
X137957620Y-92133625D02*
X138005239Y-92324101D01*
X138005239Y-92324101D02*
X138005239Y-92562196D01*
X138005239Y-92562196D02*
X137957620Y-92752672D01*
X137957620Y-92752672D02*
X137910001Y-92847910D01*
X137910001Y-92847910D02*
X137862382Y-92895530D01*
X137862382Y-92895530D02*
X137767144Y-92943149D01*
X137767144Y-92943149D02*
X137671906Y-92943149D01*
X137671906Y-92943149D02*
X137576668Y-92895530D01*
X137576668Y-92895530D02*
X137529049Y-92847910D01*
X137529049Y-92847910D02*
X137481430Y-92752672D01*
X137481430Y-92752672D02*
X137433811Y-92562196D01*
X137433811Y-92562196D02*
X137433811Y-92324101D01*
X137433811Y-92324101D02*
X137481430Y-92133625D01*
X137481430Y-92133625D02*
X137529049Y-92038387D01*
X137529049Y-92038387D02*
X137576668Y-91990768D01*
X137576668Y-91990768D02*
X137671906Y-91943149D01*
X138386192Y-92038387D02*
X138433811Y-91990768D01*
X138433811Y-91990768D02*
X138529049Y-91943149D01*
X138529049Y-91943149D02*
X138767144Y-91943149D01*
X138767144Y-91943149D02*
X138862382Y-91990768D01*
X138862382Y-91990768D02*
X138910001Y-92038387D01*
X138910001Y-92038387D02*
X138957620Y-92133625D01*
X138957620Y-92133625D02*
X138957620Y-92228863D01*
X138957620Y-92228863D02*
X138910001Y-92371720D01*
X138910001Y-92371720D02*
X138338573Y-92943149D01*
X138338573Y-92943149D02*
X138957620Y-92943149D01*
X139814763Y-92276482D02*
X139814763Y-92943149D01*
X139576668Y-91895530D02*
X139338573Y-92609815D01*
X139338573Y-92609815D02*
X139957620Y-92609815D01*
X140529049Y-91943149D02*
X140624287Y-91943149D01*
X140624287Y-91943149D02*
X140719525Y-91990768D01*
X140719525Y-91990768D02*
X140767144Y-92038387D01*
X140767144Y-92038387D02*
X140814763Y-92133625D01*
X140814763Y-92133625D02*
X140862382Y-92324101D01*
X140862382Y-92324101D02*
X140862382Y-92562196D01*
X140862382Y-92562196D02*
X140814763Y-92752672D01*
X140814763Y-92752672D02*
X140767144Y-92847910D01*
X140767144Y-92847910D02*
X140719525Y-92895530D01*
X140719525Y-92895530D02*
X140624287Y-92943149D01*
X140624287Y-92943149D02*
X140529049Y-92943149D01*
X140529049Y-92943149D02*
X140433811Y-92895530D01*
X140433811Y-92895530D02*
X140386192Y-92847910D01*
X140386192Y-92847910D02*
X140338573Y-92752672D01*
X140338573Y-92752672D02*
X140290954Y-92562196D01*
X140290954Y-92562196D02*
X140290954Y-92324101D01*
X140290954Y-92324101D02*
X140338573Y-92133625D01*
X140338573Y-92133625D02*
X140386192Y-92038387D01*
X140386192Y-92038387D02*
X140433811Y-91990768D01*
X140433811Y-91990768D02*
X140529049Y-91943149D01*
X141814763Y-92943149D02*
X141243335Y-92943149D01*
X141529049Y-92943149D02*
X141529049Y-91943149D01*
X141529049Y-91943149D02*
X141433811Y-92086006D01*
X141433811Y-92086006D02*
X141338573Y-92181244D01*
X141338573Y-92181244D02*
X141243335Y-92228863D01*
X142433811Y-91943149D02*
X142529049Y-91943149D01*
X142529049Y-91943149D02*
X142624287Y-91990768D01*
X142624287Y-91990768D02*
X142671906Y-92038387D01*
X142671906Y-92038387D02*
X142719525Y-92133625D01*
X142719525Y-92133625D02*
X142767144Y-92324101D01*
X142767144Y-92324101D02*
X142767144Y-92562196D01*
X142767144Y-92562196D02*
X142719525Y-92752672D01*
X142719525Y-92752672D02*
X142671906Y-92847910D01*
X142671906Y-92847910D02*
X142624287Y-92895530D01*
X142624287Y-92895530D02*
X142529049Y-92943149D01*
X142529049Y-92943149D02*
X142433811Y-92943149D01*
X142433811Y-92943149D02*
X142338573Y-92895530D01*
X142338573Y-92895530D02*
X142290954Y-92847910D01*
X142290954Y-92847910D02*
X142243335Y-92752672D01*
X142243335Y-92752672D02*
X142195716Y-92562196D01*
X142195716Y-92562196D02*
X142195716Y-92324101D01*
X142195716Y-92324101D02*
X142243335Y-92133625D01*
X142243335Y-92133625D02*
X142290954Y-92038387D01*
X142290954Y-92038387D02*
X142338573Y-91990768D01*
X142338573Y-91990768D02*
X142433811Y-91943149D01*
X143386192Y-91943149D02*
X143481430Y-91943149D01*
X143481430Y-91943149D02*
X143576668Y-91990768D01*
X143576668Y-91990768D02*
X143624287Y-92038387D01*
X143624287Y-92038387D02*
X143671906Y-92133625D01*
X143671906Y-92133625D02*
X143719525Y-92324101D01*
X143719525Y-92324101D02*
X143719525Y-92562196D01*
X143719525Y-92562196D02*
X143671906Y-92752672D01*
X143671906Y-92752672D02*
X143624287Y-92847910D01*
X143624287Y-92847910D02*
X143576668Y-92895530D01*
X143576668Y-92895530D02*
X143481430Y-92943149D01*
X143481430Y-92943149D02*
X143386192Y-92943149D01*
X143386192Y-92943149D02*
X143290954Y-92895530D01*
X143290954Y-92895530D02*
X143243335Y-92847910D01*
X143243335Y-92847910D02*
X143195716Y-92752672D01*
X143195716Y-92752672D02*
X143148097Y-92562196D01*
X143148097Y-92562196D02*
X143148097Y-92324101D01*
X143148097Y-92324101D02*
X143195716Y-92133625D01*
X143195716Y-92133625D02*
X143243335Y-92038387D01*
X143243335Y-92038387D02*
X143290954Y-91990768D01*
X143290954Y-91990768D02*
X143386192Y-91943149D01*
X144671906Y-92943149D02*
X144100478Y-92943149D01*
X144386192Y-92943149D02*
X144386192Y-91943149D01*
X144386192Y-91943149D02*
X144290954Y-92086006D01*
X144290954Y-92086006D02*
X144195716Y-92181244D01*
X144195716Y-92181244D02*
X144100478Y-92228863D01*
D18*
%TO.P,R3,1*%
%TO.N,IN_13*%
X74168000Y-96013000D03*
%TO.P,R3,2*%
%TO.N,GND*%
X74168000Y-97663000D03*
%TD*%
D19*
%TO.P,J1,R*%
%TO.N,Net-(J1-PadR)*%
X162467000Y-51020000D03*
%TO.P,J1,S*%
%TO.N,unconnected-(J1-PadS)*%
X155067000Y-49020000D03*
D20*
%TO.P,J1,T*%
%TO.N,Net-(D1-A)*%
X155067000Y-58420000D03*
%TD*%
D21*
%TO.P,R23,1*%
%TO.N,MIDI_OUT_1*%
X110120000Y-62484000D03*
%TO.P,R23,2*%
%TO.N,Net-(J7-PadT)*%
X111770000Y-62484000D03*
%TD*%
%TO.P,R26,1*%
%TO.N,+5V*%
X103135000Y-62484000D03*
%TO.P,R26,2*%
%TO.N,Net-(J8-PadR)*%
X104785000Y-62484000D03*
%TD*%
D19*
%TO.P,J6,R*%
%TO.N,Net-(J6-PadR)*%
X128160000Y-51020000D03*
%TO.P,J6,S*%
%TO.N,GND*%
X120760000Y-49020000D03*
D20*
%TO.P,J6,T*%
%TO.N,Net-(J6-PadT)*%
X120760000Y-58420000D03*
%TD*%
D22*
%TO.P,SW1,A,A*%
%TO.N,IN_13*%
X106680000Y-74930000D03*
D23*
%TO.P,SW1,B,B*%
%TO.N,IN_14*%
X106680000Y-69930000D03*
%TO.P,SW1,C,C*%
%TO.N,+5V*%
X106680000Y-72430000D03*
D24*
%TO.P,SW1,MP*%
%TO.N,N/C*%
X99180000Y-78030000D03*
X99180000Y-66830000D03*
D23*
%TO.P,SW1,S1,S1*%
%TO.N,+5V*%
X92180000Y-69930000D03*
%TO.P,SW1,S2,S2*%
%TO.N,IN_12*%
X92180000Y-74930000D03*
%TD*%
D25*
%TO.P,R1,1*%
%TO.N,IN_15*%
X62280800Y-93850400D03*
%TO.P,R1,2*%
%TO.N,GND*%
X62280800Y-92200400D03*
%TD*%
%TO.P,R15,1*%
%TO.N,IN_2*%
X67564000Y-75628000D03*
%TO.P,R15,2*%
%TO.N,GND*%
X67564000Y-73978000D03*
%TD*%
D26*
%TO.P,J4,1,Pin_1*%
%TO.N,IN_9*%
X69850000Y-96520000D03*
D27*
%TO.P,J4,2,Pin_2*%
%TO.N,+5V*%
X69850000Y-99060000D03*
%TO.P,J4,3,Pin_3*%
%TO.N,IN_10*%
X67310000Y-96520000D03*
%TO.P,J4,4,Pin_4*%
%TO.N,+5V*%
X67310000Y-99060000D03*
%TO.P,J4,5,Pin_5*%
%TO.N,IN_11*%
X64770000Y-96520000D03*
%TO.P,J4,6,Pin_6*%
%TO.N,+5V*%
X64770000Y-99060000D03*
%TO.P,J4,7,Pin_7*%
%TO.N,IN_15*%
X62230000Y-96520000D03*
%TO.P,J4,8,Pin_8*%
%TO.N,+5V*%
X62230000Y-99060000D03*
%TD*%
D21*
%TO.P,R31,1*%
%TO.N,MIDI_OUT_4*%
X64370000Y-62611000D03*
%TO.P,R31,2*%
%TO.N,Net-(J12-PadT)*%
X66020000Y-62611000D03*
%TD*%
D26*
%TO.P,J3,1,Pin_1*%
%TO.N,IN_0*%
X62240000Y-70617000D03*
D27*
%TO.P,J3,2,Pin_2*%
%TO.N,+5V*%
X62240000Y-68077000D03*
%TO.P,J3,3,Pin_3*%
%TO.N,IN_1*%
X64780000Y-70617000D03*
%TO.P,J3,4,Pin_4*%
%TO.N,+5V*%
X64780000Y-68077000D03*
%TO.P,J3,5,Pin_5*%
%TO.N,IN_2*%
X67320000Y-70617000D03*
%TO.P,J3,6,Pin_6*%
%TO.N,+5V*%
X67320000Y-68077000D03*
%TO.P,J3,7,Pin_7*%
%TO.N,IN_3*%
X69860000Y-70617000D03*
%TO.P,J3,8,Pin_8*%
%TO.N,+5V*%
X69860000Y-68077000D03*
%TO.P,J3,9,Pin_9*%
%TO.N,IN_4*%
X72400000Y-70617000D03*
%TO.P,J3,10,Pin_10*%
%TO.N,+5V*%
X72400000Y-68077000D03*
%TO.P,J3,11,Pin_11*%
%TO.N,IN_5*%
X74940000Y-70617000D03*
%TO.P,J3,12,Pin_12*%
%TO.N,+5V*%
X74940000Y-68077000D03*
%TO.P,J3,13,Pin_13*%
%TO.N,IN_6*%
X77480000Y-70617000D03*
%TO.P,J3,14,Pin_14*%
%TO.N,+5V*%
X77480000Y-68077000D03*
%TO.P,J3,15,Pin_15*%
%TO.N,IN_7*%
X80020000Y-70617000D03*
%TO.P,J3,16,Pin_16*%
%TO.N,+5V*%
X80020000Y-68077000D03*
%TO.P,J3,17,Pin_17*%
%TO.N,IN_8*%
X82560000Y-70617000D03*
%TO.P,J3,18,Pin_18*%
%TO.N,+5V*%
X82560000Y-68077000D03*
%TD*%
D21*
%TO.P,R10,1*%
%TO.N,Net-(J1-PadR)*%
X161164000Y-62611000D03*
%TO.P,R10,2*%
%TO.N,Net-(D1-K)*%
X162814000Y-62611000D03*
%TD*%
D26*
%TO.P,J2,1,Pin_1*%
%TO.N,MISO*%
X127540000Y-97460000D03*
D27*
%TO.P,J2,2,Pin_2*%
%TO.N,+5V*%
X127540000Y-100000000D03*
%TO.P,J2,3,Pin_3*%
%TO.N,SCLK*%
X125000000Y-97460000D03*
%TO.P,J2,4,Pin_4*%
%TO.N,MIDI_RX*%
X125000000Y-100000000D03*
%TO.P,J2,5,Pin_5*%
%TO.N,RST*%
X122460000Y-97460000D03*
%TO.P,J2,6,Pin_6*%
%TO.N,GND*%
X122460000Y-100000000D03*
%TD*%
D28*
%TO.P,U2,1,OEa*%
%TO.N,GND*%
X123190000Y-67740000D03*
%TO.P,U2,2,I0a*%
%TO.N,MIDI_TX*%
X121920000Y-67740000D03*
%TO.P,U2,3,O3b*%
%TO.N,SYNC_OUT_1*%
X120650000Y-67740000D03*
%TO.P,U2,4,I1a*%
%TO.N,MIDI_TX*%
X119380000Y-67740000D03*
%TO.P,U2,5,O2b*%
%TO.N,SYNC_OUT_0*%
X118110000Y-67740000D03*
%TO.P,U2,6,I2a*%
%TO.N,MIDI_TX*%
X116840000Y-67740000D03*
%TO.P,U2,7,O1b*%
%TO.N,MIDI_OUT_5*%
X115570000Y-67740000D03*
%TO.P,U2,8,I3a*%
%TO.N,MIDI_TX*%
X114300000Y-67740000D03*
%TO.P,U2,9,O0b*%
%TO.N,MIDI_OUT_4*%
X113030000Y-67740000D03*
%TO.P,U2,10,GND*%
%TO.N,GND*%
X111760000Y-67740000D03*
%TO.P,U2,11,I0b*%
%TO.N,MIDI_TX*%
X111760000Y-77040000D03*
%TO.P,U2,12,O3a*%
%TO.N,MIDI_OUT_3*%
X113030000Y-77040000D03*
%TO.P,U2,13,I1b*%
%TO.N,MIDI_TX*%
X114300000Y-77040000D03*
%TO.P,U2,14,O2a*%
%TO.N,MIDI_OUT_2*%
X115570000Y-77040000D03*
%TO.P,U2,15,I2b*%
%TO.N,SYNC_TX*%
X116840000Y-77040000D03*
%TO.P,U2,16,O1a*%
%TO.N,MIDI_OUT_1*%
X118110000Y-77040000D03*
%TO.P,U2,17,I3b*%
%TO.N,SYNC_TX*%
X119380000Y-77040000D03*
%TO.P,U2,18,O0a*%
%TO.N,MIDI_OUT_0*%
X120650000Y-77040000D03*
%TO.P,U2,19,OEb*%
%TO.N,+5V*%
X121920000Y-77040000D03*
%TO.P,U2,20,VCC*%
X123190000Y-77040000D03*
%TD*%
D25*
%TO.P,R9,1*%
%TO.N,IN_7*%
X82550000Y-75438000D03*
%TO.P,R9,2*%
%TO.N,GND*%
X82550000Y-73788000D03*
%TD*%
%TO.P,R12,1*%
%TO.N,IN_5*%
X76581000Y-75501000D03*
%TO.P,R12,2*%
%TO.N,GND*%
X76581000Y-73851000D03*
%TD*%
D21*
%TO.P,R19,1*%
%TO.N,MIDI_RX*%
X159665400Y-74320400D03*
%TO.P,R19,2*%
%TO.N,Net-(R19-Pad2)*%
X161315400Y-74320400D03*
%TD*%
D29*
%TO.P,C1,1*%
%TO.N,+5V*%
X125095000Y-76480000D03*
%TO.P,C1,2*%
%TO.N,GND*%
X125095000Y-74930000D03*
%TD*%
D19*
%TO.P,J15,R*%
%TO.N,unconnected-(J15-PadR)*%
X151037000Y-51020000D03*
%TO.P,J15,S*%
%TO.N,GND*%
X143637000Y-49020000D03*
D20*
%TO.P,J15,T*%
%TO.N,Net-(J15-PadT)*%
X143637000Y-58420000D03*
%TD*%
D21*
%TO.P,R21,1*%
%TO.N,MIDI_OUT_0*%
X122160000Y-62484000D03*
%TO.P,R21,2*%
%TO.N,Net-(J6-PadT)*%
X123810000Y-62484000D03*
%TD*%
D25*
%TO.P,R5,1*%
%TO.N,IN_11*%
X65278000Y-93726000D03*
%TO.P,R5,2*%
%TO.N,GND*%
X65278000Y-92076000D03*
%TD*%
D21*
%TO.P,R25,1*%
%TO.N,MIDI_OUT_2*%
X99315000Y-62484000D03*
%TO.P,R25,2*%
%TO.N,Net-(J8-PadT)*%
X100965000Y-62484000D03*
%TD*%
D18*
%TO.P,R28,1*%
%TO.N,Net-(R27-Pad1)*%
X59055000Y-92810000D03*
%TO.P,R28,2*%
%TO.N,LED_DATA*%
X59055000Y-94460000D03*
%TD*%
D21*
%TO.P,R29,1*%
%TO.N,MIDI_OUT_3*%
X87895000Y-62484000D03*
%TO.P,R29,2*%
%TO.N,Net-(J11-PadT)*%
X89545000Y-62484000D03*
%TD*%
D25*
%TO.P,R16,1*%
%TO.N,IN_1*%
X64516000Y-75628000D03*
%TO.P,R16,2*%
%TO.N,GND*%
X64516000Y-73978000D03*
%TD*%
D21*
%TO.P,R33,1*%
%TO.N,MIDI_OUT_5*%
X75800000Y-62484000D03*
%TO.P,R33,2*%
%TO.N,Net-(J13-PadT)*%
X77450000Y-62484000D03*
%TD*%
D25*
%TO.P,R27,1*%
%TO.N,Net-(R27-Pad1)*%
X59055000Y-91122000D03*
%TO.P,R27,2*%
%TO.N,Net-(J9-Pin_2)*%
X59055000Y-89472000D03*
%TD*%
%TO.P,R13,1*%
%TO.N,IN_4*%
X73660000Y-75502000D03*
%TO.P,R13,2*%
%TO.N,GND*%
X73660000Y-73852000D03*
%TD*%
D21*
%TO.P,R34,1*%
%TO.N,+5V*%
X79610000Y-62484000D03*
%TO.P,R34,2*%
%TO.N,Net-(J13-PadR)*%
X81260000Y-62484000D03*
%TD*%
D25*
%TO.P,R17,1*%
%TO.N,IN_0*%
X61341000Y-75628000D03*
%TO.P,R17,2*%
%TO.N,GND*%
X61341000Y-73978000D03*
%TD*%
D18*
%TO.P,R8,1*%
%TO.N,IN_8*%
X80137000Y-90679000D03*
%TO.P,R8,2*%
%TO.N,GND*%
X80137000Y-92329000D03*
%TD*%
D21*
%TO.P,R30,1*%
%TO.N,+5V*%
X91705000Y-62484000D03*
%TO.P,R30,2*%
%TO.N,Net-(J11-PadR)*%
X93355000Y-62484000D03*
%TD*%
D30*
%TO.P,U3,1,NC*%
%TO.N,unconnected-(U3-NC-Pad1)*%
X147955000Y-69215000D03*
%TO.P,U3,2,C1*%
%TO.N,Net-(D1-K)*%
X147955000Y-71755000D03*
%TO.P,U3,3,C2*%
%TO.N,Net-(D1-A)*%
X147955000Y-74295000D03*
%TO.P,U3,4,NC*%
%TO.N,unconnected-(U3-NC-Pad4)*%
X147955000Y-76835000D03*
%TO.P,U3,5,GND*%
%TO.N,GND*%
X157005000Y-76835000D03*
%TO.P,U3,6,VO2*%
%TO.N,MIDI_RX*%
X157005000Y-74295000D03*
%TO.P,U3,7,VO1*%
%TO.N,Net-(U3-VO1)*%
X157005000Y-71755000D03*
%TO.P,U3,8,VCC*%
%TO.N,+5V*%
X157005000Y-69215000D03*
%TD*%
D28*
%TO.P,U1,1,COM*%
%TO.N,DEMUX*%
X78105000Y-78535000D03*
%TO.P,U1,2,I7*%
%TO.N,IN_7*%
X76835000Y-78535000D03*
%TO.P,U1,3,I6*%
%TO.N,IN_6*%
X75565000Y-78535000D03*
%TO.P,U1,4,I5*%
%TO.N,IN_5*%
X74295000Y-78535000D03*
%TO.P,U1,5,I4*%
%TO.N,IN_4*%
X73025000Y-78535000D03*
%TO.P,U1,6,I3*%
%TO.N,IN_3*%
X71755000Y-78535000D03*
%TO.P,U1,7,I2*%
%TO.N,IN_2*%
X70485000Y-78535000D03*
%TO.P,U1,8,I1*%
%TO.N,IN_1*%
X69215000Y-78535000D03*
%TO.P,U1,9,I0*%
%TO.N,IN_0*%
X67945000Y-78535000D03*
%TO.P,U1,10,S0*%
%TO.N,S0*%
X66675000Y-78535000D03*
%TO.P,U1,11,S1*%
%TO.N,S1*%
X65405000Y-78535000D03*
%TO.P,U1,12,GND*%
%TO.N,GND*%
X64135000Y-78535000D03*
%TO.P,U1,13,S3*%
%TO.N,S3*%
X64135000Y-87835000D03*
%TO.P,U1,14,S2*%
%TO.N,S2*%
X65405000Y-87835000D03*
%TO.P,U1,15,~{E}*%
%TO.N,GND*%
X66675000Y-87835000D03*
%TO.P,U1,16,I15*%
%TO.N,IN_15*%
X67945000Y-87835000D03*
%TO.P,U1,17,I14*%
%TO.N,IN_14*%
X69215000Y-87835000D03*
%TO.P,U1,18,I13*%
%TO.N,IN_13*%
X70485000Y-87835000D03*
%TO.P,U1,19,I12*%
%TO.N,IN_12*%
X71755000Y-87835000D03*
%TO.P,U1,20,I11*%
%TO.N,IN_11*%
X73025000Y-87835000D03*
%TO.P,U1,21,I10*%
%TO.N,IN_10*%
X74295000Y-87835000D03*
%TO.P,U1,22,I9*%
%TO.N,IN_9*%
X75565000Y-87835000D03*
%TO.P,U1,23,I8*%
%TO.N,IN_8*%
X76835000Y-87835000D03*
%TO.P,U1,24,VCC*%
%TO.N,+5V*%
X78105000Y-87835000D03*
%TD*%
D31*
%TO.P,R20,1*%
%TO.N,Net-(R19-Pad2)*%
X161315400Y-69240400D03*
%TO.P,R20,2*%
%TO.N,+5V*%
X159665400Y-69240400D03*
%TD*%
D19*
%TO.P,J14,R*%
%TO.N,unconnected-(J14-PadR)*%
X139607000Y-51020000D03*
%TO.P,J14,S*%
%TO.N,GND*%
X132207000Y-49020000D03*
D20*
%TO.P,J14,T*%
%TO.N,Net-(J14-PadT)*%
X132207000Y-58420000D03*
%TD*%
D19*
%TO.P,J12,R*%
%TO.N,Net-(J12-PadR)*%
X71010000Y-51050000D03*
%TO.P,J12,S*%
%TO.N,GND*%
X63610000Y-49050000D03*
D20*
%TO.P,J12,T*%
%TO.N,Net-(J12-PadT)*%
X63610000Y-58450000D03*
%TD*%
D18*
%TO.P,R4,1*%
%TO.N,IN_12*%
X74295000Y-92012000D03*
%TO.P,R4,2*%
%TO.N,GND*%
X74295000Y-93662000D03*
%TD*%
D21*
%TO.P,R22,1*%
%TO.N,+5V*%
X125390000Y-62484000D03*
%TO.P,R22,2*%
%TO.N,Net-(J6-PadR)*%
X127040000Y-62484000D03*
%TD*%
D25*
%TO.P,R11,1*%
%TO.N,IN_6*%
X79629000Y-75438000D03*
%TO.P,R11,2*%
%TO.N,GND*%
X79629000Y-73788000D03*
%TD*%
D26*
%TO.P,J9,1,Pin_1*%
%TO.N,GND*%
X60960000Y-80645000D03*
D27*
%TO.P,J9,2,Pin_2*%
%TO.N,Net-(J9-Pin_2)*%
X60960000Y-83185000D03*
%TO.P,J9,3,Pin_3*%
%TO.N,+5V*%
X60960000Y-85725000D03*
%TD*%
D21*
%TO.P,R35,1*%
%TO.N,SYNC_OUT_0*%
X135128000Y-62484000D03*
%TO.P,R35,2*%
%TO.N,Net-(J14-PadT)*%
X136778000Y-62484000D03*
%TD*%
D32*
%TO.P,J5,1,Pin_1*%
%TO.N,unconnected-(J5-Pin_1-Pad1)*%
X116210000Y-83815000D03*
D33*
%TO.P,J5,2,Pin_2*%
%TO.N,unconnected-(J5-Pin_2-Pad2)*%
X113670000Y-83815000D03*
%TO.P,J5,3,Pin_3*%
%TO.N,GND*%
X111130000Y-83815000D03*
%TO.P,J5,4,Pin_4*%
X108590000Y-83815000D03*
%TO.P,J5,5,Pin_5*%
%TO.N,SDA*%
X106050000Y-83815000D03*
%TO.P,J5,6,Pin_6*%
%TO.N,SCL*%
X103510000Y-83815000D03*
%TO.P,J5,7,Pin_7*%
%TO.N,unconnected-(J5-Pin_7-Pad7)*%
X100970000Y-83815000D03*
%TO.P,J5,8,Pin_8*%
%TO.N,unconnected-(J5-Pin_8-Pad8)*%
X98430000Y-83815000D03*
%TO.P,J5,9,Pin_9*%
%TO.N,S0*%
X95890000Y-83815000D03*
%TO.P,J5,10,Pin_10*%
%TO.N,S1*%
X93350000Y-83815000D03*
%TO.P,J5,11,Pin_11*%
%TO.N,S2*%
X90810000Y-83815000D03*
%TO.P,J5,12,Pin_12*%
%TO.N,S3*%
X88270000Y-83815000D03*
%TO.P,J5,13,Pin_13*%
%TO.N,LED_DATA*%
X88270000Y-99055000D03*
%TO.P,J5,14,Pin_14*%
%TO.N,MIDI_RX*%
X90810000Y-99055000D03*
%TO.P,J5,15,Pin_15*%
%TO.N,MISO*%
X93350000Y-99055000D03*
%TO.P,J5,16,Pin_16*%
%TO.N,SCLK*%
X95890000Y-99055000D03*
%TO.P,J5,17,Pin_17*%
%TO.N,DEMUX*%
X98430000Y-99055000D03*
%TO.P,J5,18,Pin_18*%
%TO.N,unconnected-(J5-Pin_18-Pad18)*%
X100970000Y-99055000D03*
%TO.P,J5,19,Pin_19*%
%TO.N,SYNC_TX*%
X103510000Y-99055000D03*
%TO.P,J5,20,Pin_20*%
%TO.N,MIDI_TX*%
X106050000Y-99055000D03*
%TO.P,J5,21,Pin_21*%
%TO.N,+5V*%
X108590000Y-99055000D03*
%TO.P,J5,22,Pin_22*%
%TO.N,RST*%
X111130000Y-99055000D03*
%TO.P,J5,23,Pin_23*%
%TO.N,GND*%
X113670000Y-99055000D03*
%TO.P,J5,24,Pin_24*%
%TO.N,unconnected-(J5-Pin_24-Pad24)*%
X116210000Y-99055000D03*
%TD*%
D21*
%TO.P,R36,1*%
%TO.N,SYNC_OUT_1*%
X146332000Y-62484000D03*
%TO.P,R36,2*%
%TO.N,Net-(J15-PadT)*%
X147982000Y-62484000D03*
%TD*%
D18*
%TO.P,R2,1*%
%TO.N,IN_14*%
X71247000Y-92012000D03*
%TO.P,R2,2*%
%TO.N,GND*%
X71247000Y-93662000D03*
%TD*%
D21*
%TO.P,R24,1*%
%TO.N,+5V*%
X113919000Y-62484000D03*
%TO.P,R24,2*%
%TO.N,Net-(J7-PadR)*%
X115569000Y-62484000D03*
%TD*%
D19*
%TO.P,J8,R*%
%TO.N,Net-(J8-PadR)*%
X105300000Y-51020000D03*
%TO.P,J8,S*%
%TO.N,GND*%
X97900000Y-49020000D03*
D20*
%TO.P,J8,T*%
%TO.N,Net-(J8-PadT)*%
X97900000Y-58420000D03*
%TD*%
D25*
%TO.P,R6,1*%
%TO.N,IN_10*%
X68326000Y-93662000D03*
%TO.P,R6,2*%
%TO.N,GND*%
X68326000Y-92012000D03*
%TD*%
D29*
%TO.P,C2,1*%
%TO.N,+5V*%
X80010000Y-86820000D03*
%TO.P,C2,2*%
%TO.N,GND*%
X80010000Y-85270000D03*
%TD*%
D19*
%TO.P,J7,R*%
%TO.N,Net-(J7-PadR)*%
X116730000Y-51020000D03*
%TO.P,J7,S*%
%TO.N,GND*%
X109330000Y-49020000D03*
D20*
%TO.P,J7,T*%
%TO.N,Net-(J7-PadT)*%
X109330000Y-58420000D03*
%TD*%
D25*
%TO.P,R14,1*%
%TO.N,IN_3*%
X70612000Y-75629000D03*
%TO.P,R14,2*%
%TO.N,GND*%
X70612000Y-73979000D03*
%TD*%
D19*
%TO.P,J11,R*%
%TO.N,Net-(J11-PadR)*%
X93870000Y-51050000D03*
%TO.P,J11,S*%
%TO.N,GND*%
X86470000Y-49050000D03*
D20*
%TO.P,J11,T*%
%TO.N,Net-(J11-PadT)*%
X86470000Y-58450000D03*
%TD*%
D34*
%TO.P,D1,1,K*%
%TO.N,Net-(D1-K)*%
X155830000Y-63119000D03*
%TO.P,D1,2,A*%
%TO.N,Net-(D1-A)*%
X159130000Y-63119000D03*
%TD*%
D18*
%TO.P,R7,1*%
%TO.N,IN_9*%
X77216000Y-90679000D03*
%TO.P,R7,2*%
%TO.N,GND*%
X77216000Y-92329000D03*
%TD*%
D21*
%TO.P,R32,1*%
%TO.N,+5V*%
X68180000Y-62611000D03*
%TO.P,R32,2*%
%TO.N,Net-(J12-PadR)*%
X69830000Y-62611000D03*
%TD*%
%TO.P,R18,1*%
%TO.N,Net-(U3-VO1)*%
X159665400Y-71780400D03*
%TO.P,R18,2*%
%TO.N,GND*%
X161315400Y-71780400D03*
%TD*%
D26*
%TO.P,J10,1,Pin_1*%
%TO.N,GND*%
X133350000Y-67945000D03*
D27*
%TO.P,J10,2,Pin_2*%
%TO.N,+5V*%
X135890000Y-67945000D03*
%TO.P,J10,3,Pin_3*%
%TO.N,SCL*%
X138430000Y-67945000D03*
%TO.P,J10,4,Pin_4*%
%TO.N,SDA*%
X140970000Y-67945000D03*
%TD*%
D19*
%TO.P,J13,R*%
%TO.N,Net-(J13-PadR)*%
X82440000Y-51050000D03*
%TO.P,J13,S*%
%TO.N,GND*%
X75040000Y-49050000D03*
D20*
%TO.P,J13,T*%
%TO.N,Net-(J13-PadT)*%
X75040000Y-58450000D03*
%TD*%
D35*
%TO.N,*%
X55000000Y-98000000D03*
X167000000Y-48000000D03*
X55000000Y-48000000D03*
X167000000Y-98000000D03*
D36*
%TO.N,GND*%
X122555000Y-65405000D03*
X74295000Y-53213000D03*
X126720600Y-73660000D03*
X64770000Y-83058000D03*
X68998500Y-73152000D03*
X83820000Y-73152000D03*
X80899000Y-73152000D03*
X62738000Y-73152000D03*
X65532000Y-72898000D03*
X71919500Y-73152000D03*
X131572000Y-53340000D03*
X97282000Y-53340000D03*
X74803000Y-90424000D03*
X109982000Y-67437000D03*
X108712000Y-53340000D03*
X143002000Y-53213000D03*
X85852000Y-53340000D03*
X62611000Y-89662000D03*
X77888500Y-73152000D03*
X69215000Y-91059000D03*
X78613000Y-94234000D03*
X62865000Y-53340000D03*
X116000000Y-96000000D03*
X159893000Y-77470000D03*
X83185000Y-86106500D03*
X74840500Y-73152000D03*
X66421000Y-90932000D03*
X120142000Y-53340000D03*
%TO.N,IN_8*%
X86614000Y-76352400D03*
X86004400Y-70510400D03*
%TO.N,IN_10*%
X69850000Y-93853000D03*
X75602500Y-94361000D03*
%TO.N,IN_11*%
X66802000Y-92202000D03*
X73660000Y-89916000D03*
%TO.N,S0*%
X66675000Y-80645000D03*
X83185000Y-80645000D03*
%TO.N,S1*%
X65405000Y-81915000D03*
X82169000Y-81407000D03*
%TO.N,S2*%
X81280000Y-83185000D03*
X66675000Y-83820000D03*
%TO.N,S3*%
X82550000Y-83820000D03*
X64770000Y-85090000D03*
%TO.N,DEMUX*%
X80137000Y-77724000D03*
X97409000Y-101092000D03*
%TO.N,SYNC_TX*%
X104775000Y-101092000D03*
X116205000Y-79375000D03*
%TO.N,MIDI_TX*%
X121285000Y-73025000D03*
X116205000Y-73660000D03*
X109855000Y-79375000D03*
X106680000Y-100965000D03*
%TO.N,SYNC_OUT_0*%
X117856000Y-63881000D03*
X127381000Y-63881000D03*
%TO.N,SYNC_OUT_1*%
X120650000Y-70866000D03*
X127000000Y-70866000D03*
%TD*%
D37*
%TO.N,+5V*%
X68180000Y-62611000D02*
X68980000Y-63411000D01*
X103935000Y-63284000D02*
X103135000Y-62484000D01*
X60960000Y-97790000D02*
X62230000Y-99060000D01*
X93772462Y-63284000D02*
X95250000Y-61806462D01*
X121920000Y-77040000D02*
X123190000Y-77040000D01*
X92505000Y-63284000D02*
X93772462Y-63284000D01*
X114719000Y-63284000D02*
X116548000Y-63284000D01*
X143246396Y-71746792D02*
X146785204Y-75285600D01*
X108590000Y-99055000D02*
X108590000Y-100960000D01*
X88900000Y-86831000D02*
X80476000Y-86831000D01*
X123750000Y-76480000D02*
X123190000Y-77040000D01*
X157005000Y-69215000D02*
X159640000Y-69215000D01*
X106680000Y-72430000D02*
X108005000Y-73755000D01*
X80410000Y-63284000D02*
X79610000Y-62484000D01*
X72390000Y-57840380D02*
X74350380Y-55880000D01*
X97015000Y-84595000D02*
X94779000Y-86831000D01*
X108005000Y-73755000D02*
X108005000Y-78550305D01*
X80020000Y-68077000D02*
X82560000Y-68077000D01*
X85780380Y-55880000D02*
X84745000Y-56915380D01*
X91502604Y-102325000D02*
X89395000Y-100217396D01*
X72390000Y-61268462D02*
X72390000Y-57840380D01*
X135890000Y-71305000D02*
X132969000Y-74226000D01*
X108005000Y-76064620D02*
X102795318Y-81274302D01*
X80115000Y-61979000D02*
X80115000Y-56792588D01*
X75243878Y-99060000D02*
X79053878Y-95250000D01*
X66085000Y-59630000D02*
X66085000Y-57195000D01*
X90880000Y-55880000D02*
X85780380Y-55880000D01*
X103135000Y-60387412D02*
X103135000Y-62484000D01*
X79053878Y-95250000D02*
X89395000Y-95250000D01*
X113919000Y-62484000D02*
X114719000Y-63284000D01*
X125215000Y-102325000D02*
X107225000Y-102325000D01*
X84745000Y-61178000D02*
X82639000Y-63284000D01*
X106680000Y-57810380D02*
X106680000Y-61806462D01*
X95250000Y-57810380D02*
X96447792Y-56612588D01*
X67310000Y-99060000D02*
X69850000Y-99060000D01*
X62230000Y-99060000D02*
X64770000Y-99060000D01*
X77480000Y-68077000D02*
X80020000Y-68077000D01*
X93505000Y-68605000D02*
X107228834Y-68605000D01*
X113930000Y-59760380D02*
X110557620Y-56388000D01*
X127540000Y-100000000D02*
X125215000Y-102325000D01*
X121487588Y-55880000D02*
X125390000Y-59782412D01*
X96447792Y-56612588D02*
X99360176Y-56612588D01*
X107228834Y-68605000D02*
X108005000Y-69381166D01*
X69860000Y-68077000D02*
X72400000Y-68077000D01*
X119035000Y-60797000D02*
X119035000Y-56885380D01*
X92180000Y-69930000D02*
X93505000Y-68605000D01*
X89395000Y-95250000D02*
X89395000Y-87326000D01*
X146785204Y-75285600D02*
X150934400Y-75285600D01*
X79202412Y-55880000D02*
X80115000Y-56792588D01*
X65615000Y-56725000D02*
X58845000Y-56725000D01*
X58420000Y-64257000D02*
X62240000Y-68077000D01*
X91705000Y-56705000D02*
X90880000Y-55880000D01*
X69850000Y-99060000D02*
X75243878Y-99060000D01*
X84745000Y-56915380D02*
X84745000Y-61178000D01*
X89395000Y-87326000D02*
X88900000Y-86831000D01*
X68980000Y-63411000D02*
X70247462Y-63411000D01*
X108102380Y-56388000D02*
X106680000Y-57810380D01*
X68180000Y-61725000D02*
X68180000Y-62230000D01*
X60960000Y-85725000D02*
X60960000Y-97790000D01*
X135890000Y-67945000D02*
X137795000Y-66040000D01*
X159640000Y-69215000D02*
X159665400Y-69240400D01*
X102795318Y-81274302D02*
X99096820Y-81274302D01*
X95250000Y-61806462D02*
X95250000Y-57810380D01*
X108005000Y-78550305D02*
X109554695Y-80100000D01*
X72400000Y-68077000D02*
X74940000Y-68077000D01*
X58845000Y-56725000D02*
X58420000Y-57150000D01*
X82560000Y-68077000D02*
X90327000Y-68077000D01*
X70247462Y-63411000D02*
X72390000Y-61268462D01*
X116548000Y-63284000D02*
X119035000Y-60797000D01*
X135890000Y-67945000D02*
X135890000Y-71305000D01*
X121920000Y-78065000D02*
X121920000Y-77040000D01*
X66085000Y-59630000D02*
X68180000Y-61725000D01*
X110557620Y-56388000D02*
X108102380Y-56388000D01*
X80010000Y-86995000D02*
X79170000Y-87835000D01*
X90327000Y-68077000D02*
X92180000Y-69930000D01*
X99360176Y-56612588D02*
X103135000Y-60387412D01*
X99096820Y-81274302D02*
X97015000Y-83356122D01*
X64780000Y-68077000D02*
X67320000Y-68077000D01*
X108005000Y-73755000D02*
X108005000Y-76064620D01*
X58420000Y-57150000D02*
X58420000Y-64257000D01*
X113919000Y-62484000D02*
X113919000Y-59771380D01*
X74350380Y-55880000D02*
X79202412Y-55880000D01*
X118017208Y-80100000D02*
X119377208Y-78740000D01*
X119377208Y-78740000D02*
X121245000Y-78740000D01*
X132969000Y-74226000D02*
X129355000Y-74226000D01*
X125095000Y-76480000D02*
X123750000Y-76480000D01*
X107225000Y-102325000D02*
X91502604Y-102325000D01*
X64770000Y-99060000D02*
X67310000Y-99060000D01*
X97015000Y-83356122D02*
X97015000Y-84595000D01*
X67320000Y-68077000D02*
X69860000Y-68077000D01*
X143246396Y-66040000D02*
X143246396Y-71746792D01*
X79170000Y-87835000D02*
X78105000Y-87835000D01*
X109554695Y-80100000D02*
X118017208Y-80100000D01*
X89395000Y-100217396D02*
X89395000Y-95250000D01*
X125390000Y-59782412D02*
X125390000Y-62230000D01*
X108005000Y-71105000D02*
X106680000Y-72430000D01*
X119035000Y-56885380D02*
X120040380Y-55880000D01*
X137795000Y-66040000D02*
X143246396Y-66040000D01*
X106680000Y-61806462D02*
X105202462Y-63284000D01*
X108590000Y-100960000D02*
X107225000Y-102325000D01*
X120040380Y-55880000D02*
X121487588Y-55880000D01*
X127101000Y-76480000D02*
X125095000Y-76480000D01*
X129355000Y-74226000D02*
X127101000Y-76480000D01*
X74940000Y-68077000D02*
X77480000Y-68077000D01*
X82639000Y-63284000D02*
X80410000Y-63284000D01*
X108005000Y-69381166D02*
X108005000Y-71105000D01*
X91705000Y-62484000D02*
X92505000Y-63284000D01*
X66085000Y-57195000D02*
X65615000Y-56725000D01*
X150934400Y-75285600D02*
X157005000Y-69215000D01*
X121245000Y-78740000D02*
X121920000Y-78065000D01*
X105202462Y-63284000D02*
X103935000Y-63284000D01*
X113919000Y-59771380D02*
X113930000Y-59760380D01*
X94779000Y-86831000D02*
X88900000Y-86831000D01*
X62240000Y-68077000D02*
X64780000Y-68077000D01*
X79610000Y-62484000D02*
X80115000Y-61979000D01*
X91705000Y-62484000D02*
X91705000Y-56705000D01*
%TO.N,GND*%
X74295000Y-93662000D02*
X74295000Y-94488000D01*
X132207000Y-49020000D02*
X132207000Y-52578000D01*
X83184000Y-73788000D02*
X82550000Y-73788000D01*
X75040000Y-52468000D02*
X74295000Y-53213000D01*
X83185000Y-86106500D02*
X82348500Y-85270000D01*
X109330000Y-52595000D02*
X108712000Y-53340000D01*
X83820000Y-73152000D02*
X83184000Y-73788000D01*
X111457000Y-67437000D02*
X109982000Y-67437000D01*
X61341000Y-73978000D02*
X61912000Y-73978000D01*
X131572000Y-53340000D02*
X131572000Y-53213000D01*
X97900000Y-52722000D02*
X97282000Y-53340000D01*
X160390400Y-72705400D02*
X160390400Y-76972600D01*
X120760000Y-49020000D02*
X120760000Y-52595000D01*
X77216000Y-93345000D02*
X78105000Y-94234000D01*
X113670000Y-98330000D02*
X113670000Y-99055000D01*
X74295000Y-94488000D02*
X75119802Y-95312802D01*
X75184000Y-90805000D02*
X75184000Y-92773000D01*
X71247000Y-93662000D02*
X69215000Y-91630000D01*
X143637000Y-49020000D02*
X143637000Y-52578000D01*
X61912000Y-73978000D02*
X62738000Y-73152000D01*
X80263000Y-73788000D02*
X80899000Y-73152000D01*
X69215000Y-91630000D02*
X69215000Y-91059000D01*
X75119802Y-96711198D02*
X74168000Y-97663000D01*
X64135000Y-82550000D02*
X64770000Y-83058000D01*
X86470000Y-52722000D02*
X85852000Y-53340000D01*
X125095000Y-74803000D02*
X126238000Y-73660000D01*
X160390400Y-76972600D02*
X159893000Y-77470000D01*
X65278000Y-92076000D02*
X65278000Y-92075000D01*
X76581000Y-73851000D02*
X77189500Y-73851000D01*
X63610000Y-52468000D02*
X62865000Y-53340000D01*
X97900000Y-49020000D02*
X97900000Y-52722000D01*
X77216000Y-92329000D02*
X77216000Y-93345000D01*
X161315400Y-71780400D02*
X160390400Y-72705400D01*
X86470000Y-49050000D02*
X86470000Y-52722000D01*
X82348500Y-85270000D02*
X80010000Y-85270000D01*
X120760000Y-52595000D02*
X120142000Y-53213000D01*
X68326000Y-91948000D02*
X68326000Y-92012000D01*
X111760000Y-67740000D02*
X111457000Y-67437000D01*
X132207000Y-52578000D02*
X131572000Y-53340000D01*
X75040000Y-49050000D02*
X75040000Y-52468000D01*
X120015000Y-53340000D02*
X120015000Y-53340000D01*
X78613000Y-94234000D02*
X79248000Y-94234000D01*
X120142000Y-53340000D02*
X120015000Y-53340000D01*
X73660000Y-73852000D02*
X74140500Y-73852000D01*
X65873000Y-89662000D02*
X62611000Y-89662000D01*
X159258000Y-76835000D02*
X159893000Y-77470000D01*
X62865000Y-53340000D02*
X62865000Y-53213000D01*
X75119802Y-95312802D02*
X75119802Y-96711198D01*
X66675000Y-87835000D02*
X66675000Y-88860000D01*
X70612000Y-73979000D02*
X71092500Y-73979000D01*
X80137000Y-93345000D02*
X80137000Y-92329000D01*
X157005000Y-76835000D02*
X159258000Y-76835000D01*
X65532000Y-72898000D02*
X65532000Y-72962000D01*
X62280800Y-92422200D02*
X61755800Y-91897200D01*
X61755800Y-91897200D02*
X61755800Y-90517200D01*
X75184000Y-92773000D02*
X74295000Y-93662000D01*
X64135000Y-78535000D02*
X64135000Y-82550000D01*
X116000000Y-96000000D02*
X113670000Y-98330000D01*
X63610000Y-49050000D02*
X63610000Y-52468000D01*
X61755800Y-90517200D02*
X62611000Y-89662000D01*
X108712000Y-53340000D02*
X108712000Y-53213000D01*
X120142000Y-53213000D02*
X120142000Y-53340000D01*
X66675000Y-88860000D02*
X65873000Y-89662000D01*
X65532000Y-72962000D02*
X64516000Y-73978000D01*
X67564000Y-73978000D02*
X68172500Y-73978000D01*
X79629000Y-73788000D02*
X80263000Y-73788000D01*
X123190000Y-67740000D02*
X123190000Y-66040000D01*
X69215000Y-91059000D02*
X68326000Y-91948000D01*
X119000000Y-96000000D02*
X116000000Y-96000000D01*
X122460000Y-100000000D02*
X119000000Y-96540000D01*
X64770000Y-83058000D02*
X64643000Y-83058000D01*
X109330000Y-49020000D02*
X109330000Y-52595000D01*
X126238000Y-73660000D02*
X126720600Y-73660000D01*
X78105000Y-94234000D02*
X78613000Y-94234000D01*
X64135000Y-77510000D02*
X64135000Y-78535000D01*
X74803000Y-90424000D02*
X75184000Y-90805000D01*
X68172500Y-73978000D02*
X68998500Y-73152000D01*
X65278000Y-92075000D02*
X66421000Y-90932000D01*
X74140500Y-73852000D02*
X74840500Y-73152000D01*
X123190000Y-66040000D02*
X122555000Y-65405000D01*
X119000000Y-96540000D02*
X119000000Y-96000000D01*
X79248000Y-94234000D02*
X80137000Y-93345000D01*
X71092500Y-73979000D02*
X71919500Y-73152000D01*
X77189500Y-73851000D02*
X77888500Y-73152000D01*
X83820000Y-73152000D02*
X83820000Y-73152000D01*
X143637000Y-52578000D02*
X143002000Y-53213000D01*
%TO.N,Net-(D1-K)*%
X145611000Y-71628000D02*
X145611000Y-67877396D01*
X147955000Y-71755000D02*
X145738000Y-71755000D01*
X156755000Y-64044000D02*
X161381000Y-64044000D01*
X145738000Y-71755000D02*
X145611000Y-71628000D01*
X152655396Y-63119000D02*
X155830000Y-63119000D01*
X155830000Y-63119000D02*
X156755000Y-64044000D01*
X161381000Y-64044000D02*
X162814000Y-62611000D01*
X150173396Y-63315000D02*
X152459396Y-63315000D01*
X145611000Y-67877396D02*
X150173396Y-63315000D01*
X152459396Y-63315000D02*
X152655396Y-63119000D01*
%TO.N,Net-(D1-A)*%
X155067000Y-60071000D02*
X155067000Y-58420000D01*
X145161000Y-67691000D02*
X149987000Y-62865000D01*
X149987000Y-62865000D02*
X152273000Y-62865000D01*
X145161000Y-73025000D02*
X145161000Y-67691000D01*
X146431000Y-74295000D02*
X145161000Y-73025000D01*
X159130000Y-63119000D02*
X159130000Y-62483000D01*
X152273000Y-62865000D02*
X155067000Y-60071000D01*
X159130000Y-62483000D02*
X155067000Y-58420000D01*
X147955000Y-74295000D02*
X146431000Y-74295000D01*
%TO.N,Net-(J1-PadR)*%
X161164000Y-62611000D02*
X161164000Y-54910600D01*
X162467000Y-53607600D02*
X162467000Y-51020000D01*
X161164000Y-54910600D02*
X162467000Y-53607600D01*
%TO.N,MISO*%
X127540000Y-97460000D02*
X123080000Y-93000000D01*
X99405000Y-93000000D02*
X93350000Y-99055000D01*
X123080000Y-93000000D02*
X99405000Y-93000000D01*
%TO.N,SCLK*%
X121540000Y-94000000D02*
X100945000Y-94000000D01*
X100945000Y-94000000D02*
X95890000Y-99055000D01*
X125000000Y-97460000D02*
X121540000Y-94000000D01*
%TO.N,MIDI_RX*%
X122686802Y-80776802D02*
X124963198Y-80776802D01*
X97155000Y-90805000D02*
X111760000Y-90805000D01*
X129743200Y-75996800D02*
X155303200Y-75996800D01*
X90810000Y-97150000D02*
X97155000Y-90805000D01*
X90810000Y-99055000D02*
X90810000Y-97150000D01*
X157005000Y-74295000D02*
X159640000Y-74295000D01*
X121022120Y-88782500D02*
X113782500Y-88782500D01*
X129000000Y-96760380D02*
X121022120Y-88782500D01*
X111760000Y-90805000D02*
X113782500Y-88782500D01*
X119915344Y-82649656D02*
X120813948Y-82649656D01*
X120813948Y-82649656D02*
X122686802Y-80776802D01*
X155303200Y-75996800D02*
X157005000Y-74295000D01*
X159640000Y-74295000D02*
X159665400Y-74320400D01*
X125000000Y-100000000D02*
X126194000Y-98806000D01*
X126194000Y-98806000D02*
X128353620Y-98806000D01*
X113782500Y-88782500D02*
X119915344Y-82649656D01*
X124963198Y-80776802D02*
X129743200Y-75996800D01*
X128353620Y-98806000D02*
X129000000Y-98159620D01*
X129000000Y-98159620D02*
X129000000Y-96760380D01*
%TO.N,RST*%
X112974695Y-95000000D02*
X111130000Y-96844695D01*
X111130000Y-96844695D02*
X111130000Y-99055000D01*
X120000000Y-95000000D02*
X112974695Y-95000000D01*
X122460000Y-97460000D02*
X120000000Y-95000000D01*
%TO.N,IN_0*%
X60541000Y-72316000D02*
X62240000Y-70617000D01*
X62889396Y-75628000D02*
X64350396Y-77089000D01*
X61341000Y-75628000D02*
X62889396Y-75628000D01*
X60541000Y-74828000D02*
X60541000Y-72316000D01*
X61341000Y-75628000D02*
X60541000Y-74828000D01*
X67945000Y-77216000D02*
X67945000Y-78535000D01*
X67818000Y-77089000D02*
X67945000Y-77216000D01*
X64350396Y-77089000D02*
X67818000Y-77089000D01*
%TO.N,IN_1*%
X63716000Y-71681000D02*
X64780000Y-70617000D01*
X64516000Y-75628000D02*
X63716000Y-74828000D01*
X69215000Y-76835000D02*
X69215000Y-78535000D01*
X68733000Y-76353000D02*
X69215000Y-76835000D01*
X64516000Y-75628000D02*
X65241000Y-76353000D01*
X65241000Y-76353000D02*
X68733000Y-76353000D01*
X63716000Y-74828000D02*
X63716000Y-71681000D01*
%TO.N,IN_2*%
X66675000Y-71262000D02*
X67320000Y-70617000D01*
X67564000Y-75628000D02*
X68644396Y-75628000D01*
X67320000Y-70617000D02*
X67730705Y-70617000D01*
X67564000Y-75628000D02*
X66675000Y-74739000D01*
X70485000Y-77468604D02*
X70485000Y-78535000D01*
X68644396Y-75628000D02*
X70485000Y-77468604D01*
X66675000Y-74739000D02*
X66675000Y-71262000D01*
%TO.N,IN_3*%
X69723000Y-70754000D02*
X69860000Y-70617000D01*
X71755000Y-76772000D02*
X71755000Y-78535000D01*
X70612000Y-75629000D02*
X71755000Y-76772000D01*
X70612000Y-75629000D02*
X69723000Y-74740000D01*
X69723000Y-74740000D02*
X69723000Y-70754000D01*
%TO.N,IN_4*%
X73660000Y-75502000D02*
X73660000Y-77900000D01*
X72644000Y-70861000D02*
X72400000Y-70617000D01*
X73660000Y-77900000D02*
X73025000Y-78535000D01*
X72400000Y-70617000D02*
X72440800Y-70657800D01*
X72644000Y-74486000D02*
X72644000Y-70861000D01*
X73660000Y-75502000D02*
X72644000Y-74486000D01*
%TO.N,IN_5*%
X74295000Y-77787000D02*
X74295000Y-78535000D01*
X75565000Y-74485000D02*
X75565000Y-71242000D01*
X75565000Y-71242000D02*
X74940000Y-70617000D01*
X76581000Y-75501000D02*
X75565000Y-74485000D01*
X76581000Y-75501000D02*
X74295000Y-77787000D01*
%TO.N,IN_6*%
X77480000Y-70617000D02*
X77470000Y-70627000D01*
X79629000Y-75438000D02*
X78235248Y-75438000D01*
X78613000Y-71750000D02*
X77480000Y-70617000D01*
X79629000Y-75438000D02*
X78613000Y-74422000D01*
X78235248Y-75438000D02*
X75565000Y-78108248D01*
X78613000Y-74422000D02*
X78613000Y-71750000D01*
X75565000Y-78108248D02*
X75565000Y-78535000D01*
%TO.N,IN_7*%
X79152000Y-77185000D02*
X77758248Y-77185000D01*
X82550000Y-75438000D02*
X81661000Y-74549000D01*
X80899000Y-75438000D02*
X79152000Y-77185000D01*
X76835000Y-78108248D02*
X76835000Y-78535000D01*
X81661000Y-74549000D02*
X81661000Y-72258000D01*
X82550000Y-75438000D02*
X80899000Y-75438000D01*
X81661000Y-72258000D02*
X80020000Y-70617000D01*
X77758248Y-77185000D02*
X76835000Y-78108248D01*
%TO.N,IN_8*%
X76835000Y-87835000D02*
X76835000Y-88860000D01*
X86614000Y-76352400D02*
X86614000Y-76403200D01*
X76835000Y-88860000D02*
X77510000Y-89535000D01*
X80137000Y-89916000D02*
X80137000Y-90679000D01*
X79756000Y-89535000D02*
X80137000Y-89916000D01*
X86004400Y-70510400D02*
X85897800Y-70617000D01*
X85897800Y-70617000D02*
X82560000Y-70617000D01*
X76809600Y-87860400D02*
X76835000Y-87835000D01*
X77510000Y-89535000D02*
X79756000Y-89535000D01*
X76835000Y-85301396D02*
X76835000Y-87835000D01*
X84666396Y-77470000D02*
X76835000Y-85301396D01*
X85496400Y-77470000D02*
X84666396Y-77470000D01*
X86614000Y-76352400D02*
X85496400Y-77470000D01*
%TO.N,IN_9*%
X75565000Y-89028000D02*
X77216000Y-90679000D01*
X74999000Y-98610000D02*
X76327000Y-97282000D01*
X71940000Y-98610000D02*
X74999000Y-98610000D01*
X75565000Y-87835000D02*
X75565000Y-89028000D01*
X69850000Y-96520000D02*
X71940000Y-98610000D01*
X76327000Y-91568000D02*
X77216000Y-90679000D01*
X69850000Y-96188000D02*
X69850000Y-96520000D01*
X76327000Y-97282000D02*
X76327000Y-91568000D01*
%TO.N,IN_10*%
X68326000Y-95504000D02*
X67310000Y-96520000D01*
X69024000Y-92964000D02*
X68326000Y-93662000D01*
X69596000Y-92964000D02*
X69024000Y-92964000D01*
X69850000Y-93218000D02*
X69596000Y-92964000D01*
X75692000Y-94271500D02*
X75692000Y-90287695D01*
X69850000Y-93853000D02*
X69850000Y-93218000D01*
X75692000Y-90287695D02*
X74295000Y-88890695D01*
X68326000Y-93662000D02*
X68326000Y-95504000D01*
X75602500Y-94361000D02*
X75692000Y-94271500D01*
X74295000Y-88890695D02*
X74295000Y-87835000D01*
%TO.N,IN_11*%
X73025000Y-87835000D02*
X73025000Y-89408000D01*
X65278000Y-96012000D02*
X64770000Y-96520000D01*
X73660000Y-89916000D02*
X73533000Y-89916000D01*
X73025000Y-89408000D02*
X73660000Y-89916000D01*
X65278000Y-93726000D02*
X65278000Y-96012000D01*
X65278000Y-93726000D02*
X66802000Y-92202000D01*
%TO.N,IN_12*%
X71780400Y-87860400D02*
X71755000Y-87835000D01*
X86570000Y-74930000D02*
X79750000Y-81750000D01*
X76500000Y-81750000D02*
X71755000Y-86495000D01*
X74295000Y-92012000D02*
X71755000Y-89472000D01*
X79750000Y-81750000D02*
X76500000Y-81750000D01*
X71755000Y-86495000D02*
X71755000Y-87835000D01*
X71755000Y-89472000D02*
X71755000Y-87835000D01*
X92180000Y-74930000D02*
X86570000Y-74930000D01*
%TO.N,IN_13*%
X95200000Y-72200000D02*
X88550000Y-72200000D01*
X97930000Y-74930000D02*
X95200000Y-72200000D01*
X73026000Y-96013000D02*
X74168000Y-96013000D01*
X76295000Y-81000000D02*
X70485000Y-86810000D01*
X70485000Y-89535000D02*
X72263000Y-91313000D01*
X88550000Y-72200000D02*
X79750000Y-81000000D01*
X70459600Y-87860400D02*
X70485000Y-87835000D01*
X72263000Y-91313000D02*
X72263000Y-95250000D01*
X79750000Y-81000000D02*
X76295000Y-81000000D01*
X70485000Y-86810000D02*
X70485000Y-87835000D01*
X106680000Y-74930000D02*
X97930000Y-74930000D01*
X70485000Y-87835000D02*
X70485000Y-89535000D01*
X72263000Y-95250000D02*
X73026000Y-96013000D01*
%TO.N,IN_14*%
X79750000Y-80250000D02*
X75500000Y-80250000D01*
X88250000Y-71750000D02*
X79750000Y-80250000D01*
X69215000Y-89980000D02*
X69215000Y-87835000D01*
X106680000Y-69930000D02*
X104860000Y-71750000D01*
X104860000Y-71750000D02*
X88250000Y-71750000D01*
X75500000Y-80250000D02*
X69215000Y-86535000D01*
X69240400Y-87860400D02*
X69215000Y-87835000D01*
X71247000Y-92012000D02*
X69215000Y-89980000D01*
X69215000Y-86535000D02*
X69215000Y-87835000D01*
%TO.N,IN_15*%
X67945000Y-88382695D02*
X66120695Y-90207000D01*
X62280800Y-96469200D02*
X62230000Y-96520000D01*
X63080800Y-93050400D02*
X62280800Y-93850400D01*
X62280800Y-93850400D02*
X62280800Y-96469200D01*
X66120695Y-90207000D02*
X63717000Y-90207000D01*
X63080800Y-90843200D02*
X63080800Y-93050400D01*
X67945000Y-87835000D02*
X67945000Y-88382695D01*
X63717000Y-90207000D02*
X63080800Y-90843200D01*
X67945000Y-88519000D02*
X67945000Y-87835000D01*
%TO.N,SDA*%
X124744656Y-80294656D02*
X119095344Y-80294656D01*
X140970000Y-67945000D02*
X140970000Y-72517000D01*
X129973604Y-75130000D02*
X124776802Y-80326802D01*
X118110000Y-81280000D02*
X108585000Y-81280000D01*
X119095344Y-80294656D02*
X118110000Y-81280000D01*
X140970000Y-72517000D02*
X138357000Y-75130000D01*
X124776802Y-80326802D02*
X124744656Y-80294656D01*
X138357000Y-75130000D02*
X129973604Y-75130000D01*
X108585000Y-81280000D02*
X106050000Y-83815000D01*
%TO.N,SCL*%
X118908948Y-79844656D02*
X124622552Y-79844656D01*
X103510000Y-83815000D02*
X106680698Y-80644302D01*
X136144000Y-74676000D02*
X138430000Y-72390000D01*
X118109302Y-80644302D02*
X118908948Y-79844656D01*
X124622552Y-79844656D02*
X129791208Y-74676000D01*
X106680698Y-80644302D02*
X118109302Y-80644302D01*
X129791208Y-74676000D02*
X136144000Y-74676000D01*
X138430000Y-72390000D02*
X138430000Y-67945000D01*
%TO.N,S0*%
X84005000Y-81465000D02*
X93540000Y-81465000D01*
X83185000Y-80645000D02*
X84005000Y-81465000D01*
X66675000Y-80645000D02*
X66675000Y-78535000D01*
X93540000Y-81465000D02*
X95890000Y-83815000D01*
%TO.N,S1*%
X82169000Y-81407000D02*
X82042000Y-81407000D01*
X65405000Y-81915000D02*
X65405000Y-78535000D01*
X91450000Y-81915000D02*
X93350000Y-83815000D01*
X82042000Y-81407000D02*
X82042000Y-81407000D01*
X83439000Y-81915000D02*
X91450000Y-81915000D01*
X82169000Y-81407000D02*
X82931000Y-81407000D01*
X82931000Y-81407000D02*
X83439000Y-81915000D01*
%TO.N,S2*%
X82100000Y-82365000D02*
X81280000Y-83185000D01*
X89360000Y-82365000D02*
X82100000Y-82365000D01*
X66675000Y-84210305D02*
X65405000Y-85480305D01*
X66675000Y-83820000D02*
X66675000Y-84210305D01*
X65405000Y-85480305D02*
X65405000Y-87835000D01*
X90810000Y-83815000D02*
X89360000Y-82365000D01*
%TO.N,S3*%
X82555000Y-83815000D02*
X88270000Y-83815000D01*
X64135000Y-85725000D02*
X64135000Y-87835000D01*
X64770000Y-85090000D02*
X64135000Y-85725000D01*
X82550000Y-83820000D02*
X82555000Y-83815000D01*
%TO.N,LED_DATA*%
X87757000Y-101219000D02*
X88270000Y-100706000D01*
X59055000Y-100711000D02*
X59563000Y-101219000D01*
X59055000Y-100711000D02*
X59055000Y-94460000D01*
X59563000Y-101219000D02*
X87757000Y-101219000D01*
X88270000Y-100706000D02*
X88270000Y-99055000D01*
%TO.N,DEMUX*%
X97409000Y-101092000D02*
X98430000Y-100071000D01*
X80137000Y-77724000D02*
X78916000Y-77724000D01*
X98430000Y-100071000D02*
X98430000Y-99055000D01*
X78916000Y-77724000D02*
X78105000Y-78535000D01*
%TO.N,SYNC_TX*%
X116840000Y-77040000D02*
X116840000Y-78065000D01*
X117896000Y-79121000D02*
X118324000Y-79121000D01*
X119380000Y-78065000D02*
X119380000Y-77040000D01*
X116840000Y-77040000D02*
X116840000Y-78740000D01*
X116840000Y-78740000D02*
X116205000Y-79375000D01*
X103510000Y-99827000D02*
X103510000Y-99055000D01*
X118324000Y-79121000D02*
X119380000Y-78065000D01*
X116840000Y-78065000D02*
X117896000Y-79121000D01*
X104775000Y-101092000D02*
X103510000Y-99827000D01*
%TO.N,MIDI_TX*%
X114300000Y-70485000D02*
X114300000Y-67740000D01*
X112141000Y-79121000D02*
X111760000Y-78740000D01*
X121920000Y-72390000D02*
X121285000Y-73025000D01*
X121920000Y-66715000D02*
X121920000Y-67740000D01*
X114300000Y-77040000D02*
X114300000Y-78740000D01*
X111125000Y-79375000D02*
X111760000Y-78740000D01*
X114300000Y-77040000D02*
X114300000Y-74295000D01*
X114300000Y-78740000D02*
X113919000Y-79121000D01*
X121920000Y-67740000D02*
X121920000Y-72390000D01*
X111760000Y-78740000D02*
X111760000Y-77040000D01*
X109855000Y-79375000D02*
X111125000Y-79375000D01*
X106050000Y-100335000D02*
X106050000Y-99055000D01*
X120055000Y-66040000D02*
X121245000Y-66040000D01*
X121245000Y-66040000D02*
X121920000Y-66715000D01*
X106680000Y-100965000D02*
X106050000Y-100335000D01*
X114300000Y-73026396D02*
X116840000Y-70486396D01*
X114300000Y-74295000D02*
X114300000Y-73026396D01*
X119380000Y-66715000D02*
X120055000Y-66040000D01*
X116840000Y-70486396D02*
X116840000Y-67740000D01*
X111760000Y-73025000D02*
X114300000Y-70485000D01*
X111760000Y-77040000D02*
X111760000Y-73025000D01*
X113919000Y-79121000D02*
X112141000Y-79121000D01*
X119380000Y-67740000D02*
X119380000Y-66715000D01*
X116205000Y-73660000D02*
X115570000Y-74295000D01*
X115570000Y-74295000D02*
X114300000Y-74295000D01*
%TO.N,Net-(J6-PadR)*%
X127040000Y-62230000D02*
X127040000Y-61725000D01*
X127040000Y-61725000D02*
X128160000Y-60605000D01*
X128160000Y-51020000D02*
X128160000Y-60605000D01*
%TO.N,Net-(J6-PadT)*%
X123810000Y-62484000D02*
X123810000Y-61470000D01*
X123810000Y-61470000D02*
X120760000Y-58420000D01*
%TO.N,Net-(J7-PadR)*%
X115569000Y-62484000D02*
X115569000Y-61443600D01*
X115569000Y-61443600D02*
X116730000Y-60282600D01*
X116730000Y-60282600D02*
X116730000Y-51020000D01*
%TO.N,Net-(J7-PadT)*%
X111770000Y-62484000D02*
X111770000Y-60860000D01*
X111770000Y-60860000D02*
X109330000Y-58420000D01*
%TO.N,Net-(J8-PadR)*%
X105300000Y-51020000D02*
X105300000Y-61210000D01*
X104785000Y-61725000D02*
X105300000Y-61210000D01*
X104785000Y-62484000D02*
X104785000Y-61725000D01*
%TO.N,Net-(J8-PadT)*%
X97900000Y-58420000D02*
X100975000Y-61495000D01*
X100965000Y-61505000D02*
X100975000Y-61495000D01*
X100965000Y-62484000D02*
X100965000Y-61505000D01*
%TO.N,Net-(J9-Pin_2)*%
X59055000Y-85090000D02*
X60960000Y-83185000D01*
X59055000Y-89472000D02*
X59055000Y-85090000D01*
%TO.N,Net-(J11-PadR)*%
X93870000Y-51050000D02*
X93870000Y-61210000D01*
X93355000Y-61725000D02*
X93870000Y-61210000D01*
X93355000Y-62484000D02*
X93355000Y-61725000D01*
%TO.N,Net-(J11-PadT)*%
X89545000Y-61525000D02*
X86470000Y-58450000D01*
X89545000Y-62484000D02*
X89545000Y-61525000D01*
%TO.N,Net-(J12-PadR)*%
X71010000Y-51050000D02*
X71010000Y-60545000D01*
X71010000Y-60545000D02*
X69830000Y-61725000D01*
X69830000Y-61725000D02*
X69830000Y-62611000D01*
%TO.N,Net-(J12-PadT)*%
X66020000Y-62611000D02*
X66020000Y-60860000D01*
X66020000Y-60860000D02*
X63610000Y-58450000D01*
%TO.N,Net-(J13-PadR)*%
X81260000Y-61725000D02*
X82440000Y-60545000D01*
X82440000Y-51050000D02*
X82440000Y-60545000D01*
X81260000Y-62484000D02*
X81260000Y-61725000D01*
%TO.N,Net-(J13-PadT)*%
X77450000Y-60860000D02*
X75040000Y-58450000D01*
X77450000Y-60860000D02*
X77450000Y-62484000D01*
%TO.N,Net-(J14-PadT)*%
X136778000Y-61597000D02*
X136781000Y-61594000D01*
X136778000Y-62484000D02*
X136778000Y-61597000D01*
X132207000Y-58420000D02*
X133607000Y-58420000D01*
X133607000Y-58420000D02*
X136781000Y-61594000D01*
%TO.N,Net-(J15-PadT)*%
X147982000Y-62103000D02*
X147982000Y-59971000D01*
X147982000Y-59971000D02*
X146431000Y-58420000D01*
X146431000Y-58420000D02*
X143637000Y-58420000D01*
%TO.N,Net-(U3-VO1)*%
X159640000Y-71755000D02*
X159665400Y-71780400D01*
X157005000Y-71755000D02*
X159640000Y-71755000D01*
%TO.N,Net-(R19-Pad2)*%
X161315400Y-69240400D02*
X162040400Y-69965400D01*
X162040400Y-73595400D02*
X161315400Y-74320400D01*
X162040400Y-69965400D02*
X162040400Y-73595400D01*
%TO.N,MIDI_OUT_0*%
X122160000Y-62851000D02*
X124460000Y-65151000D01*
X122160000Y-62484000D02*
X122160000Y-62851000D01*
X120650000Y-77040000D02*
X120650000Y-76613248D01*
X120650000Y-76613248D02*
X124460000Y-72803248D01*
X124460000Y-72803248D02*
X124460000Y-65151000D01*
%TO.N,MIDI_OUT_1*%
X117555695Y-63156000D02*
X116391695Y-64320000D01*
X110120000Y-63638000D02*
X110120000Y-62484000D01*
X118391000Y-63156000D02*
X117555695Y-63156000D01*
X118735000Y-63500000D02*
X118391000Y-63156000D01*
X110802000Y-64320000D02*
X110120000Y-63638000D01*
X118735000Y-76415000D02*
X118735000Y-63500000D01*
X116391695Y-64320000D02*
X110802000Y-64320000D01*
X118110000Y-77040000D02*
X118735000Y-76415000D01*
%TO.N,MIDI_OUT_2*%
X117475000Y-74110000D02*
X117475000Y-64831752D01*
X115570000Y-76015000D02*
X117475000Y-74110000D01*
X115570000Y-77040000D02*
X115570000Y-76015000D01*
X117413248Y-64770000D02*
X106938188Y-64770000D01*
X106323188Y-64155000D02*
X100223000Y-64155000D01*
X106938188Y-64770000D02*
X106323188Y-64155000D01*
X99822000Y-63754000D02*
X99830000Y-63746000D01*
X99830000Y-63746000D02*
X99315000Y-63231000D01*
X117475000Y-64831752D02*
X117413248Y-64770000D01*
X100223000Y-64155000D02*
X99822000Y-63754000D01*
X99315000Y-63231000D02*
X99315000Y-62484000D01*
%TO.N,Net-(R27-Pad1)*%
X59055000Y-92810000D02*
X59055000Y-91122000D01*
%TO.N,MIDI_OUT_3*%
X89243000Y-64605000D02*
X87895000Y-63257000D01*
X113030000Y-77040000D02*
X113030000Y-73660000D01*
X106136792Y-64605000D02*
X89243000Y-64605000D01*
X116195000Y-70495000D02*
X116195000Y-66028604D01*
X115560396Y-65394000D02*
X106925792Y-65394000D01*
X87895000Y-63257000D02*
X87895000Y-62484000D01*
X106925792Y-65394000D02*
X106136792Y-64605000D01*
X116195000Y-66028604D02*
X115560396Y-65394000D01*
X113030000Y-73660000D02*
X116195000Y-70495000D01*
%TO.N,MIDI_OUT_4*%
X65278000Y-64135000D02*
X64516000Y-64135000D01*
X112385000Y-66668248D02*
X112010752Y-66294000D01*
X64370000Y-63989000D02*
X64370000Y-62611000D01*
X105764000Y-65505000D02*
X66648000Y-65505000D01*
X106553000Y-66294000D02*
X105764000Y-65505000D01*
X112385000Y-67095000D02*
X112385000Y-66668248D01*
X66648000Y-65505000D02*
X65278000Y-64135000D01*
X64516000Y-64135000D02*
X64370000Y-63989000D01*
X112010752Y-66294000D02*
X106553000Y-66294000D01*
X113030000Y-67740000D02*
X112385000Y-67095000D01*
%TO.N,MIDI_OUT_5*%
X115570000Y-66040000D02*
X115374000Y-65844000D01*
X105950396Y-65055000D02*
X77755000Y-65055000D01*
X77755000Y-65055000D02*
X75800000Y-63100000D01*
X115570000Y-67740000D02*
X115570000Y-66040000D01*
X75800000Y-63100000D02*
X75800000Y-62484000D01*
X106739396Y-65844000D02*
X105950396Y-65055000D01*
X115374000Y-65844000D02*
X106739396Y-65844000D01*
%TO.N,SYNC_OUT_0*%
X128778000Y-62484000D02*
X135128000Y-62484000D01*
X118110000Y-64135000D02*
X117856000Y-63881000D01*
X118110000Y-67740000D02*
X118110000Y-64135000D01*
X127381000Y-63881000D02*
X128778000Y-62484000D01*
%TO.N,SYNC_OUT_1*%
X146332000Y-63218000D02*
X146332000Y-62484000D01*
X146050000Y-63500000D02*
X146332000Y-63218000D01*
X128397000Y-69469000D02*
X128397000Y-63881000D01*
X128397000Y-63881000D02*
X128778000Y-63500000D01*
X128778000Y-63500000D02*
X146050000Y-63500000D01*
X127000000Y-70866000D02*
X128397000Y-69469000D01*
X120650000Y-67740000D02*
X120650000Y-70866000D01*
%TD*%
M02*
